{
.appVersion = "1208";
classes = (
{
automatic = 1;

glyphs = (
{
glyphname = A;
lastChange = "2019-01-29 12:30:49 +0000";
layers = (
{
anchors = (
{
name = bottom;
position = "{361, 0}";
},
{
name = ogonek;
position = "{687, 10}";
},
{
name = top;
position = "{361, 712}";
}
);
background = {
anchors = (
{
name = bottom;
position = "{361, 0}";
},
{
name = ogonek;
position = "{687, 10}";
},
{
name = top;
position = "{361, 712}";
}
);
paths = (
{
closed = 1;
nodes = (
"374 676 LINE",
"347 676 LINE",
"637 0 LINE",
"694 0 LINE",
"386 712 LINE",
"335 712 LINE",
"27 0 LINE",
"84 0 LINE"
);
},
{
closed = 1;
nodes = (
"570 193 LINE",
"552 241 LINE",
"171 241 LINE",
"155 193 LINE"
);
}
);
};
layerId = "9E718F8A-2CEA-4931-B05D-987794BD97DA";
paths = (
{
closed = 1;
nodes = (
"374 676 LINE",
"347 676 LINE",
"637 0 LINE",
"694 0 LINE",
"386 712 LINE",
"335 712 LINE",
"27 0 LINE",
"84 0 LINE"
);
},
{
closed = 1;
nodes = (
"570 193 LINE",
"552 241 LINE",
"171 241 LINE",
"155 193 LINE"
);
}
);
width = 725;
},
{
anchors = (
{
name = bottom;
position = "{379, 0}";
},
{
name = ogonek;
position = "{711, 10}";
},
{
name = top;
position = "{378, 712}";
}
);
background = {
anchors = (
{
name = bottom;
position = "{379, 0}";
},
{
name = ogonek;
position = "{711, 10}";
},
{
name = top;
position = "{378, 712}";
}
);
paths = (
{
closed = 1;
nodes = (
"399 583 LINE",
"361 583 LINE",
"611 0 LINE",
"772 0 LINE",
"443 712 LINE",
"313 712 LINE",
"-15 0 LINE",
"148 0 LINE"
);
},
{
closed = 1;
nodes = (
"613 156 LINE",
"551 279 LINE",
"196 279 LINE",
"134 156 LINE"
);
}
);
};
layerId = "E1B555A7-F4E1-459C-9C1A-AE952106EEF9";
paths = (
{
closed = 1;
nodes = (
"399 583 LINE",
"361 583 LINE",
"611 0 LINE",
"772 0 LINE",
"443 712 LINE",
"313 712 LINE",
"-15 0 LINE",
"148 0 LINE"
);
},
{
closed = 1;
nodes = (
"613 156 LINE",
"551 279 LINE",
"196 279 LINE",
"134 156 LINE"
);
}
);
width = 761;
}
);
leftKerningGroup = A;
rightKerningGroup = A;
unicode = 0041;
userData = {
anchors = (
);
b = {
};
com.typemytype.robofont.layerData = {
b = {
anchors = (
);
components = (
);
contours = (
{
points = (
{
segmentType = line;
smooth = 0;
x = 403;
y = 502;
},
{
segmentType = line;
smooth = 0;
x = 703;
y = 1275;
},
{
segmentType = line;
smooth = 0;
x = 705;
y = 1275;
},
{
segmentType = line;
smooth = 0;
x = 1004;
y = 502;
}
);
},
{
points = (
{
segmentType = curve;
smooth = 1;
x = 150;
y = 0;
},
{
smooth = 0;
x = 181;
y = 0;
},
{
smooth = 0;
x = 214;
y = 15;
},
{
segmentType = curve;
smooth = 1;
x = 229;
y = 53;
},
{
segmentType = line;
smooth = 0;
x = 356;
y = 373;
},
{
segmentType = line;
smooth = 0;
x = 1051;
y = 373;
},
{
segmentType = line;
smooth = 1;
x = 1179;
y = 53;
},
{
smooth = 0;
x = 1193;
y = 17;
},
{
smooth = 0;
x = 1228;
y = 0;
},
{
segmentType = curve;
smooth = 1;
x = 1260;
y = 0;
},
{
smooth = 0;
x = 1306;
y = 0;
},
{
smooth = 0;
x = 1354;
y = 31;
},
{
segmentType = curve;
smooth = 1;
x = 1354;
y = 80;
},
{
smooth = 0;
x = 1354;
y = 87;
},
{
smooth = 0;
x = 1352;
y = 97;
},
{
segmentType = curve;
smooth = 0;
x = 1349;
y = 108;
},
{
segmentType = line;
smooth = 1;
x = 871;
y = 1288;
},
{
smooth = 0;
x = 817;
y = 1420;
},
{
smooth = 0;
x = 777;
y = 1430;
},
{
segmentType = curve;
smooth = 1;
x = 710;
y = 1430;
},
{
smooth = 0;
x = 644;
y = 1430;
},
{
smooth = 0;
x = 596;
y = 1413;
},
{
segmentType = curve;
smooth = 1;
x = 542;
y = 1280;
},
{
segmentType = line;
smooth = 1;
x = 66;
y = 108;
},
{
smooth = 0;
x = 62;
y = 97;
},
{
smooth = 0;
x = 60;
y = 87;
},
{
segmentType = curve;
smooth = 1;
x = 60;
y = 78;
},
{
smooth = 0;
x = 60;
y = 32;
},
{
smooth = 0;
x = 106;
y = 0;
}
);
}
);
lib = {
};
name = A;
unicodes = (
);
width = 1414;
};
};
components = (
);
contours = {
};
lib = {
};
name = A;
points = {
};
segmentType = line;
unicodes = (
);
width = 1445;
x = 718;
y = 1232;
};
},
{
glyphname = Aogonek;
lastChange = "2019-01-29 12:30:49 +0000";
layers = (
{
background = {
paths = (
{
closed = 1;
nodes = (
"570 193 LINE",
"552 241 LINE",
"171 241 LINE",
"155 193 LINE"
);
},
{
closed = 1;
nodes = (
"701 -143 OFFCURVE",
"679 -149 OFFCURVE",
"663 -149 CURVE SMOOTH",
"622 -149 OFFCURVE",
"594 -126 OFFCURVE",
"594 -83 CURVE SMOOTH",
"594 -38 OFFCURVE",
"622 0 OFFCURVE",
"687 0 CURVE SMOOTH",
"694 0 LINE",
"386 712 LINE",
"335 712 LINE",
"27 0 LINE",
"84 0 LINE",
"374 676 LINE",
"347 676 LINE",
"637 0 LINE",
"661 38 LINE",
"584 21 OFFCURVE",
"543 -28 OFFCURVE",
"543 -89 CURVE SMOOTH",
"543 -149 OFFCURVE",
"589 -193 OFFCURVE",
"658 -193 CURVE SMOOTH",
"691 -193 OFFCURVE",
"719 -183 OFFCURVE",
"738 -170 CURVE",
"722 -131 LINE"
);
}
);
};
layerId = "9E718F8A-2CEA-4931-B05D-987794BD97DA";
paths = (
{
closed = 1;
nodes = (
"570 193 LINE",
"552 241 LINE",
"171 241 LINE",
"155 193 LINE"
);
},
{
closed = 1;
nodes = (
"701 -143 OFFCURVE",
"679 -149 OFFCURVE",
"663 -149 CURVE SMOOTH",
"622 -149 OFFCURVE",
"594 -126 OFFCURVE",
"594 -83 CURVE SMOOTH",
"594 -38 OFFCURVE",
"622 0 OFFCURVE",
"687 0 CURVE SMOOTH",
"694 0 LINE",
"386 712 LINE",
"335 712 LINE",
"27 0 LINE",
"84 0 LINE",
"374 676 LINE",
"347 676 LINE",
"637 0 LINE",
"661 38 LINE",
"584 21 OFFCURVE",
"543 -28 OFFCURVE",
"543 -89 CURVE SMOOTH",
"543 -149 OFFCURVE",
"589 -193 OFFCURVE",
"658 -193 CURVE SMOOTH",
"691 -193 OFFCURVE",
"719 -183 OFFCURVE",
"738 -170 CURVE",
"722 -131 LINE"
);
}
);
width = 725;
},
{
background = {
paths = (
{
closed = 1;
nodes = (
"613 156 LINE",
"551 279 LINE",
"196 279 LINE",
"134 156 LINE"
);
},
{
closed = 1;
nodes = (
"738 -114 OFFCURVE",
"720 -118 OFFCURVE",
"703 -118 CURVE SMOOTH",
"665 -118 OFFCURVE",
"643 -100 OFFCURVE",
"643 -65 CURVE SMOOTH",
"643 -27 OFFCURVE",
"673 0 OFFCURVE",
"718 0 CURVE SMOOTH",
"772 0 LINE",
"443 712 LINE",
"313 712 LINE",
"-15 0 LINE",
"148 0 LINE",
"399 583 LINE",
"361 583 LINE",
"611 0 LINE",
"632 33 LINE",
"575 11 OFFCURVE",
"543 -35 OFFCURVE",
"543 -88 CURVE SMOOTH",
"543 -156 OFFCURVE",
"600 -199 OFFCURVE",
"673 -199 CURVE SMOOTH",
"709 -199 OFFCURVE",
"744 -192 OFFCURVE",
"775 -179 CURVE",
"758 -106 LINE"
);
}
);
};
layerId = "E1B555A7-F4E1-459C-9C1A-AE952106EEF9";
paths = (
{
closed = 1;
nodes = (
"613 156 LINE",
"551 279 LINE",
"196 279 LINE",
"134 156 LINE"
);
},
{
closed = 1;
nodes = (
"738 -114 OFFCURVE",
"720 -118 OFFCURVE",
"703 -118 CURVE SMOOTH",
"665 -118 OFFCURVE",
"643 -100 OFFCURVE",
"643 -65 CURVE SMOOTH",
"643 -27 OFFCURVE",
"673 0 OFFCURVE",
"718 0 CURVE SMOOTH",
"772 0 LINE",
"443 712 LINE",
"313 712 LINE",
"-15 0 LINE",
"148 0 LINE",
"399 583 LINE",
"361 583 LINE",
"611 0 LINE",
"632 33 LINE",
"575 11 OFFCURVE",
"543 -35 OFFCURVE",
"543 -88 CURVE SMOOTH",
"543 -156 OFFCURVE",
"600 -199 OFFCURVE",
"673 -199 CURVE SMOOTH",
"709 -199 OFFCURVE",
"744 -192 OFFCURVE",
"775 -179 CURVE",
"758 -106 LINE"
);
}
);
width = 761;
}
);
leftKerningGroup = A;
rightKerningGroup = A;
unicode = 0104;
},
{
glyphname = AE;
lastChange = "2019-01-29 12:30:49 +0000";
layers = (
{
anchors = (
{
name = bottom;
position = "{500, 0}";
},
{
name = top;
position = "{499, 712}";
}
);
background = {
anchors = (
{
name = bottom;
position = "{500, 0}";
},
{
name = top;
position = "{499, 712}";
}
);
paths = (
{
closed = 1;
nodes = (
"66 0 LINE",
"464 672 LINE",
"439 663 LINE",
"941 663 LINE",
"941 712 LINE",
"434 712 LINE",
"7 0 LINE"
);
},
{
closed = 1;
nodes = (
"573 193 LINE",
"564 241 LINE",
"162 241 LINE",
"145 193 LINE"
);
},
{
closed = 1;
nodes = (
"941 0 LINE",
"941 49 LINE",
"605 49 LINE",
"544 688 LINE",
"496 688 LINE",
"561 0 LINE"
);
},
{
closed = 1;
nodes = (
"921 337 LINE",
"921 386 LINE",
"562 386 LINE",
"562 337 LINE"
);
}
);
};
layerId = "9E718F8A-2CEA-4931-B05D-987794BD97DA";
paths = (
{
closed = 1;
nodes = (
"66 0 LINE",
"464 672 LINE",
"439 663 LINE",
"941 663 LINE",
"941 712 LINE",
"434 712 LINE",
"7 0 LINE"
);
},
{
closed = 1;
nodes = (
"573 193 LINE",
"564 241 LINE",
"162 241 LINE",
"145 193 LINE"
);
},
{
closed = 1;
nodes = (
"941 0 LINE",
"941 49 LINE",
"605 49 LINE",
"544 688 LINE",
"496 688 LINE",
"561 0 LINE"
);
},
{
closed = 1;
nodes = (
"921 337 LINE",
"921 386 LINE",
"562 386 LINE",
"562 337 LINE"
);
}
);
width = 998;
},
{
anchors = (
{
name = bottom;
position = "{508, 0}";
},
{
name = top;
position = "{508, 712}";
}
);
background = {
anchors = (
{
name = bottom;
position = "{508, 0}";
},
{
name = top;
position = "{508, 712}";
}
);
paths = (
{
closed = 1;
nodes = (
"141 0 LINE",
"501 607 LINE",
"470 586 LINE",
"973 586 LINE",
"973 712 LINE",
"414 712 LINE",
"-35 0 LINE"
);
},
{
closed = 1;
nodes = (
"590 156 LINE",
"554 279 LINE",
"198 279 LINE",
"135 156 LINE"
);
},
{
closed = 1;
nodes = (
"973 0 LINE",
"973 126 LINE",
"685 126 LINE",
"649 639 LINE",
"503 639 LINE",
"546 0 LINE"
);
},
{
closed = 1;
nodes = (
"952 299 LINE",
"952 425 LINE",
"571 425 LINE",
"571 299 LINE"
);
}
);
};
layerId = "E1B555A7-F4E1-459C-9C1A-AE952106EEF9";
paths = (
{
closed = 1;
nodes = (
"141 0 LINE",
"501 607 LINE",
"470 586 LINE",
"973 586 LINE",
"973 712 LINE",
"414 712 LINE",
"-35 0 LINE"
);
},
{
closed = 1;
nodes = (
"590 156 LINE",
"554 279 LINE",
"198 279 LINE",
"135 156 LINE"
);
},
{
closed = 1;
nodes = (
"973 0 LINE",
"973 126 LINE",
"685 126 LINE",
"649 639 LINE",
"503 639 LINE",
"546 0 LINE"
);
},
{
closed = 1;
nodes = (
"952 299 LINE",
"952 425 LINE",
"571 425 LINE",
"571 299 LINE"
);
}
);
width = 1011;
}
);
leftKerningGroup = A;
rightKerningGroup = E;
unicode = 00C6;
userData = {
com.typemytype.robofont.layerData = {
b = {
anchors = (
);
components = (
);
contours = (
);
lib = {
};
name = AE;
unicodes = (
);
width = 1976;
};
};
};
},
{
glyphname = B;
lastChange = "2019-01-29 12:30:49 +0000";
layers = (
{
anchors = (
{
name = bottom;
position = "{339, 0}";
},
{
name = top;
position = "{338, 712}";
}
);
background = {
anchors = (
{
name = bottom;
position = "{339, 0}";
},
{
name = top;
position = "{338, 712}";
}
);
paths = (
{
closed = 1;
nodes = (
"373 0 LINE SMOOTH",
"521 0 OFFCURVE",
"605 67 OFFCURVE",
"605 193 CURVE SMOOTH",
"605 288 OFFCURVE",
"551 351 OFFCURVE",
"462 368 CURVE",
"462 360 LINE",
"540 384 OFFCURVE",
"589 442 OFFCURVE",
"589 525 CURVE SMOOTH",
"589 646 OFFCURVE",
"506 712 OFFCURVE",
"362 712 CURVE SMOOTH",
"92 712 LINE",
"92 0 LINE"
);
},
{
closed = 1;
nodes = (
"146 337 LINE",
"370 337 LINE SMOOTH",
"490 337 OFFCURVE",
"549 287 OFFCURVE",
"549 190 CURVE SMOOTH",
"549 94 OFFCURVE",
"492 48 OFFCURVE",
"370 48 CURVE SMOOTH",
"146 48 LINE"
);
},
{
closed = 1;
nodes = (
"146 664 LINE",
"355 664 LINE SMOOTH",
"475 664 OFFCURVE",
"533 618 OFFCURVE",
"533 528 CURVE SMOOTH",
"533 436 OFFCURVE",
"472 386 OFFCURVE",
"355 386 CURVE SMOOTH",
"146 386 LINE"
);
}
);
};
layerId = "9E718F8A-2CEA-4931-B05D-987794BD97DA";
paths = (
{
closed = 1;
nodes = (
"373 0 LINE SMOOTH",
"521 0 OFFCURVE",
"605 67 OFFCURVE",
"605 193 CURVE SMOOTH",
"605 288 OFFCURVE",
"551 351 OFFCURVE",
"462 368 CURVE",
"462 360 LINE",
"540 384 OFFCURVE",
"589 442 OFFCURVE",
"589 525 CURVE SMOOTH",
"589 646 OFFCURVE",
"506 712 OFFCURVE",
"362 712 CURVE SMOOTH",
"92 712 LINE",
"92 0 LINE"
);
},
{
closed = 1;
nodes = (
"146 337 LINE",
"370 337 LINE SMOOTH",
"490 337 OFFCURVE",
"549 287 OFFCURVE",
"549 190 CURVE SMOOTH",
"549 94 OFFCURVE",
"492 48 OFFCURVE",
"370 48 CURVE SMOOTH",
"146 48 LINE"
);
},
{
closed = 1;
nodes = (
"146 664 LINE",
"355 664 LINE SMOOTH",
"475 664 OFFCURVE",
"533 618 OFFCURVE",
"533 528 CURVE SMOOTH",
"533 436 OFFCURVE",
"472 386 OFFCURVE",
"355 386 CURVE SMOOTH",
"146 386 LINE"
);
}
);
width = 675;
},
{
anchors = (
{
name = bottom;
position = "{350, 0}";
},
{
name = top;
position = "{350, 712}";
}
);
background = {
anchors = (
{
name = bottom;
position = "{350, 0}";
},
{
name = top;
position = "{350, 712}";
}
);
paths = (
{
closed = 1;
nodes = (
"409 0 LINE SMOOTH",
"564 0 OFFCURVE",
"659 75 OFFCURVE",
"659 195 CURVE SMOOTH",
"659 287 OFFCURVE",
"607 351 OFFCURVE",
"515 372 CURVE",
"515 364 LINE",
"594 387 OFFCURVE",
"640 448 OFFCURVE",
"640 527 CURVE SMOOTH",
"640 641 OFFCURVE",
"547 712 OFFCURVE",
"399 712 CURVE SMOOTH",
"68 712 LINE",
"68 0 LINE"
);
},
{
closed = 1;
nodes = (
"226 300 LINE",
"390 300 LINE SMOOTH",
"472 300 OFFCURVE",
"506 273 OFFCURVE",
"506 211 CURVE SMOOTH",
"506 150 OFFCURVE",
"472 124 OFFCURVE",
"390 124 CURVE SMOOTH",
"226 124 LINE"
);
},
{
closed = 1;
nodes = (
"226 588 LINE",
"372 588 LINE SMOOTH",
"450 588 OFFCURVE",
"487 562 OFFCURVE",
"487 505 CURVE SMOOTH",
"487 450 OFFCURVE",
"450 424 OFFCURVE",
"372 424 CURVE SMOOTH",
"226 424 LINE"
);
}
);
};
layerId = "E1B555A7-F4E1-459C-9C1A-AE952106EEF9";
paths = (
{
closed = 1;
nodes = (
"409 0 LINE SMOOTH",
"564 0 OFFCURVE",
"659 75 OFFCURVE",
"659 195 CURVE SMOOTH",
"659 287 OFFCURVE",
"607 351 OFFCURVE",
"515 372 CURVE",
"515 364 LINE",
"594 387 OFFCURVE",
"640 448 OFFCURVE",
"640 527 CURVE SMOOTH",
"640 641 OFFCURVE",
"547 712 OFFCURVE",
"399 712 CURVE SMOOTH",
"68 712 LINE",
"68 0 LINE"
);
},
{
closed = 1;
nodes = (
"226 300 LINE",
"390 300 LINE SMOOTH",
"472 300 OFFCURVE",
"506 273 OFFCURVE",
"506 211 CURVE SMOOTH",
"506 150 OFFCURVE",
"472 124 OFFCURVE",
"390 124 CURVE SMOOTH",
"226 124 LINE"
);
},
{
closed = 1;
nodes = (
"226 588 LINE",
"372 588 LINE SMOOTH",
"450 588 OFFCURVE",
"487 562 OFFCURVE",
"487 505 CURVE SMOOTH",
"487 450 OFFCURVE",
"450 424 OFFCURVE",
"372 424 CURVE SMOOTH",
"226 424 LINE"
);
}
);
width = 697;
}
);
leftKerningGroup = H;
rightKerningGroup = B;
unicode = 0042;
userData = {
anchors = (
);
b = {
};
com.typemytype.robofont.layerData = {
b = {
anchors = (
);
components = (
);
contours = (
{
points = (
{
segmentType = curve;
smooth = 1;
x = 266;
y = 0;
},
{
segmentType = line;
smooth = 1;
x = 1035;
y = 0;
},
{
smooth = 0;
x = 1084;
y = 0;
},
{
smooth = 0;
x = 1108;
y = 36;
},
{
segmentType = curve;
smooth = 1;
x = 1108;
y = 73;
},
{
smooth = 0;
x = 1108;
y = 109;
},
{
smooth = 0;
x = 1084;
y = 145;
},
{
segmentType = curve;
smooth = 1;
x = 1035;
y = 145;
},
{
segmentType = line;
smooth = 0;
x = 353;
y = 145;
},
{
segmentType = line;
smooth = 0;
x = 353;
y = 662;
},
{
segmentType = line;
smooth = 1;
x = 975;
y = 662;
},
{
smooth = 0;
x = 1024;
y = 662;
},
{
smooth = 0;
x = 1049;
y = 698;
},
{
segmentType = curve;
smooth = 1;
x = 1049;
y = 734;
},
{
smooth = 0;
x = 1049;
y = 770;
},
{
smooth = 0;
x = 1026;
y = 806;
},
{
segmentType = curve;
smooth = 1;
x = 975;
y = 806;
},
{
segmentType = line;
smooth = 0;
x = 353;
y = 806;
},
{
segmentType = line;
smooth = 0;
x = 353;
y = 1281;
},
{
segmentType = line;
smooth = 1;
x = 1007;
y = 1281;
},
{
smooth = 0;
x = 1056;
y = 1281;
},
{
smooth = 0;
x = 1080;
y = 1317;
},
{
segmentType = curve;
smooth = 1;
x = 1080;
y = 1354;
},
{
smooth = 0;
x = 1080;
y = 1390;
},
{
smooth = 0;
x = 1056;
y = 1426;
},
{
segmentType = curve;
smooth = 1;
x = 1007;
y = 1426;
},
{
segmentType = line;
smooth = 1;
x = 261;
y = 1426;
},
{
smooth = 0;
x = 213;
y = 1426;
},
{
smooth = 0;
x = 178;
y = 1383;
},
{
segmentType = curve;
smooth = 1;
x = 178;
y = 1340;
},
{
segmentType = line;
smooth = 1;
x = 178;
y = 86;
},
{
smooth = 0;
x = 178;
y = 41;
},
{
smooth = 0;
x = 222;
y = 0;
}
);
}
);
lib = {
};
name = B;
unicodes = (
);
width = 1292;
};
};
components = (
);
contours = {
};
lib = {
};
name = B;
points = {
};
segmentType = curve;
unicodes = (
);
width = 1395;
x = 676;
y = 1260;
};
},
{
glyphname = C;
lastChange = "2019-01-29 12:30:49 +0000";
layers = (
{
anchors = (
{
name = bottom;
position = "{384, 0}";
},
{
name = top;
position = "{385, 712}";
}
);
background = {
anchors = (
{
name = bottom;
position = "{384, 0}";
},
{
name = top;
position = "{385, 712}";
}
);
paths = (
{
closed = 1;
nodes = (
"483 -8 OFFCURVE",
"566 23 OFFCURVE",
"627 86 CURVE",
"603 130 LINE",
"533 67 OFFCURVE",
"469 42 OFFCURVE",
"385 42 CURVE SMOOTH",
"217 42 OFFCURVE",
"121 157 OFFCURVE",
"121 357 CURVE SMOOTH",
"121 556 OFFCURVE",
"218 670 OFFCURVE",
"385 670 CURVE SMOOTH",
"469 670 OFFCURVE",
"533 645 OFFCURVE",
"603 582 CURVE",
"627 626 LINE",
"566 689 OFFCURVE",
"483 720 OFFCURVE",
"385 720 CURVE SMOOTH",
"187 720 OFFCURVE",
"64 584 OFFCURVE",
"64 357 CURVE SMOOTH",
"64 129 OFFCURVE",
"187 -8 OFFCURVE",
"385 -8 CURVE SMOOTH"
);
}
);
};
layerId = "9E718F8A-2CEA-4931-B05D-987794BD97DA";
paths = (
{
closed = 1;
nodes = (
"483 -8 OFFCURVE",
"566 23 OFFCURVE",
"627 86 CURVE",
"603 130 LINE",
"533 67 OFFCURVE",
"469 42 OFFCURVE",
"385 42 CURVE SMOOTH",
"217 42 OFFCURVE",
"121 157 OFFCURVE",
"121 357 CURVE SMOOTH",
"121 556 OFFCURVE",
"218 670 OFFCURVE",
"385 670 CURVE SMOOTH",
"469 670 OFFCURVE",
"533 645 OFFCURVE",
"603 582 CURVE",
"627 626 LINE",
"566 689 OFFCURVE",
"483 720 OFFCURVE",
"385 720 CURVE SMOOTH",
"187 720 OFFCURVE",
"64 584 OFFCURVE",
"64 357 CURVE SMOOTH",
"64 129 OFFCURVE",
"187 -8 OFFCURVE",
"385 -8 CURVE SMOOTH"
);
}
);
width = 684;
},
{
anchors = (
{
name = bottom;
position = "{397, 0}";
},
{
name = top;
position = "{397, 712}";
}
);
background = {
anchors = (
{
name = bottom;
position = "{397, 0}";
},
{
name = top;
position = "{397, 712}";
}
);
paths = (
{
closed = 1;
nodes = (
"498 -9 OFFCURVE",
"590 21 OFFCURVE",
"645 72 CURVE",
"594 188 LINE",
"531 141 OFFCURVE",
"472 121 OFFCURVE",
"407 121 CURVE SMOOTH",
"283 121 OFFCURVE",
"213 202 OFFCURVE",
"213 357 CURVE SMOOTH",
"213 511 OFFCURVE",
"283 591 OFFCURVE",
"407 591 CURVE SMOOTH",
"472 591 OFFCURVE",
"531 571 OFFCURVE",
"594 524 CURVE",
"645 640 LINE",
"590 691 OFFCURVE",
"498 721 OFFCURVE",
"404 721 CURVE SMOOTH",
"184 721 OFFCURVE",
"47 577 OFFCURVE",
"47 357 CURVE SMOOTH",
"47 136 OFFCURVE",
"184 -9 OFFCURVE",
"404 -9 CURVE SMOOTH"
);
}
);
};
layerId = "E1B555A7-F4E1-459C-9C1A-AE952106EEF9";
paths = (
{
closed = 1;
nodes = (
"498 -9 OFFCURVE",
"590 21 OFFCURVE",
"645 72 CURVE",
"594 188 LINE",
"531 141 OFFCURVE",
"472 121 OFFCURVE",
"407 121 CURVE SMOOTH",
"283 121 OFFCURVE",
"213 202 OFFCURVE",
"213 357 CURVE SMOOTH",
"213 511 OFFCURVE",
"283 591 OFFCURVE",
"407 591 CURVE SMOOTH",
"472 591 OFFCURVE",
"531 571 OFFCURVE",
"594 524 CURVE",
"645 640 LINE",
"590 691 OFFCURVE",
"498 721 OFFCURVE",
"404 721 CURVE SMOOTH",
"184 721 OFFCURVE",
"47 577 OFFCURVE",
"47 357 CURVE SMOOTH",
"47 136 OFFCURVE",
"184 -9 OFFCURVE",
"404 -9 CURVE SMOOTH"
);
}
);
width = 685;
}
);
leftKerningGroup = O;
rightKerningGroup = C;
unicode = 0043;
userData = {
anchors = (
);
b = {
};
com.typemytype.robofont.layerData = {
b = {
anchors = (
);
components = (
);
contours = (
);
lib = {
};
name = C;
unicodes = (
);
width = 1353.89;
};
};
components = (
);
contours = (
);
lib = {
};
name = C;
unicodes = (
);
width = 1354;
};
},
{
color = 3;
glyphname = D;
lastChange = "2019-01-29 12:31:20 +0000";
layers = (
{
anchors = (
{
name = bottom;
position = "{365, 0}";
},
{
name = center;
position = "{365, 357}";
},
{
name = top;
position = "{364, 712}";
}
);
background = {
anchors = (
{
name = bottom;
position = "{365, 0}";
},
{
name = center;
position = "{365, 357}";
},
{
name = top;
position = "{364, 712}";
}
);
paths = (
{
closed = 1;
nodes = (
"181 0 OFFCURVE",
"272 0 OFFCURVE",
"363 0 CURVE SMOOTH",
"594 0 OFFCURVE",
"748 141 OFFCURVE",
"748 354 CURVE SMOOTH",
"748 567 OFFCURVE",
"593 712 OFFCURVE",
"363 712 CURVE SMOOTH",
"272 712 OFFCURVE",
"181 712 OFFCURVE",
"88 713 CURVE",
"89 594 OFFCURVE",
"90 475 OFFCURVE",
"90 356 CURVE SMOOTH",
"90 237 OFFCURVE",
"89 118 OFFCURVE",
"88 -1 CURVE"
);
},
{
closed = 1;
nodes = (
"149 152 OFFCURVE",
"148 254 OFFCURVE",
"148 357 CURVE SMOOTH",
"148 459 OFFCURVE",
"149 561 OFFCURVE",
"150 663 CURVE",
"221 664 OFFCURVE",
"295 664 OFFCURVE",
"368 664 CURVE SMOOTH",
"569 664 OFFCURVE",
"687 533 OFFCURVE",
"687 353 CURVE SMOOTH",
"687 173 OFFCURVE",
"569 49 OFFCURVE",
"368 49 CURVE SMOOTH",
"295 49 OFFCURVE",
"221 49 OFFCURVE",
"150 50 CURVE"
);
}
);
};
layerId = "9E718F8A-2CEA-4931-B05D-987794BD97DA";
paths = (
{
closed = 1;
nodes = (
"181 0 OFFCURVE",
"272 0 OFFCURVE",
"363 0 CURVE SMOOTH",
"594 0 OFFCURVE",
"748 141 OFFCURVE",
"748 354 CURVE SMOOTH",
"748 567 OFFCURVE",
"593 712 OFFCURVE",
"363 712 CURVE SMOOTH",
"272 712 OFFCURVE",
"181 712 OFFCURVE",
"88 713 CURVE",
"89 594 OFFCURVE",
"90 475 OFFCURVE",
"90 356 CURVE SMOOTH",
"90 237 OFFCURVE",
"89 118 OFFCURVE",
"88 -1 CURVE"
);
},
{
closed = 1;
nodes = (
"149 152 OFFCURVE",
"148 254 OFFCURVE",
"148 357 CURVE SMOOTH",
"148 459 OFFCURVE",
"149 561 OFFCURVE",
"150 663 CURVE",
"221 664 OFFCURVE",
"295 664 OFFCURVE",
"368 664 CURVE SMOOTH",
"569 664 OFFCURVE",
"687 533 OFFCURVE",
"687 353 CURVE SMOOTH",
"687 173 OFFCURVE",
"569 49 OFFCURVE",
"368 49 CURVE SMOOTH",
"295 49 OFFCURVE",
"221 49 OFFCURVE",
"150 50 CURVE"
);
}
);
width = 814;
},
{
anchors = (
{
name = bottom;
position = "{386, 0}";
},
{
name = center;
position = "{386, 357}";
},
{
name = top;
position = "{386, 712}";
}
);
background = {
anchors = (
{
name = bottom;
position = "{386, 0}";
},
{
name = center;
position = "{386, 357}";
},
{
name = top;
position = "{386, 712}";
}
);
paths = (
{
closed = 1;
nodes = (
"172 0 OFFCURVE",
"276 0 OFFCURVE",
"380 0 CURVE SMOOTH",
"622 0 OFFCURVE",
"776 145 OFFCURVE",
"776 356 CURVE SMOOTH",
"776 567 OFFCURVE",
"622 712 OFFCURVE",
"380 712 CURVE SMOOTH",
"276 712 OFFCURVE",
"172 712 OFFCURVE",
"68 713 CURVE",
"69 594 OFFCURVE",
"70 475 OFFCURVE",
"70 356 CURVE SMOOTH",
"70 237 OFFCURVE",
"69 118 OFFCURVE",
"68 -1 CURVE"
);
},
{
closed = 1;
nodes = (
"237 213 OFFCURVE",
"237 285 OFFCURVE",
"237 357 CURVE SMOOTH",
"237 429 OFFCURVE",
"237 502 OFFCURVE",
"238 573 CURVE",
"289 574 OFFCURVE",
"339 574 OFFCURVE",
"390 574 CURVE SMOOTH",
"521 574 OFFCURVE",
"611 492 OFFCURVE",
"611 356 CURVE SMOOTH",
"611 222 OFFCURVE",
"527 140 OFFCURVE",
"390 140 CURVE SMOOTH",
"339 140 OFFCURVE",
"289 140 OFFCURVE",
"238 141 CURVE"
);
}
);
};
layerId = "E1B555A7-F4E1-459C-9C1A-AE952106EEF9";
paths = (
{
closed = 1;
nodes = (
"172 0 OFFCURVE",
"276 0 OFFCURVE",
"380 0 CURVE SMOOTH",
"622 0 OFFCURVE",
"776 145 OFFCURVE",
"776 356 CURVE SMOOTH",
"776 567 OFFCURVE",
"622 712 OFFCURVE",
"380 712 CURVE SMOOTH",
"276 712 OFFCURVE",
"172 712 OFFCURVE",
"66 715 CURVE",
"69 594 OFFCURVE",
"70 475 OFFCURVE",
"70 356 CURVE SMOOTH",
"70 237 OFFCURVE",
"69 118 OFFCURVE",
"66 -3 CURVE"
);
},
{
closed = 1;
nodes = (
"237 213 OFFCURVE",
"237 285 OFFCURVE",
"237 357 CURVE SMOOTH",
"237 429 OFFCURVE",
"237 502 OFFCURVE",
"240 573 CURVE",
"289 574 OFFCURVE",
"339 574 OFFCURVE",
"390 574 CURVE SMOOTH",
"521 574 OFFCURVE",
"611 492 OFFCURVE",
"611 356 CURVE SMOOTH",
"611 222 OFFCURVE",
"527 140 OFFCURVE",
"390 140 CURVE SMOOTH",
"339 140 OFFCURVE",
"289 140 OFFCURVE",
"240 141 CURVE"
);
}
);
width = 825;
}
);
leftKerningGroup = H;
rightKerningGroup = O;
unicode = 0044;
userData = {
anchors = (
);
b = {
};
com.typemytype.robofont.layerData = {
b = {
anchors = (
);
components = (
);
contours = (
{
points = (
{
segmentType = curve;
smooth = 1;
x = 266;
y = 0;
},
{
segmentType = line;
smooth = 1;
x = 1035;
y = 0;
},
{
smooth = 0;
x = 1084;
y = 0;
},
{
smooth = 0;
x = 1108;
y = 34;
},
{
segmentType = curve;
smooth = 1;
x = 1108;
y = 71;
},
{
smooth = 0;
x = 1108;
y = 107;
},
{
smooth = 0;
x = 1084;
y = 141;
},
{
segmentType = curve;
smooth = 1;
x = 1035;
y = 141;
},
{
segmentType = line;
smooth = 0;
x = 356;
y = 141;
},
{
segmentType = line;
smooth = 0;
x = 356;
y = 665;
},
{
segmentType = line;
smooth = 1;
x = 975;
y = 665;
},
{
smooth = 0;
x = 1024;
y = 665;
},
{
smooth = 0;
x = 1049;
y = 698;
},
{
segmentType = curve;
smooth = 1;
x = 1049;
y = 734;
},
{
smooth = 0;
x = 1049;
y = 770;
},
{
smooth = 0;
x = 1026;
y = 803;
},
{
segmentType = curve;
smooth = 1;
x = 975;
y = 803;
},
{
segmentType = line;
smooth = 0;
x = 356;
y = 803;
},
{
segmentType = line;
smooth = 0;
x = 356;
y = 1285;
},
{
segmentType = line;
smooth = 1;
x = 1007;
y = 1285;
},
{
smooth = 0;
x = 1056;
y = 1285;
},
{
smooth = 0;
x = 1080;
y = 1319;
},
{
segmentType = curve;
smooth = 1;
x = 1080;
y = 1356;
},
{
smooth = 0;
x = 1080;
y = 1392;
},
{
smooth = 0;
x = 1056;
y = 1426;
},
{
segmentType = curve;
smooth = 1;
x = 1007;
y = 1426;
},
{
segmentType = line;
smooth = 1;
x = 261;
y = 1426;
},
{
smooth = 0;
x = 213;
y = 1426;
},
{
smooth = 0;
x = 178;
y = 1383;
},
{
segmentType = curve;
smooth = 1;
x = 178;
y = 1340;
},
{
segmentType = line;
smooth = 1;
x = 178;
y = 86;
},
{
smooth = 0;
x = 178;
y = 41;
},
{
smooth = 0;
x = 222;
y = 0;
}
);
}
);
lib = {
};
name = D;
unicodes = (
);
width = 1499;
};
};
components = (
);
contours = (
);
lib = {
};
name = D;
unicodes = (
);
width = 1535;
};
},
{
glyphname = Eth;
lastChange = "2019-01-29 12:30:49 +0000";
layers = (
{
background = {
paths = (
{
closed = 1;
nodes = (
"350 338 LINE",
"350 385 LINE",
"3 385 LINE",
"3 338 LINE"
);
},
{
closed = 1;
nodes = (
"324 0 LINE SMOOTH",
"548 0 OFFCURVE",
"676 128 OFFCURVE",
"676 357 CURVE SMOOTH",
"676 585 OFFCURVE",
"549 712 OFFCURVE",
"324 712 CURVE SMOOTH",
"99 712 LINE",
"99 0 LINE"
);
},
{
closed = 1;
nodes = (
"154 664 LINE",
"322 664 LINE SMOOTH",
"519 664 OFFCURVE",
"618 561 OFFCURVE",
"618 357 CURVE SMOOTH",
"618 153 OFFCURVE",
"518 48 OFFCURVE",
"322 48 CURVE SMOOTH",
"154 48 LINE"
);
}
);
};
layerId = "9E718F8A-2CEA-4931-B05D-987794BD97DA";
paths = (
{
closed = 1;
nodes = (
"350 338 LINE",
"350 385 LINE",
"3 385 LINE",
"3 338 LINE"
);
},
{
closed = 1;
nodes = (
"324 0 LINE SMOOTH",
"548 0 OFFCURVE",
"676 128 OFFCURVE",
"676 357 CURVE SMOOTH",
"676 585 OFFCURVE",
"549 712 OFFCURVE",
"324 712 CURVE SMOOTH",
"99 712 LINE",
"99 0 LINE"
);
},
{
closed = 1;
nodes = (
"154 664 LINE",
"322 664 LINE SMOOTH",
"519 664 OFFCURVE",
"618 561 OFFCURVE",
"618 357 CURVE SMOOTH",
"618 153 OFFCURVE",
"518 48 OFFCURVE",
"322 48 CURVE SMOOTH",
"154 48 LINE"
);
}
);
width = 744;
},
{
background = {
paths = (
{
closed = 1;
nodes = (
"448 298 LINE",
"448 421 LINE",
"13 421 LINE",
"13 298 LINE"
);
},
{
closed = 1;
nodes = (
"378 0 LINE SMOOTH",
"614 0 OFFCURVE",
"752 132 OFFCURVE",
"752 357 CURVE SMOOTH",
"752 580 OFFCURVE",
"613 712 OFFCURVE",
"378 712 CURVE SMOOTH",
"99 712 LINE",
"99 0 LINE"
);
},
{
closed = 1;
nodes = (
"262 581 LINE",
"367 581 LINE SMOOTH",
"516 581 OFFCURVE",
"590 507 OFFCURVE",
"590 357 CURVE SMOOTH",
"590 206 OFFCURVE",
"516 131 OFFCURVE",
"367 131 CURVE SMOOTH",
"262 131 LINE"
);
}
);
};
layerId = "E1B555A7-F4E1-459C-9C1A-AE952106EEF9";
paths = (
{
closed = 1;
nodes = (
"448 298 LINE",
"448 421 LINE",
"13 421 LINE",
"13 298 LINE"
);
},
{
closed = 1;
nodes = (
"378 0 LINE SMOOTH",
"614 0 OFFCURVE",
"752 132 OFFCURVE",
"752 357 CURVE SMOOTH",
"752 580 OFFCURVE",
"613 712 OFFCURVE",
"378 712 CURVE SMOOTH",
"99 712 LINE",
"99 0 LINE"
);
},
{
closed = 1;
nodes = (
"262 581 LINE",
"367 581 LINE SMOOTH",
"516 581 OFFCURVE",
"590 507 OFFCURVE",
"590 357 CURVE SMOOTH",
"590 206 OFFCURVE",
"516 131 OFFCURVE",
"367 131 CURVE SMOOTH",
"262 131 LINE"
);
}
);
width = 804;
}
);
leftKerningGroup = H;
rightKerningGroup = O;
unicode = 00D0;
},
{
glyphname = E;
lastChange = "2019-01-29 12:30:49 +0000";
layers = (
{
anchors = (
{
name = bottom;
position = "{322, 0}";
},
{
name = ogonek;
position = "{508, 10}";
},
{
name = top;
position = "{322, 712}";
},
{
name = topleft;
position = "{24, 712}";
}
);
background = {
anchors = (
{
name = bottom;
position = "{322, 0}";
},
{
name = ogonek;
position = "{508, 10}";
},
{
name = top;
position = "{322, 712}";
},
{
name = topleft;
position = "{24, 712}";
}
);
paths = (
{
closed = 1;
nodes = (
"527 0 LINE",
"527 48 LINE",
"146 48 LINE",
"146 337 LINE",
"507 337 LINE",
"507 386 LINE",
"146 386 LINE",
"146 664 LINE",
"527 664 LINE",
"527 712 LINE",
"92 712 LINE",
"92 0 LINE"
);
}
);
};
guideLines = (
{
angle = 90;
position = "{226, 249}";
}
);
layerId = "9E718F8A-2CEA-4931-B05D-987794BD97DA";
paths = (
{
closed = 1;
nodes = (
"527 0 LINE",
"527 48 LINE",
"146 48 LINE",
"146 337 LINE",
"507 337 LINE",
"507 386 LINE",
"146 386 LINE",
"146 664 LINE",
"527 664 LINE",
"527 712 LINE",
"92 712 LINE",
"92 0 LINE"
);
}
);
width = 584;
},
{
anchors = (
{
name = bottom;
position = "{332, 0}";
},
{
name = ogonek;
position = "{539, 10}";
},
{
name = top;
position = "{332, 712}";
},
{
name = topleft;
position = "{19, 712}";
}
);
background = {
anchors = (
{
name = bottom;
position = "{332, 0}";
},
{
name = ogonek;
position = "{539, 10}";
},
{
name = top;
position = "{332, 712}";
},
{
name = topleft;
position = "{19, 712}";
}
);
paths = (
{
closed = 1;
nodes = (
"562 0 LINE",
"562 126 LINE",
"226 126 LINE",
"226 299 LINE",
"541 299 LINE",
"541 425 LINE",
"226 425 LINE",
"226 586 LINE",
"562 586 LINE",
"562 712 LINE",
"68 712 LINE",
"68 0 LINE"
);
}
);
};
guideLines = (
{
angle = 90;
position = "{575, 249}";
}
);
layerId = "E1B555A7-F4E1-459C-9C1A-AE952106EEF9";
paths = (
{
closed = 1;
nodes = (
"562 0 LINE",
"562 126 LINE",
"226 126 LINE",
"226 299 LINE",
"541 299 LINE",
"541 425 LINE",
"226 425 LINE",
"226 586 LINE",
"562 586 LINE",
"562 712 LINE",
"68 712 LINE",
"68 0 LINE"
);
}
);
width = 600;
}
);
leftKerningGroup = H;
rightKerningGroup = E;
unicode = 0045;
userData = {
anchors = (
);
b = {
};
com.typemytype.robofont.layerData = {
b = {
anchors = (
);
components = (
);
contours = (
);
lib = {
};
name = E;
unicodes = (
);
width = 1234;
};
};
components = (
);
contours = (
);
lib = {
};
name = E;
unicodes = (
);
width = 1258;
};
},
{
glyphname = Eogonek;
lastChange = "2019-01-29 12:30:49 +0000";
layers = (
{
anchors = (
{
name = top;
position = "{322, 712}";
}
);
background = {
anchors = (
{
name = top;
position = "{322, 712}";
}
);
paths = (
{
closed = 1;
nodes = (
"522 -143 OFFCURVE",
"500 -149 OFFCURVE",
"484 -149 CURVE SMOOTH",
"443 -149 OFFCURVE",
"415 -126 OFFCURVE",
"415 -83 CURVE SMOOTH",
"415 -36 OFFCURVE",
"447 0 OFFCURVE",
"514 0 CURVE SMOOTH",
"527 0 LINE",
"527 48 LINE",
"146 48 LINE",
"146 337 LINE",
"507 337 LINE",
"507 386 LINE",
"146 386 LINE",
"146 664 LINE",
"527 664 LINE",
"527 712 LINE",
"92 712 LINE",
"92 0 LINE",
"450 0 LINE",
"434 19 LINE",
"389 -5 OFFCURVE",
"365 -42 OFFCURVE",
"365 -89 CURVE SMOOTH",
"365 -149 OFFCURVE",
"410 -193 OFFCURVE",
"479 -193 CURVE SMOOTH",
"512 -193 OFFCURVE",
"540 -183 OFFCURVE",
"560 -170 CURVE",
"543 -131 LINE"
);
}
);
};
layerId = "9E718F8A-2CEA-4931-B05D-987794BD97DA";
paths = (
{
closed = 1;
nodes = (
"522 -143 OFFCURVE",
"500 -149 OFFCURVE",
"484 -149 CURVE SMOOTH",
"443 -149 OFFCURVE",
"415 -126 OFFCURVE",
"415 -83 CURVE SMOOTH",
"415 -36 OFFCURVE",
"447 0 OFFCURVE",
"514 0 CURVE SMOOTH",
"527 0 LINE",
"527 48 LINE",
"146 48 LINE",
"146 337 LINE",
"507 337 LINE",
"507 386 LINE",
"146 386 LINE",
"146 664 LINE",
"527 664 LINE",
"527 712 LINE",
"92 712 LINE",
"92 0 LINE",
"450 0 LINE",
"434 19 LINE",
"389 -5 OFFCURVE",
"365 -42 OFFCURVE",
"365 -89 CURVE SMOOTH",
"365 -149 OFFCURVE",
"410 -193 OFFCURVE",
"479 -193 CURVE SMOOTH",
"512 -193 OFFCURVE",
"540 -183 OFFCURVE",
"560 -170 CURVE",
"543 -131 LINE"
);
}
);
width = 584;
},
{
anchors = (
{
name = top;
position = "{332, 712}";
}
);
background = {
anchors = (
{
name = top;
position = "{332, 712}";
}
);
paths = (
{
closed = 1;
nodes = (
"565 -114 OFFCURVE",
"546 -118 OFFCURVE",
"529 -118 CURVE SMOOTH",
"491 -118 OFFCURVE",
"470 -100 OFFCURVE",
"470 -65 CURVE SMOOTH",
"470 -25 OFFCURVE",
"497 0 OFFCURVE",
"539 0 CURVE SMOOTH",
"562 0 LINE",
"562 126 LINE",
"226 126 LINE",
"226 299 LINE",
"541 299 LINE",
"541 425 LINE",
"226 425 LINE",
"226 586 LINE",
"562 586 LINE",
"562 712 LINE",
"68 712 LINE",
"68 0 LINE",
"455 0 LINE",
"436 20 LINE",
"392 -5 OFFCURVE",
"370 -42 OFFCURVE",
"370 -88 CURVE SMOOTH",
"370 -153 OFFCURVE",
"423 -199 OFFCURVE",
"499 -199 CURVE SMOOTH",
"535 -199 OFFCURVE",
"571 -192 OFFCURVE",
"601 -179 CURVE",
"584 -106 LINE"
);
}
);
};
layerId = "E1B555A7-F4E1-459C-9C1A-AE952106EEF9";
paths = (
{
closed = 1;
nodes = (
"565 -114 OFFCURVE",
"546 -118 OFFCURVE",
"529 -118 CURVE SMOOTH",
"491 -118 OFFCURVE",
"470 -100 OFFCURVE",
"470 -65 CURVE SMOOTH",
"470 -25 OFFCURVE",
"497 0 OFFCURVE",
"539 0 CURVE SMOOTH",
"562 0 LINE",
"562 126 LINE",
"226 126 LINE",
"226 299 LINE",
"541 299 LINE",
"541 425 LINE",
"226 425 LINE",
"226 586 LINE",
"562 586 LINE",
"562 712 LINE",
"68 712 LINE",
"68 0 LINE",
"455 0 LINE",
"436 20 LINE",
"392 -5 OFFCURVE",
"370 -42 OFFCURVE",
"370 -88 CURVE SMOOTH",
"370 -153 OFFCURVE",
"423 -199 OFFCURVE",
"499 -199 CURVE SMOOTH",
"535 -199 OFFCURVE",
"571 -192 OFFCURVE",
"601 -179 CURVE",
"584 -106 LINE"
);
}
);
width = 600;
}
);
leftKerningGroup = H;
rightKerningGroup = E;
unicode = 0118;
userData = {
com.typemytype.robofont.layerData = {
b = {
anchors = (
);
components = (
);
contours = (
);
lib = {
};
name = Eogonek;
unicodes = (
);
width = 1234;
};
};
};
},
{
glyphname = F;
lastChange = "2019-01-29 12:30:49 +0000";
layers = (
{
anchors = (
{
name = bottom;
position = "{307, 0}";
},
{
name = top;
position = "{286, 712}";
}
);
background = {
anchors = (
{
name = bottom;
position = "{307, 0}";
},
{
name = top;
position = "{286, 712}";
}
);
paths = (
{
closed = 1;
nodes = (
"146 0 LINE",
"146 337 LINE",
"497 337 LINE",
"497 386 LINE",
"146 386 LINE",
"146 664 LINE",
"517 664 LINE",
"517 712 LINE",
"92 712 LINE",
"92 0 LINE"
);
}
);
};
layerId = "9E718F8A-2CEA-4931-B05D-987794BD97DA";
paths = (
{
closed = 1;
nodes = (
"146 0 LINE",
"146 337 LINE",
"497 337 LINE",
"497 386 LINE",
"146 386 LINE",
"146 664 LINE",
"517 664 LINE",
"517 712 LINE",
"92 712 LINE",
"92 0 LINE"
);
}
);
width = 557;
},
{
anchors = (
{
name = bottom;
position = "{317, 0}";
},
{
name = top;
position = "{289, 712}";
}
);
background = {
anchors = (
{
name = bottom;
position = "{317, 0}";
},
{
name = top;
position = "{289, 712}";
}
);
paths = (
{
closed = 1;
nodes = (
"228 0 LINE",
"228 298 LINE",
"531 298 LINE",
"531 426 LINE",
"228 426 LINE",
"228 584 LINE",
"551 584 LINE",
"551 712 LINE",
"68 712 LINE",
"68 0 LINE"
);
}
);
};
layerId = "E1B555A7-F4E1-459C-9C1A-AE952106EEF9";
paths = (
{
closed = 1;
nodes = (
"228 0 LINE",
"228 298 LINE",
"531 298 LINE",
"531 426 LINE",
"228 426 LINE",
"228 584 LINE",
"551 584 LINE",
"551 712 LINE",
"68 712 LINE",
"68 0 LINE"
);
}
);
width = 579;
}
);
leftKerningGroup = H;
rightKerningGroup = F;
unicode = 0046;
userData = {
anchors = (
);
b = {
};
com.typemytype.robofont.layerData = {
b = {
anchors = (
);
components = (
);
contours = (
{
points = (
{
segmentType = curve;
smooth = 1;
x = 266;
y = 0;
},
{
segmentType = line;
smooth = 1;
x = 1035;
y = 0;
},
{
smooth = 0;
x = 1084;
y = 0;
},
{
smooth = 0;
x = 1108;
y = 34;
},
{
segmentType = curve;
smooth = 1;
x = 1108;
y = 71;
},
{
smooth = 0;
x = 1108;
y = 107;
},
{
smooth = 0;
x = 1084;
y = 141;
},
{
segmentType = curve;
smooth = 1;
x = 1035;
y = 141;
},
{
segmentType = line;
smooth = 0;
x = 353;
y = 141;
},
{
segmentType = line;
smooth = 0;
x = 353;
y = 665;
},
{
segmentType = line;
smooth = 1;
x = 975;
y = 665;
},
{
smooth = 0;
x = 1024;
y = 665;
},
{
smooth = 0;
x = 1049;
y = 698;
},
{
segmentType = curve;
smooth = 1;
x = 1049;
y = 734;
},
{
smooth = 0;
x = 1049;
y = 770;
},
{
smooth = 0;
x = 1026;
y = 803;
},
{
segmentType = curve;
smooth = 1;
x = 975;
y = 803;
},
{
segmentType = line;
smooth = 0;
x = 353;
y = 803;
},
{
segmentType = line;
smooth = 0;
x = 353;
y = 1285;
},
{
segmentType = line;
smooth = 1;
x = 1007;
y = 1285;
},
{
smooth = 0;
x = 1056;
y = 1285;
},
{
smooth = 0;
x = 1080;
y = 1319;
},
{
segmentType = curve;
smooth = 1;
x = 1080;
y = 1356;
},
{
smooth = 0;
x = 1080;
y = 1392;
},
{
smooth = 0;
x = 1056;
y = 1426;
},
{
segmentType = curve;
smooth = 1;
x = 1007;
y = 1426;
},
{
segmentType = line;
smooth = 1;
x = 261;
y = 1426;
},
{
smooth = 0;
x = 213;
y = 1426;
},
{
smooth = 0;
x = 178;
y = 1383;
},
{
segmentType = curve;
smooth = 1;
x = 178;
y = 1340;
},
{
segmentType = line;
smooth = 1;
x = 178;
y = 86;
},
{
smooth = 0;
x = 178;
y = 41;
},
{
smooth = 0;
x = 222;
y = 0;
}
);
}
);
lib = {
};
name = F;
unicodes = (
);
width = 1142;
};
};
components = (
);
contours = (
);
lib = {
};
name = F;
unicodes = (
);
width = 1175;
};
},
{
glyphname = G;
lastChange = "2019-01-29 12:30:49 +0000";
layers = (
{
anchors = (
{
name = bottom;
position = "{395, 0}";
},
{
name = top;
position = "{388, 712}";
}
);
background = {
anchors = (
{
name = bottom;
position = "{395, 0}";
},
{
name = top;
position = "{388, 712}";
}
);
paths = (
{
closed = 1;
nodes = (
"487 -8 OFFCURVE",
"586 12 OFFCURVE",
"637 40 CURVE",
"637 363 LINE",
"396 363 LINE",
"396 314 LINE",
"587 314 LINE",
"587 41 LINE",
"601 81 LINE",
"547 57 OFFCURVE",
"472 41 OFFCURVE",
"395 41 CURVE SMOOTH",
"218 41 OFFCURVE",
"121 153 OFFCURVE",
"121 357 CURVE SMOOTH",
"121 557 OFFCURVE",
"218 670 OFFCURVE",
"388 670 CURVE SMOOTH",
"473 670 OFFCURVE",
"537 645 OFFCURVE",
"607 582 CURVE",
"631 626 LINE",
"570 689 OFFCURVE",
"487 720 OFFCURVE",
"390 720 CURVE SMOOTH",
"188 720 OFFCURVE",
"64 586 OFFCURVE",
"64 357 CURVE SMOOTH",
"64 127 OFFCURVE",
"187 -8 OFFCURVE",
"395 -8 CURVE SMOOTH"
);
}
);
};
layerId = "9E718F8A-2CEA-4931-B05D-987794BD97DA";
paths = (
{
closed = 1;
nodes = (
"487 -8 OFFCURVE",
"586 12 OFFCURVE",
"637 40 CURVE",
"637 363 LINE",
"396 363 LINE",
"396 314 LINE",
"587 314 LINE",
"587 41 LINE",
"601 81 LINE",
"547 57 OFFCURVE",
"472 41 OFFCURVE",
"395 41 CURVE SMOOTH",
"218 41 OFFCURVE",
"121 153 OFFCURVE",
"121 357 CURVE SMOOTH",
"121 557 OFFCURVE",
"218 670 OFFCURVE",
"388 670 CURVE SMOOTH",
"473 670 OFFCURVE",
"537 645 OFFCURVE",
"607 582 CURVE",
"631 626 LINE",
"570 689 OFFCURVE",
"487 720 OFFCURVE",
"390 720 CURVE SMOOTH",
"188 720 OFFCURVE",
"64 586 OFFCURVE",
"64 357 CURVE SMOOTH",
"64 127 OFFCURVE",
"187 -8 OFFCURVE",
"395 -8 CURVE SMOOTH"
);
}
);
width = 725;
},
{
anchors = (
{
name = bottom;
position = "{417, 0}";
},
{
name = top;
position = "{410, 712}";
}
);
background = {
anchors = (
{
name = bottom;
position = "{417, 0}";
},
{
name = top;
position = "{410, 712}";
}
);
paths = (
{
closed = 1;
nodes = (
"514 -9 OFFCURVE",
"612 10 OFFCURVE",
"683 44 CURVE",
"683 395 LINE",
"400 395 LINE",
"400 282 LINE",
"537 282 LINE",
"537 89 LINE",
"573 140 LINE",
"524 124 OFFCURVE",
"473 116 OFFCURVE",
"424 116 CURVE SMOOTH",
"282 116 OFFCURVE",
"212 195 OFFCURVE",
"212 357 CURVE SMOOTH",
"212 514 OFFCURVE",
"280 592 OFFCURVE",
"415 592 CURVE SMOOTH",
"487 592 OFFCURVE",
"545 573 OFFCURVE",
"612 526 CURVE",
"664 642 LINE",
"606 692 OFFCURVE",
"512 721 OFFCURVE",
"410 721 CURVE SMOOTH",
"189 721 OFFCURVE",
"47 581 OFFCURVE",
"47 357 CURVE SMOOTH",
"47 128 OFFCURVE",
"188 -9 OFFCURVE",
"417 -9 CURVE SMOOTH"
);
}
);
};
layerId = "E1B555A7-F4E1-459C-9C1A-AE952106EEF9";
paths = (
{
closed = 1;
nodes = (
"514 -9 OFFCURVE",
"612 10 OFFCURVE",
"683 44 CURVE",
"683 395 LINE",
"400 395 LINE",
"400 282 LINE",
"537 282 LINE",
"537 89 LINE",
"573 140 LINE",
"524 124 OFFCURVE",
"473 116 OFFCURVE",
"424 116 CURVE SMOOTH",
"282 116 OFFCURVE",
"212 195 OFFCURVE",
"212 357 CURVE SMOOTH",
"212 514 OFFCURVE",
"280 592 OFFCURVE",
"415 592 CURVE SMOOTH",
"487 592 OFFCURVE",
"545 573 OFFCURVE",
"612 526 CURVE",
"664 642 LINE",
"606 692 OFFCURVE",
"512 721 OFFCURVE",
"410 721 CURVE SMOOTH",
"189 721 OFFCURVE",
"47 581 OFFCURVE",
"47 357 CURVE SMOOTH",
"47 128 OFFCURVE",
"188 -9 OFFCURVE",
"417 -9 CURVE SMOOTH"
);
}
);
width = 746;
}
);
leftKerningGroup = O;
rightKerningGroup = G;
unicode = 0047;
userData = {
anchors = (
);
b = {
};
com.typemytype.robofont.layerData = {
b = {
anchors = (
);
components = (
);
contours = (
{
points = (
{
segmentType = curve;
smooth = 1;
x = 783;
y = "-22";
},
{
smooth = 0;
x = 965;
y = "-22";
},
{
smooth = 0;
x = 1086;
y = 34;
},
{
segmentType = curve;
smooth = 1;
x = 1166;
y = 86;
},
{
smooth = 0;
x = 1270;
y = 154;
},
{
smooth = 0;
x = 1186;
y = 258;
},
{
segmentType = curve;
smooth = 1;
x = 1112;
y = 214;
},
{
smooth = 0;
x = 1024;
y = 162;
},
{
smooth = 0;
x = 939;
y = 120;
},
{
segmentType = curve;
smooth = 1;
x = 806;
y = 120;
},
{
smooth = 0;
x = 446;
y = 120;
},
{
smooth = 0;
x = 316;
y = 406;
},
{
segmentType = curve;
smooth = 1;
x = 316;
y = 706;
},
{
smooth = 0;
x = 316;
y = 1005;
},
{
smooth = 0;
x = 450;
y = 1296;
},
{
segmentType = curve;
smooth = 1;
x = 801;
y = 1296;
},
{
smooth = 0;
x = 980;
y = 1296;
},
{
smooth = 0;
x = 1053;
y = 1246;
},
{
segmentType = curve;
smooth = 1;
x = 1094;
y = 1225;
},
{
smooth = 0;
x = 1174;
y = 1184;
},
{
smooth = 0;
x = 1231;
y = 1300;
},
{
segmentType = curve;
smooth = 1;
x = 1156;
y = 1343;
},
{
smooth = 0;
x = 1106;
y = 1372;
},
{
smooth = 0;
x = 995;
y = 1438;
},
{
segmentType = curve;
smooth = 1;
x = 797;
y = 1438;
},
{
smooth = 0;
x = 359;
y = 1438;
},
{
smooth = 0;
x = 128;
y = 1093;
},
{
segmentType = curve;
smooth = 1;
x = 128;
y = 704;
},
{
smooth = 0;
x = 128;
y = 307;
},
{
smooth = 0;
x = 350;
y = "-22";
}
);
}
);
lib = {
};
name = G;
unicodes = (
);
width = 1448;
};
};
components = (
);
contours = (
);
lib = {
};
name = G;
unicodes = (
);
width = 1538;
};
},
{
color = 3;
glyphname = H;
lastChange = "2019-01-29 12:31:36 +0000";
layers = (
{
anchors = (
{
name = bottom;
position = "{381, 0}";
},
{
name = center;
position = "{381, 362}";
},
{
name = top;
position = "{380, 712}";
},
{
name = topleft;
position = "{26, 712}";
}
);
background = {
anchors = (
{
name = bottom;
position = "{381, 0}";
},
{
name = center;
position = "{381, 362}";
},
{
name = top;
position = "{380, 712}";
},
{
name = topleft;
position = "{26, 712}";
}
);
paths = (
{
closed = 1;
nodes = (
"630 1 OFFCURVE",
"649 1 OFFCURVE",
"669 0 CURVE",
"668 119 OFFCURVE",
"667 237 OFFCURVE",
"667 356 CURVE SMOOTH",
"667 475 OFFCURVE",
"668 594 OFFCURVE",
"669 712 CURVE",
"649 711 OFFCURVE",
"630 711 OFFCURVE",
"610 712 CURVE",
"611 594 OFFCURVE",
"612 475 OFFCURVE",
"612 356 CURVE SMOOTH",
"612 237 OFFCURVE",
"611 119 OFFCURVE",
"610 0 CURVE"
);
},
{
closed = 1;
nodes = (
"112 1 OFFCURVE",
"131 1 OFFCURVE",
"150 0 CURVE",
"149 119 OFFCURVE",
"148 239 OFFCURVE",
"148 359 CURVE SMOOTH",
"148 477 OFFCURVE",
"149 594 OFFCURVE",
"150 712 CURVE",
"131 711 OFFCURVE",
"112 711 OFFCURVE",
"92 712 CURVE",
"93 594 OFFCURVE",
"94 475 OFFCURVE",
"94 356 CURVE SMOOTH",
"94 237 OFFCURVE",
"93 119 OFFCURVE",
"92 0 CURVE"
);
},
{
closed = 1;
nodes = (
"299 338 OFFCURVE",
"470 338 OFFCURVE",
"641 337 CURVE",
"641 386 LINE",
"470 385 OFFCURVE",
"299 385 OFFCURVE",
"128 386 CURVE",
"128 337 LINE"
);
}
);
};
layerId = "9E718F8A-2CEA-4931-B05D-987794BD97DA";
paths = (
{
closed = 1;
nodes = (
"630 1 OFFCURVE",
"649 1 OFFCURVE",
"669 0 CURVE",
"668 119 OFFCURVE",
"667 237 OFFCURVE",
"667 356 CURVE SMOOTH",
"667 475 OFFCURVE",
"668 594 OFFCURVE",
"669 712 CURVE",
"649 711 OFFCURVE",
"630 711 OFFCURVE",
"610 712 CURVE",
"611 594 OFFCURVE",
"612 475 OFFCURVE",
"612 356 CURVE SMOOTH",
"612 237 OFFCURVE",
"611 119 OFFCURVE",
"610 0 CURVE"
);
},
{
closed = 1;
nodes = (
"112 1 OFFCURVE",
"131 1 OFFCURVE",
"150 0 CURVE",
"149 119 OFFCURVE",
"148 239 OFFCURVE",
"148 359 CURVE SMOOTH",
"148 477 OFFCURVE",
"149 594 OFFCURVE",
"150 712 CURVE",
"131 711 OFFCURVE",
"112 711 OFFCURVE",
"92 712 CURVE",
"93 594 OFFCURVE",
"94 475 OFFCURVE",
"94 356 CURVE SMOOTH",
"94 237 OFFCURVE",
"93 119 OFFCURVE",
"92 0 CURVE"
);
},
{
closed = 1;
nodes = (
"299 338 OFFCURVE",
"470 338 OFFCURVE",
"641 337 CURVE",
"641 386 LINE",
"470 385 OFFCURVE",
"299 385 OFFCURVE",
"128 386 CURVE",
"128 337 LINE"
);
}
);
width = 761;
},
{
anchors = (
{
name = bottom;
position = "{390, 0}";
},
{
name = center;
position = "{390, 362}";
},
{
name = top;
position = "{390, 712}";
},
{
name = topleft;
position = "{21, 712}";
}
);
background = {
anchors = (
{
name = bottom;
position = "{390, 0}";
},
{
name = center;
position = "{390, 362}";
},
{
name = top;
position = "{390, 712}";
},
{
name = topleft;
position = "{21, 712}";
}
);
paths = (
{
closed = 1;
nodes = (
"603 1 OFFCURVE",
"657 1 OFFCURVE",
"712 0 CURVE",
"711 119 OFFCURVE",
"710 237 OFFCURVE",
"710 356 CURVE SMOOTH",
"710 475 OFFCURVE",
"711 594 OFFCURVE",
"712 712 CURVE",
"657 711 OFFCURVE",
"603 711 OFFCURVE",
"548 712 CURVE",
"549 594 OFFCURVE",
"550 475 OFFCURVE",
"550 356 CURVE SMOOTH",
"550 237 OFFCURVE",
"549 119 OFFCURVE",
"548 0 CURVE"
);
},
{
closed = 1;
nodes = (
"123 1 OFFCURVE",
"176 1 OFFCURVE",
"231 0 CURVE",
"230 119 OFFCURVE",
"229 237 OFFCURVE",
"229 356 CURVE SMOOTH",
"229 475 OFFCURVE",
"230 594 OFFCURVE",
"231 712 CURVE",
"176 711 OFFCURVE",
"123 711 OFFCURVE",
"68 712 CURVE",
"69 594 OFFCURVE",
"70 475 OFFCURVE",
"70 356 CURVE SMOOTH",
"70 237 OFFCURVE",
"69 119 OFFCURVE",
"68 0 CURVE"
);
},
{
closed = 1;
nodes = (
"296 298 OFFCURVE",
"471 298 OFFCURVE",
"646 297 CURVE",
"646 426 LINE",
"471 425 OFFCURVE",
"296 425 OFFCURVE",
"121 426 CURVE",
"121 297 LINE"
);
}
);
};
layerId = "E1B555A7-F4E1-459C-9C1A-AE952106EEF9";
paths = (
{
closed = 1;
nodes = (
"603 1 OFFCURVE",
"657 1 OFFCURVE",
"714 0 CURVE",
"711 119 OFFCURVE",
"710 237 OFFCURVE",
"710 356 CURVE SMOOTH",
"710 475 OFFCURVE",
"711 594 OFFCURVE",
"714 712 CURVE",
"657 711 OFFCURVE",
"603 711 OFFCURVE",
"546 712 CURVE",
"549 594 OFFCURVE",
"550 475 OFFCURVE",
"550 356 CURVE SMOOTH",
"550 237 OFFCURVE",
"549 119 OFFCURVE",
"546 0 CURVE"
);
},
{
closed = 1;
nodes = (
"123 1 OFFCURVE",
"176 1 OFFCURVE",
"233 0 CURVE",
"230 119 OFFCURVE",
"229 237 OFFCURVE",
"229 356 CURVE SMOOTH",
"229 475 OFFCURVE",
"230 594 OFFCURVE",
"233 712 CURVE",
"176 711 OFFCURVE",
"123 711 OFFCURVE",
"66 712 CURVE",
"69 594 OFFCURVE",
"70 475 OFFCURVE",
"70 356 CURVE SMOOTH",
"70 237 OFFCURVE",
"69 119 OFFCURVE",
"66 0 CURVE"
);
},
{
closed = 1;
nodes = (
"296 298 OFFCURVE",
"471 298 OFFCURVE",
"646 297 CURVE",
"646 426 LINE",
"471 425 OFFCURVE",
"296 425 OFFCURVE",
"121 426 CURVE",
"121 297 LINE"
);
}
);
width = 780;
}
);
leftKerningGroup = H;
rightKerningGroup = H;
unicode = 0048;
userData = {
anchors = (
);
b = {
};
com.typemytype.robofont.layerData = {
b = {
anchors = (
);
components = (
);
contours = (
);
lib = {
};
name = H;
unicodes = (
);
width = 1464;
};
};
components = (
);
contours = (
);
lib = {
};
name = H;
unicodes = (
);
width = 1524;
};
},
{
glyphname = Hbar;
lastChange = "2019-01-29 12:30:49 +0000";
layers = (
{
background = {
paths = (
{
closed = 1;
nodes = (
"768 530 LINE",
"768 577 LINE",
"3 577 LINE",
"3 530 LINE"
);
},
{
closed = 1;
nodes = (
"672 0 LINE",
"672 712 LINE",
"617 712 LINE",
"617 0 LINE"
);
},
{
closed = 1;
nodes = (
"154 0 LINE",
"154 712 LINE",
"99 712 LINE",
"99 0 LINE"
);
},
{
closed = 1;
nodes = (
"627 337 LINE",
"627 386 LINE",
"134 386 LINE",
"134 337 LINE"
);
}
);
};
layerId = "9E718F8A-2CEA-4931-B05D-987794BD97DA";
paths = (
{
closed = 1;
nodes = (
"768 530 LINE",
"768 577 LINE",
"3 577 LINE",
"3 530 LINE"
);
},
{
closed = 1;
nodes = (
"672 0 LINE",
"672 712 LINE",
"617 712 LINE",
"617 0 LINE"
);
},
{
closed = 1;
nodes = (
"154 0 LINE",
"154 712 LINE",
"99 712 LINE",
"99 0 LINE"
);
},
{
closed = 1;
nodes = (
"627 337 LINE",
"627 386 LINE",
"134 386 LINE",
"134 337 LINE"
);
}
);
width = 775;
},
{
background = {
paths = (
{
closed = 1;
nodes = (
"825 512 LINE",
"825 631 LINE",
"13 631 LINE",
"13 512 LINE"
);
},
{
closed = 1;
nodes = (
"739 0 LINE",
"739 712 LINE",
"580 712 LINE",
"580 0 LINE"
);
},
{
closed = 1;
nodes = (
"259 0 LINE",
"259 712 LINE",
"99 712 LINE",
"99 0 LINE"
);
},
{
closed = 1;
nodes = (
"676 297 LINE",
"676 426 LINE",
"151 426 LINE",
"151 297 LINE"
);
}
);
};
layerId = "E1B555A7-F4E1-459C-9C1A-AE952106EEF9";
paths = (
{
closed = 1;
nodes = (
"825 512 LINE",
"825 631 LINE",
"13 631 LINE",
"13 512 LINE"
);
},
{
closed = 1;
nodes = (
"739 0 LINE",
"739 712 LINE",
"580 712 LINE",
"580 0 LINE"
);
},
{
closed = 1;
nodes = (
"259 0 LINE",
"259 712 LINE",
"99 712 LINE",
"99 0 LINE"
);
},
{
closed = 1;
nodes = (
"676 297 LINE",
"676 426 LINE",
"151 426 LINE",
"151 297 LINE"
);
}
);
width = 842;
}
);
leftKerningGroup = H;
rightKerningGroup = H;
unicode = 0126;
userData = {
com.typemytype.robofont.layerData = {
b = {
anchors = (
);
components = (
);
contours = (
);
lib = {
};
name = Hbar;
unicodes = (
);
width = 1464;
};
};
};
},
{
color = 3;
glyphname = I;
lastChange = "2019-01-29 12:31:48 +0000";
layers = (
{
anchors = (
{
name = bottom;
position = "{119, 0}";
},
{
name = ogonek;
position = "{148, 0}";
},
{
name = top;
position = "{119, 712}";
},
{
name = topleft;
position = "{22, 712}";
}
);
background = {
anchors = (
{
name = bottom;
position = "{119, 0}";
},
{
name = ogonek;
position = "{148, 0}";
},
{
name = top;
position = "{119, 712}";
},
{
name = topleft;
position = "{22, 712}";
}
);
paths = (
{
closed = 1;
nodes = (
"109 1 OFFCURVE",
"129 1 OFFCURVE",
"150 0 CURVE",
"149 119 OFFCURVE",
"148 237 OFFCURVE",
"148 356 CURVE SMOOTH",
"148 475 OFFCURVE",
"149 594 OFFCURVE",
"150 712 CURVE",
"129 711 OFFCURVE",
"109 711 OFFCURVE",
"88 712 CURVE",
"89 594 OFFCURVE",
"90 475 OFFCURVE",
"90 356 CURVE SMOOTH",
"90 237 OFFCURVE",
"89 119 OFFCURVE",
"88 0 CURVE"
);
}
);
};
layerId = "9E718F8A-2CEA-4931-B05D-987794BD97DA";
paths = (
{
closed = 1;
nodes = (
"109 1 OFFCURVE",
"129 1 OFFCURVE",
"150 0 CURVE",
"149 119 OFFCURVE",
"148 237 OFFCURVE",
"148 356 CURVE SMOOTH",
"148 475 OFFCURVE",
"149 594 OFFCURVE",
"150 712 CURVE",
"129 711 OFFCURVE",
"109 711 OFFCURVE",
"88 712 CURVE",
"89 594 OFFCURVE",
"90 475 OFFCURVE",
"90 356 CURVE SMOOTH",
"90 237 OFFCURVE",
"89 119 OFFCURVE",
"88 0 CURVE"
);
}
);
width = 238;
},
{
anchors = (
{
name = bottom;
position = "{152, 0}";
},
{
name = ogonek;
position = "{236, 0}";
},
{
name = top;
position = "{152, 712}";
},
{
name = topleft;
position = "{23, 712}";
}
);
background = {
anchors = (
{
name = bottom;
position = "{152, 0}";
},
{
name = ogonek;
position = "{236, 0}";
},
{
name = top;
position = "{152, 712}";
},
{
name = topleft;
position = "{23, 712}";
}
);
paths = (
{
closed = 1;
nodes = (
"125 1 OFFCURVE",
"181 1 OFFCURVE",
"238 0 CURVE",
"237 119 OFFCURVE",
"236 237 OFFCURVE",
"236 356 CURVE SMOOTH",
"236 475 OFFCURVE",
"237 594 OFFCURVE",
"238 712 CURVE",
"181 711 OFFCURVE",
"125 711 OFFCURVE",
"68 712 CURVE",
"69 594 OFFCURVE",
"70 475 OFFCURVE",
"70 356 CURVE SMOOTH",
"70 237 OFFCURVE",
"69 119 OFFCURVE",
"68 0 CURVE"
);
}
);
};
layerId = "E1B555A7-F4E1-459C-9C1A-AE952106EEF9";
paths = (
{
closed = 1;
nodes = (
"125 1 OFFCURVE",
"181 1 OFFCURVE",
"240 0 CURVE",
"237 119 OFFCURVE",
"236 237 OFFCURVE",
"236 356 CURVE SMOOTH",
"236 475 OFFCURVE",
"237 594 OFFCURVE",
"240 712 CURVE",
"181 711 OFFCURVE",
"125 711 OFFCURVE",
"66 712 CURVE",
"69 594 OFFCURVE",
"70 475 OFFCURVE",
"70 356 CURVE SMOOTH",
"70 237 OFFCURVE",
"69 119 OFFCURVE",
"66 0 CURVE"
);
}
);
width = 306;
}
);
leftKerningGroup = H;
rightKerningGroup = H;
unicode = 0049;
userData = {
anchors = (
);
b = {
};
com.typemytype.robofont.layerData = {
b = {
anchors = (
);
components = (
);
contours = (
);
lib = {
};
name = I;
unicodes = (
);
width = 592;
};
};
components = (
);
contours = (
);
lib = {
};
name = I;
unicodes = (
);
width = 637;
};
},
{
glyphname = Iogonek;
lastChange = "2019-01-29 12:30:49 +0000";
layers = (
{
background = {
paths = (
{
closed = 1;
nodes = (
"146 -193 OFFCURVE",
"175 -183 OFFCURVE",
"194 -170 CURVE",
"178 -131 LINE",
"157 -143 OFFCURVE",
"134 -149 OFFCURVE",
"118 -149 CURVE SMOOTH",
"78 -149 OFFCURVE",
"50 -126 OFFCURVE",
"50 -83 CURVE SMOOTH",
"50 -38 OFFCURVE",
"83 0 OFFCURVE",
"142 0 CURVE SMOOTH",
"146 0 LINE",
"146 712 LINE",
"92 712 LINE",
"92 0 LINE",
"109 0 LINE",
"129 38 LINE",
"44 24 OFFCURVE",
"-1 -27 OFFCURVE",
"-1 -89 CURVE SMOOTH",
"-1 -149 OFFCURVE",
"44 -193 OFFCURVE",
"113 -193 CURVE SMOOTH"
);
}
);
};
layerId = "9E718F8A-2CEA-4931-B05D-987794BD97DA";
paths = (
{
closed = 1;
nodes = (
"146 -193 OFFCURVE",
"175 -183 OFFCURVE",
"194 -170 CURVE",
"178 -131 LINE",
"157 -143 OFFCURVE",
"134 -149 OFFCURVE",
"118 -149 CURVE SMOOTH",
"78 -149 OFFCURVE",
"50 -126 OFFCURVE",
"50 -83 CURVE SMOOTH",
"50 -38 OFFCURVE",
"83 0 OFFCURVE",
"142 0 CURVE SMOOTH",
"146 0 LINE",
"146 712 LINE",
"92 712 LINE",
"92 0 LINE",
"109 0 LINE",
"129 38 LINE",
"44 24 OFFCURVE",
"-1 -27 OFFCURVE",
"-1 -89 CURVE SMOOTH",
"-1 -149 OFFCURVE",
"44 -193 OFFCURVE",
"113 -193 CURVE SMOOTH"
);
}
);
width = 242;
},
{
background = {
paths = (
{
closed = 1;
nodes = (
"197 -199 OFFCURVE",
"232 -192 OFFCURVE",
"263 -179 CURVE",
"245 -106 LINE",
"226 -114 OFFCURVE",
"208 -118 OFFCURVE",
"191 -118 CURVE SMOOTH",
"153 -118 OFFCURVE",
"131 -100 OFFCURVE",
"131 -65 CURVE SMOOTH",
"131 -27 OFFCURVE",
"164 0 OFFCURVE",
"215 0 CURVE SMOOTH",
"230 0 LINE",
"230 712 LINE",
"68 712 LINE",
"68 0 LINE",
"113 0 LINE",
"126 37 LINE",
"62 11 OFFCURVE",
"31 -35 OFFCURVE",
"31 -86 CURVE SMOOTH",
"31 -156 OFFCURVE",
"88 -199 OFFCURVE",
"161 -199 CURVE SMOOTH"
);
}
);
};
layerId = "E1B555A7-F4E1-459C-9C1A-AE952106EEF9";
paths = (
{
closed = 1;
nodes = (
"197 -199 OFFCURVE",
"232 -192 OFFCURVE",
"263 -179 CURVE",
"245 -106 LINE",
"226 -114 OFFCURVE",
"208 -118 OFFCURVE",
"191 -118 CURVE SMOOTH",
"153 -118 OFFCURVE",
"131 -100 OFFCURVE",
"131 -65 CURVE SMOOTH",
"131 -27 OFFCURVE",
"164 0 OFFCURVE",
"215 0 CURVE SMOOTH",
"230 0 LINE",
"230 712 LINE",
"68 712 LINE",
"68 0 LINE",
"113 0 LINE",
"126 37 LINE",
"62 11 OFFCURVE",
"31 -35 OFFCURVE",
"31 -86 CURVE SMOOTH",
"31 -156 OFFCURVE",
"88 -199 OFFCURVE",
"161 -199 CURVE SMOOTH"
);
}
);
width = 302;
}
);
leftKerningGroup = H;
rightKerningGroup = H;
unicode = 012E;
},
{
glyphname = J;
lastChange = "2019-01-29 12:30:49 +0000";
layers = (
{
anchors = (
{
name = bottom;
position = "{186, 0}";
},
{
name = top;
position = "{186, 712}";
}
);
background = {
anchors = (
{
name = bottom;
position = "{186, 0}";
},
{
name = top;
position = "{186, 712}";
}
);
paths = (
{
closed = 1;
nodes = (
"150 -206 OFFCURVE",
"213 -162 OFFCURVE",
"213 -2 CURVE SMOOTH",
"213 712 LINE",
"159 712 LINE",
"159 0 LINE SMOOTH",
"159 -128 OFFCURVE",
"115 -153 OFFCURVE",
"-9 -128 CURVE",
"-9 -178 LINE"
);
}
);
};
layerId = "9E718F8A-2CEA-4931-B05D-987794BD97DA";
paths = (
{
closed = 1;
nodes = (
"150 -206 OFFCURVE",
"213 -162 OFFCURVE",
"213 -2 CURVE SMOOTH",
"213 712 LINE",
"159 712 LINE",
"159 0 LINE SMOOTH",
"159 -128 OFFCURVE",
"115 -153 OFFCURVE",
"-9 -128 CURVE",
"-9 -178 LINE"
);
}
);
width = 309;
},
{
anchors = (
{
name = bottom;
position = "{231, 0}";
},
{
name = top;
position = "{231, 712}";
}
);
background = {
anchors = (
{
name = bottom;
position = "{231, 0}";
},
{
name = top;
position = "{231, 712}";
}
);
paths = (
{
closed = 1;
nodes = (
"238 -214 OFFCURVE",
"313 -141 OFFCURVE",
"313 45 CURVE SMOOTH",
"313 712 LINE",
"150 712 LINE",
"150 43 LINE SMOOTH",
"150 -52 OFFCURVE",
"124 -64 OFFCURVE",
"-2 -48 CURVE",
"-2 -179 LINE"
);
}
);
};
layerId = "E1B555A7-F4E1-459C-9C1A-AE952106EEF9";
paths = (
{
closed = 1;
nodes = (
"238 -214 OFFCURVE",
"313 -141 OFFCURVE",
"313 45 CURVE SMOOTH",
"313 712 LINE",
"150 712 LINE",
"150 43 LINE SMOOTH",
"150 -52 OFFCURVE",
"124 -64 OFFCURVE",
"-2 -48 CURVE",
"-2 -179 LINE"
);
}
);
width = 385;
}
);
leftKerningGroup = J;
rightKerningGroup = J;
unicode = 004A;
userData = {
anchors = (
);
b = {
};
com.typemytype.robofont.layerData = {
b = {
anchors = (
);
components = (
);
contours = (
);
lib = {
};
name = J;
unicodes = (
);
width = 1003;
};
};
components = (
);
contours = (
);
lib = {
};
name = J;
unicodes = (
);
width = 1126;
};
},
{
color = 3;
glyphname = K;
lastChange = "2019-01-29 12:32:15 +0000";
layers = (
{
anchors = (
{
name = bottom;
position = "{309, 0}";
},
{
name = top;
position = "{308, 712}";
}
);
background = {
anchors = (
{
name = bottom;
position = "{309, 0}";
},
{
name = top;
position = "{308, 712}";
}
);
paths = (
{
closed = 1;
nodes = (
"600 -7 OFFCURVE",
"650 46 OFFCURVE",
"662 149 CURVE",
"614 154 LINE",
"607 76 OFFCURVE",
"577 39 OFFCURVE",
"531 39 CURVE SMOOTH",
"492 39 OFFCURVE",
"467 65 OFFCURVE",
"444 122 CURVE SMOOTH",
"385 270 LINE SMOOTH",
"349 360 OFFCURVE",
"305 390 OFFCURVE",
"211 390 CURVE SMOOTH",
"126 390 LINE",
"126 340 LINE",
"207 340 LINE SMOOTH",
"275 340 OFFCURVE",
"307 323 OFFCURVE",
"333 260 CURVE SMOOTH",
"404 85 LINE SMOOTH",
"429 25 OFFCURVE",
"470 -7 OFFCURVE",
"527 -7 CURVE SMOOTH"
);
},
{
closed = 1;
nodes = (
"425 470 OFFCURVE",
"521 591 OFFCURVE",
"619 712 CURVE",
"595 711 OFFCURVE",
"574 711 OFFCURVE",
"550 712 CURVE",
"461 596 OFFCURVE",
"371 481 OFFCURVE",
"279 365 CURVE",
"329 349 LINE"
);
},
{
closed = 1;
nodes = (
"113 1 OFFCURVE",
"133 1 OFFCURVE",
"154 0 CURVE",
"153 119 OFFCURVE",
"152 237 OFFCURVE",
"152 356 CURVE SMOOTH",
"152 475 OFFCURVE",
"153 594 OFFCURVE",
"154 712 CURVE",
"133 711 OFFCURVE",
"113 711 OFFCURVE",
"92 712 CURVE",
"93 594 OFFCURVE",
"94 475 OFFCURVE",
"94 356 CURVE SMOOTH",
"94 237 OFFCURVE",
"93 119 OFFCURVE",
"92 0 CURVE"
);
}
);
};
layerId = "9E718F8A-2CEA-4931-B05D-987794BD97DA";
paths = (
{
closed = 1;
nodes = (
"600 -7 OFFCURVE",
"650 46 OFFCURVE",
"662 149 CURVE",
"646 150 OFFCURVE",
"630 151 OFFCURVE",
"614 154 CURVE",
"607 76 OFFCURVE",
"577 39 OFFCURVE",
"531 39 CURVE SMOOTH",
"492 39 OFFCURVE",
"467 65 OFFCURVE",
"444 122 CURVE SMOOTH",
"385 270 LINE SMOOTH",
"349 360 OFFCURVE",
"305 390 OFFCURVE",
"211 390 CURVE SMOOTH",
"126 390 LINE",
"126 340 LINE",
"207 340 LINE SMOOTH",
"275 340 OFFCURVE",
"307 323 OFFCURVE",
"333 260 CURVE SMOOTH",
"404 85 LINE SMOOTH",
"429 25 OFFCURVE",
"470 -7 OFFCURVE",
"527 -7 CURVE SMOOTH"
);
},
{
closed = 1;
nodes = (
"425 470 OFFCURVE",
"521 591 OFFCURVE",
"619 712 CURVE",
"595 711 OFFCURVE",
"574 711 OFFCURVE",
"550 712 CURVE",
"461 596 OFFCURVE",
"371 481 OFFCURVE",
"279 365 CURVE",
"329 349 LINE"
);
},
{
closed = 1;
nodes = (
"113 1 OFFCURVE",
"133 1 OFFCURVE",
"154 0 CURVE",
"153 119 OFFCURVE",
"152 237 OFFCURVE",
"152 356 CURVE SMOOTH",
"152 475 OFFCURVE",
"153 594 OFFCURVE",
"154 712 CURVE",
"133 711 OFFCURVE",
"113 711 OFFCURVE",
"92 712 CURVE",
"93 594 OFFCURVE",
"94 475 OFFCURVE",
"94 356 CURVE SMOOTH",
"94 237 OFFCURVE",
"93 119 OFFCURVE",
"92 0 CURVE"
);
}
);
width = 654;
},
{
anchors = (
{
name = bottom;
position = "{347, 0}";
},
{
name = top;
position = "{347, 712}";
}
);
background = {
anchors = (
{
name = bottom;
position = "{347, 0}";
},
{
name = top;
position = "{347, 712}";
}
);
paths = (
{
closed = 1;
nodes = (
"704 -9 OFFCURVE",
"776 66 OFFCURVE",
"780 183 CURVE",
"659 194 LINE",
"651 135 OFFCURVE",
"638 114 OFFCURVE",
"611 114 CURVE SMOOTH",
"594 114 OFFCURVE",
"582 125 OFFCURVE",
"573 147 CURVE SMOOTH",
"516 293 LINE SMOOTH",
"478 393 OFFCURVE",
"412 438 OFFCURVE",
"302 438 CURVE SMOOTH",
"197 438 LINE",
"197 291 LINE",
"280 291 LINE SMOOTH",
"321 291 OFFCURVE",
"347 271 OFFCURVE",
"364 228 CURVE SMOOTH",
"409 113 LINE SMOOTH",
"442 27 OFFCURVE",
"497 -9 OFFCURVE",
"597 -9 CURVE SMOOTH"
);
},
{
closed = 1;
nodes = (
"548 455 OFFCURVE",
"637 584 OFFCURVE",
"726 712 CURVE",
"663 711 OFFCURVE",
"600 711 OFFCURVE",
"537 712 CURVE",
"460 595 OFFCURVE",
"383 478 OFFCURVE",
"303 361 CURVE",
"461 327 LINE"
);
},
{
closed = 1;
nodes = (
"126 1 OFFCURVE",
"182 1 OFFCURVE",
"239 0 CURVE",
"238 119 OFFCURVE",
"237 237 OFFCURVE",
"237 356 CURVE SMOOTH",
"237 475 OFFCURVE",
"238 594 OFFCURVE",
"239 712 CURVE",
"182 711 OFFCURVE",
"126 711 OFFCURVE",
"69 712 CURVE",
"70 594 OFFCURVE",
"71 475 OFFCURVE",
"71 356 CURVE SMOOTH",
"71 237 OFFCURVE",
"70 119 OFFCURVE",
"69 0 CURVE"
);
}
);
};
layerId = "E1B555A7-F4E1-459C-9C1A-AE952106EEF9";
paths = (
{
closed = 1;
nodes = (
"704 -9 OFFCURVE",
"776 66 OFFCURVE",
"780 183 CURVE",
"740 185 OFFCURVE",
"699 188 OFFCURVE",
"659 194 CURVE",
"651 135 OFFCURVE",
"638 114 OFFCURVE",
"611 114 CURVE SMOOTH",
"594 114 OFFCURVE",
"582 125 OFFCURVE",
"573 147 CURVE SMOOTH",
"516 293 LINE SMOOTH",
"478 393 OFFCURVE",
"412 438 OFFCURVE",
"302 438 CURVE SMOOTH",
"197 438 LINE",
"197 291 LINE",
"280 291 LINE SMOOTH",
"321 291 OFFCURVE",
"347 271 OFFCURVE",
"364 228 CURVE SMOOTH",
"409 113 LINE SMOOTH",
"442 27 OFFCURVE",
"497 -9 OFFCURVE",
"597 -9 CURVE SMOOTH"
);
},
{
closed = 1;
nodes = (
"548 455 OFFCURVE",
"637 584 OFFCURVE",
"728 712 CURVE",
"663 711 OFFCURVE",
"600 711 OFFCURVE",
"534 712 CURVE",
"460 595 OFFCURVE",
"383 478 OFFCURVE",
"303 361 CURVE",
"461 327 LINE"
);
},
{
closed = 1;
nodes = (
"126 1 OFFCURVE",
"182 1 OFFCURVE",
"241 0 CURVE",
"238 119 OFFCURVE",
"237 237 OFFCURVE",
"237 356 CURVE SMOOTH",
"237 475 OFFCURVE",
"238 594 OFFCURVE",
"241 712 CURVE",
"182 711 OFFCURVE",
"126 711 OFFCURVE",
"67 712 CURVE",
"70 594 OFFCURVE",
"71 475 OFFCURVE",
"71 356 CURVE SMOOTH",
"71 237 OFFCURVE",
"70 119 OFFCURVE",
"67 0 CURVE"
);
}
);
width = 771;
}
);
leftKerningGroup = H;
rightKerningGroup = K;
unicode = 004B;
userData = {
anchors = (
);
b = {
};
com.typemytype.robofont.layerData = {
b = {
anchors = (
);
components = (
);
contours = (
);
lib = {
};
name = K;
unicodes = (
);
width = 1210;
};
};
components = (
);
contours = (
);
lib = {
};
name = K;
unicodes = (
);
width = 1329;
};
},
{
color = 3;
glyphname = L;
lastChange = "2019-01-29 12:34:25 +0000";
layers = (
{
anchors = (
{
name = bottom;
position = "{308, 0}";
},
{
name = center;
position = "{335, 357}";
},
{
name = top;
position = "{119, 712}";
},
{
name = topright;
position = "{237, 712}";
}
);
background = {
anchors = (
{
name = bottom;
position = "{308, 0}";
},
{
name = center;
position = "{335, 357}";
},
{
name = top;
position = "{119, 712}";
},
{
name = topright;
position = "{237, 712}";
}
);
paths = (
{
closed = 1;
nodes = (
"518 0 LINE",
"518 48 LINE",
"146 48 LINE",
"146 712 LINE",
"92 712 LINE",
"92 0 LINE"
);
}
);
};
layerId = "9E718F8A-2CEA-4931-B05D-987794BD97DA";
paths = (
{
closed = 1;
nodes = (
"162 -1 OFFCURVE",
"234 -1 OFFCURVE",
"305 -1 CURVE SMOOTH",
"376 -1 OFFCURVE",
"447 -1 OFFCURVE",
"518 -2 CURVE",
"517 16 OFFCURVE",
"517 32 OFFCURVE",
"518 49 CURVE",
"394 47 OFFCURVE",
"270 47 OFFCURVE",
"148 47 CURVE",
"147 158 OFFCURVE",
"146 269 OFFCURVE",
"146 380 CURVE SMOOTH",
"146 491 OFFCURVE",
"147 602 OFFCURVE",
"148 712 CURVE",
"128 711 OFFCURVE",
"110 711 OFFCURVE",
"90 712 CURVE",
"91 594 OFFCURVE",
"92 475 OFFCURVE",
"92 356 CURVE SMOOTH",
"92 237 OFFCURVE",
"91 119 OFFCURVE",
"90 -2 CURVE"
);
}
);
width = 536;
},
{
anchors = (
{
name = bottom;
position = "{314, 0}";
},
{
name = center;
position = "{396, 357}";
},
{
name = top;
position = "{148, 712}";
},
{
name = topright;
position = "{321, 712}";
}
);
background = {
anchors = (
{
name = bottom;
position = "{314, 0}";
},
{
name = center;
position = "{396, 357}";
},
{
name = top;
position = "{148, 712}";
},
{
name = topright;
position = "{321, 712}";
}
);
paths = (
{
closed = 1;
nodes = (
"545 0 LINE",
"545 132 LINE",
"230 132 LINE",
"230 712 LINE",
"68 712 LINE",
"68 0 LINE"
);
}
);
};
layerId = "E1B555A7-F4E1-459C-9C1A-AE952106EEF9";
paths = (
{
closed = 1;
nodes = (
"146 -1 OFFCURVE",
"226 0 OFFCURVE",
"306 0 CURVE SMOOTH",
"386 0 OFFCURVE",
"466 -1 OFFCURVE",
"545 -2 CURVE",
"543 44 OFFCURVE",
"543 88 OFFCURVE",
"545 133 CURVE",
"440 129 OFFCURVE",
"335 129 OFFCURVE",
"234 129 CURVE",
"230 218 OFFCURVE",
"230 304 OFFCURVE",
"230 390 CURVE SMOOTH",
"230 497 OFFCURVE",
"230 605 OFFCURVE",
"234 712 CURVE",
"176 710 OFFCURVE",
"122 710 OFFCURVE",
"64 712 CURVE",
"66 598 OFFCURVE",
"68 485 OFFCURVE",
"68 371 CURVE SMOOTH",
"68 247 OFFCURVE",
"66 123 OFFCURVE",
"64 -2 CURVE"
);
}
);
width = 571;
}
);
leftKerningGroup = H;
rightKerningGroup = L;
unicode = 004C;
userData = {
anchors = (
);
b = {
};
com.typemytype.robofont.layerData = {
b = {
anchors = (
);
components = (
);
contours = (
{
points = (
{
segmentType = curve;
smooth = 1;
x = 266;
y = 0;
},
{
segmentType = line;
smooth = 1;
x = 1035;
y = 0;
},
{
smooth = 0;
x = 1084;
y = 0;
},
{
smooth = 0;
x = 1108;
y = 34;
},
{
segmentType = curve;
smooth = 1;
x = 1108;
y = 71;
},
{
smooth = 0;
x = 1108;
y = 107;
},
{
smooth = 0;
x = 1084;
y = 141;
},
{
segmentType = curve;
smooth = 1;
x = 1035;
y = 141;
},
{
segmentType = line;
smooth = 0;
x = 356;
y = 141;
},
{
segmentType = line;
smooth = 0;
x = 356;
y = 665;
},
{
segmentType = line;
smooth = 1;
x = 975;
y = 665;
},
{
smooth = 0;
x = 1024;
y = 665;
},
{
smooth = 0;
x = 1049;
y = 698;
},
{
segmentType = curve;
smooth = 1;
x = 1049;
y = 734;
},
{
smooth = 0;
x = 1049;
y = 770;
},
{
smooth = 0;
x = 1026;
y = 803;
},
{
segmentType = curve;
smooth = 1;
x = 975;
y = 803;
},
{
segmentType = line;
smooth = 0;
x = 356;
y = 803;
},
{
segmentType = line;
smooth = 0;
x = 356;
y = 1285;
},
{
segmentType = line;
smooth = 1;
x = 1007;
y = 1285;
},
{
smooth = 0;
x = 1056;
y = 1285;
},
{
smooth = 0;
x = 1080;
y = 1319;
},
{
segmentType = curve;
smooth = 1;
x = 1080;
y = 1356;
},
{
smooth = 0;
x = 1080;
y = 1392;
},
{
smooth = 0;
x = 1056;
y = 1426;
},
{
segmentType = curve;
smooth = 1;
x = 1007;
y = 1426;
},
{
segmentType = line;
smooth = 1;
x = 261;
y = 1426;
},
{
smooth = 0;
x = 213;
y = 1426;
},
{
smooth = 0;
x = 178;
y = 1383;
},
{
segmentType = curve;
smooth = 1;
x = 178;
y = 1340;
},
{
segmentType = line;
smooth = 1;
x = 178;
y = 86;
},
{
smooth = 0;
x = 178;
y = 41;
},
{
smooth = 0;
x = 222;
y = 0;
}
);
}
);
lib = {
};
name = L;
unicodes = (
);
width = 1095;
};
};
components = (
);
contours = (
);
lib = {
};
name = L;
unicodes = (
);
width = 1169;
};
},
{
glyphname = Lslash;
lastChange = "2019-01-29 12:30:49 +0000";
layers = (
{
background = {
paths = (
{
closed = 1;
nodes = (
"344 459 LINE",
"344 514 LINE",
"6 319 LINE",
"6 264 LINE"
);
},
{
closed = 1;
nodes = (
"525 0 LINE",
"525 48 LINE",
"154 48 LINE",
"154 712 LINE",
"99 712 LINE",
"99 0 LINE"
);
}
);
};
guideLines = (
{
position = "{212, 362}";
},
{
angle = 90;
position = "{-451, 126}";
},
{
angle = 90;
position = "{-194, 126}";
},
{
angle = 90;
position = "{-93, 126}";
}
);
layerId = "9E718F8A-2CEA-4931-B05D-987794BD97DA";
paths = (
{
closed = 1;
nodes = (
"344 459 LINE",
"344 514 LINE",
"6 319 LINE",
"6 264 LINE"
);
},
{
closed = 1;
nodes = (
"525 0 LINE",
"525 48 LINE",
"154 48 LINE",
"154 712 LINE",
"99 712 LINE",
"99 0 LINE"
);
}
);
width = 543;
},
{
background = {
paths = (
{
closed = 1;
nodes = (
"446 443 LINE",
"446 582 LINE",
"8 329 LINE",
"8 191 LINE"
);
},
{
closed = 1;
nodes = (
"577 0 LINE",
"577 132 LINE",
"262 132 LINE",
"262 712 LINE",
"99 712 LINE",
"99 0 LINE"
);
}
);
};
guideLines = (
{
angle = 90;
position = "{361, 235}";
},
{
angle = 90;
position = "{-4, 235}";
},
{
position = "{332, 360}";
},
{
angle = 90;
position = "{462, 235}";
}
);
layerId = "E1B555A7-F4E1-459C-9C1A-AE952106EEF9";
paths = (
{
closed = 1;
nodes = (
"446 443 LINE",
"446 582 LINE",
"8 329 LINE",
"8 191 LINE"
);
},
{
closed = 1;
nodes = (
"577 0 LINE",
"577 132 LINE",
"262 132 LINE",
"262 712 LINE",
"99 712 LINE",
"99 0 LINE"
);
}
);
width = 603;
}
);
leftKerningGroup = L;
rightKerningGroup = L;
unicode = 0141;
},
{
color = 3;
glyphname = M;
lastChange = "2019-01-29 12:35:07 +0000";
layers = (
{
anchors = (
{
name = bottom;
position = "{464, 0}";
},
{
name = top;
position = "{464, 712}";
}
);
background = {
anchors = (
{
name = bottom;
position = "{464, 0}";
},
{
name = top;
position = "{464, 712}";
}
);
paths = (
{
closed = 1;
nodes = (
"112 1 OFFCURVE",
"129 1 OFFCURVE",
"149 0 CURVE",
"147 217 OFFCURVE",
"146 435 OFFCURVE",
"146 652 CURVE",
"115 648 LINE",
"225 432 OFFCURVE",
"334 216 OFFCURVE",
"440 0 CURVE",
"457 1 OFFCURVE",
"473 1 OFFCURVE",
"490 0 CURVE",
"595 216 OFFCURVE",
"701 431 OFFCURVE",
"809 647 CURVE",
"782 652 LINE",
"782 435 OFFCURVE",
"781 217 OFFCURVE",
"779 0 CURVE",
"799 1 OFFCURVE",
"816 1 OFFCURVE",
"836 0 CURVE",
"835 119 OFFCURVE",
"834 237 OFFCURVE",
"834 356 CURVE SMOOTH",
"834 475 OFFCURVE",
"835 594 OFFCURVE",
"836 712 CURVE",
"817 711 OFFCURVE",
"800 711 OFFCURVE",
"783 712 CURVE",
"674 485 OFFCURVE",
"563 257 OFFCURVE",
"450 30 CURVE",
"482 30 LINE",
"368 257 OFFCURVE",
"255 485 OFFCURVE",
"145 712 CURVE",
"128 711 OFFCURVE",
"111 711 OFFCURVE",
"92 712 CURVE",
"93 594 OFFCURVE",
"94 475 OFFCURVE",
"94 356 CURVE SMOOTH",
"94 237 OFFCURVE",
"93 119 OFFCURVE",
"92 0 CURVE"
);
}
);
};
layerId = "9E718F8A-2CEA-4931-B05D-987794BD97DA";
paths = (
{
closed = 1;
nodes = (
"112 1 OFFCURVE",
"129 1 OFFCURVE",
"149 0 CURVE",
"147 217 OFFCURVE",
"146 435 OFFCURVE",
"146 652 CURVE",
"115 648 LINE",
"225 432 OFFCURVE",
"334 216 OFFCURVE",
"440 0 CURVE",
"457 1 OFFCURVE",
"473 1 OFFCURVE",
"490 0 CURVE",
"595 216 OFFCURVE",
"701 431 OFFCURVE",
"809 647 CURVE",
"782 652 LINE",
"782 435 OFFCURVE",
"781 217 OFFCURVE",
"779 0 CURVE",
"799 1 OFFCURVE",
"816 1 OFFCURVE",
"836 0 CURVE",
"835 119 OFFCURVE",
"834 237 OFFCURVE",
"834 356 CURVE SMOOTH",
"834 475 OFFCURVE",
"835 594 OFFCURVE",
"836 712 CURVE",
"817 711 OFFCURVE",
"800 711 OFFCURVE",
"783 712 CURVE",
"674 485 OFFCURVE",
"563 257 OFFCURVE",
"450 30 CURVE",
"482 30 LINE",
"368 257 OFFCURVE",
"255 485 OFFCURVE",
"145 712 CURVE",
"128 711 OFFCURVE",
"111 711 OFFCURVE",
"92 712 CURVE",
"93 594 OFFCURVE",
"94 475 OFFCURVE",
"94 356 CURVE SMOOTH",
"94 237 OFFCURVE",
"93 119 OFFCURVE",
"92 0 CURVE"
);
}
);
width = 928;
},
{
anchors = (
{
name = bottom;
position = "{483, 0}";
},
{
name = top;
position = "{483, 712}";
}
);
background = {
anchors = (
{
name = bottom;
position = "{483, 0}";
},
{
name = top;
position = "{483, 712}";
}
);
paths = (
{
closed = 1;
nodes = (
"121 1 OFFCURVE",
"171 1 OFFCURVE",
"224 0 CURVE",
"222 157 OFFCURVE",
"222 313 OFFCURVE",
"222 470 CURVE",
"181 461 LINE",
"264 307 OFFCURVE",
"346 154 OFFCURVE",
"425 0 CURVE",
"464 1 OFFCURVE",
"501 1 OFFCURVE",
"540 0 CURVE",
"618 154 OFFCURVE",
"698 307 OFFCURVE",
"780 461 CURVE",
"743 470 LINE",
"743 313 OFFCURVE",
"743 157 OFFCURVE",
"741 0 CURVE",
"794 1 OFFCURVE",
"844 1 OFFCURVE",
"897 0 CURVE",
"896 119 OFFCURVE",
"895 237 OFFCURVE",
"895 356 CURVE SMOOTH",
"895 475 OFFCURVE",
"896 594 OFFCURVE",
"897 712 CURVE",
"846 711 OFFCURVE",
"797 711 OFFCURVE",
"748 712 CURVE",
"649 515 OFFCURVE",
"549 317 OFFCURVE",
"446 120 CURVE",
"526 120 LINE",
"421 317 OFFCURVE",
"318 515 OFFCURVE",
"217 712 CURVE",
"168 711 OFFCURVE",
"119 711 OFFCURVE",
"68 712 CURVE",
"69 594 OFFCURVE",
"70 475 OFFCURVE",
"70 356 CURVE SMOOTH",
"70 237 OFFCURVE",
"69 119 OFFCURVE",
"68 0 CURVE"
);
}
);
};
layerId = "E1B555A7-F4E1-459C-9C1A-AE952106EEF9";
paths = (
{
closed = 1;
nodes = (
"121 1 OFFCURVE",
"171 1 OFFCURVE",
"226 0 CURVE",
"222 157 OFFCURVE",
"222 313 OFFCURVE",
"222 470 CURVE",
"181 461 LINE",
"265 307 OFFCURVE",
"347 154 OFFCURVE",
"425 0 CURVE",
"464 1 OFFCURVE",
"501 1 OFFCURVE",
"542 0 CURVE",
"617 154 OFFCURVE",
"697 307 OFFCURVE",
"780 461 CURVE",
"743 470 LINE",
"743 313 OFFCURVE",
"743 157 OFFCURVE",
"739 0 CURVE",
"794 1 OFFCURVE",
"844 1 OFFCURVE",
"899 0 CURVE",
"896 119 OFFCURVE",
"895 237 OFFCURVE",
"895 356 CURVE SMOOTH",
"895 475 OFFCURVE",
"896 594 OFFCURVE",
"899 712 CURVE",
"846 711 OFFCURVE",
"797 711 OFFCURVE",
"748 712 CURVE",
"650 515 OFFCURVE",
"550 317 OFFCURVE",
"446 120 CURVE",
"526 120 LINE",
"420 317 OFFCURVE",
"317 515 OFFCURVE",
"219 712 CURVE",
"168 711 OFFCURVE",
"119 711 OFFCURVE",
"66 712 CURVE",
"69 594 OFFCURVE",
"70 475 OFFCURVE",
"70 356 CURVE SMOOTH",
"70 237 OFFCURVE",
"69 119 OFFCURVE",
"66 0 CURVE"
);
}
);
width = 965;
}
);
leftKerningGroup = H;
rightKerningGroup = H;
unicode = 004D;
userData = {
anchors = (
);
b = {
};
com.typemytype.robofont.layerData = {
b = {
anchors = (
);
components = (
);
contours = (
);
lib = {
};
name = M;
unicodes = (
);
width = 1899;
};
};
components = (
);
contours = (
);
lib = {
};
name = M;
unicodes = (
);
width = 1984;
};
},
{
glyphname = N;
lastChange = "2019-01-29 12:30:49 +0000";
layers = (
{
anchors = (
{
name = bottom;
position = "{369, 0}";
},
{
name = top;
position = "{369, 712}";
}
);
background = {
anchors = (
{
name = bottom;
position = "{369, 0}";
},
{
name = top;
position = "{369, 712}";
}
);
paths = (
{
closed = 1;
nodes = (
"143 0 LINE",
"143 650 LINE",
"121 649 LINE",
"602 0 LINE",
"645 0 LINE",
"645 712 LINE",
"594 712 LINE",
"594 62 LINE",
"617 63 LINE",
"136 712 LINE",
"92 712 LINE",
"92 0 LINE"
);
}
);
};
layerId = "9E718F8A-2CEA-4931-B05D-987794BD97DA";
paths = (
{
closed = 1;
nodes = (
"143 0 LINE",
"143 650 LINE",
"121 649 LINE",
"602 0 LINE",
"645 0 LINE",
"645 712 LINE",
"594 712 LINE",
"594 62 LINE",
"617 63 LINE",
"136 712 LINE",
"92 712 LINE",
"92 0 LINE"
);
}
);
width = 741;
},
{
anchors = (
{
name = bottom;
position = "{379, 0}";
},
{
name = top;
position = "{378, 712}";
}
);
background = {
anchors = (
{
name = bottom;
position = "{379, 0}";
},
{
name = top;
position = "{378, 712}";
}
);
paths = (
{
closed = 1;
nodes = (
"219 0 LINE",
"219 500 LINE",
"192 479 LINE",
"568 0 LINE",
"689 0 LINE",
"689 712 LINE",
"536 712 LINE",
"536 212 LINE",
"565 232 LINE",
"187 712 LINE",
"68 712 LINE",
"68 0 LINE"
);
}
);
};
layerId = "E1B555A7-F4E1-459C-9C1A-AE952106EEF9";
paths = (
{
closed = 1;
nodes = (
"219 0 LINE",
"219 500 LINE",
"192 479 LINE",
"568 0 LINE",
"689 0 LINE",
"689 712 LINE",
"536 712 LINE",
"536 212 LINE",
"565 232 LINE",
"187 712 LINE",
"68 712 LINE",
"68 0 LINE"
);
}
);
width = 761;
}
);
leftKerningGroup = H;
rightKerningGroup = H;
unicode = 004E;
userData = {
anchors = (
);
b = {
};
com.typemytype.robofont.layerData = {
b = {
anchors = (
);
components = (
);
contours = (
);
lib = {
};
name = N;
unicodes = (
);
width = 1499;
};
};
components = (
);
contours = (
);
lib = {
};
name = N;
unicodes = (
);
width = 1557;
};
},
{
glyphname = Eng;
lastChange = "2019-01-29 12:30:49 +0000";
layers = (
{
background = {
paths = (
{
closed = 1;
nodes = (
"594 62 LINE",
"617 63 LINE",
"136 712 LINE",
"92 712 LINE",
"92 0 LINE",
"143 0 LINE",
"143 650 LINE",
"121 649 LINE",
"602 0 LINE",
"594 38 LINE",
"594 -13 LINE SMOOTH",
"594 -91 OFFCURVE",
"551 -130 OFFCURVE",
"475 -136 CURVE SMOOTH",
"421 -140 LINE",
"425 -188 LINE",
"481 -184 LINE SMOOTH",
"598 -176 OFFCURVE",
"645 -109 OFFCURVE",
"645 -9 CURVE SMOOTH",
"645 712 LINE",
"594 712 LINE"
);
}
);
};
layerId = "9E718F8A-2CEA-4931-B05D-987794BD97DA";
paths = (
{
closed = 1;
nodes = (
"594 62 LINE",
"617 63 LINE",
"136 712 LINE",
"92 712 LINE",
"92 0 LINE",
"143 0 LINE",
"143 650 LINE",
"121 649 LINE",
"602 0 LINE",
"594 38 LINE",
"594 -13 LINE SMOOTH",
"594 -91 OFFCURVE",
"551 -130 OFFCURVE",
"475 -136 CURVE SMOOTH",
"421 -140 LINE",
"425 -188 LINE",
"481 -184 LINE SMOOTH",
"598 -176 OFFCURVE",
"645 -109 OFFCURVE",
"645 -9 CURVE SMOOTH",
"645 712 LINE",
"594 712 LINE"
);
}
);
width = 741;
},
{
background = {
paths = (
{
closed = 1;
nodes = (
"536 212 LINE",
"565 232 LINE",
"187 712 LINE",
"68 712 LINE",
"68 0 LINE",
"219 0 LINE",
"219 500 LINE",
"192 479 LINE",
"563 7 LINE",
"535 92 LINE",
"535 24 LINE SMOOTH",
"535 -27 OFFCURVE",
"503 -60 OFFCURVE",
"447 -63 CURVE SMOOTH",
"370 -68 LINE",
"380 -190 LINE",
"475 -185 LINE SMOOTH",
"617 -177 OFFCURVE",
"689 -105 OFFCURVE",
"689 30 CURVE SMOOTH",
"689 712 LINE",
"536 712 LINE"
);
}
);
};
layerId = "E1B555A7-F4E1-459C-9C1A-AE952106EEF9";
paths = (
{
closed = 1;
nodes = (
"536 212 LINE",
"565 232 LINE",
"187 712 LINE",
"68 712 LINE",
"68 0 LINE",
"219 0 LINE",
"219 500 LINE",
"192 479 LINE",
"563 7 LINE",
"535 92 LINE",
"535 24 LINE SMOOTH",
"535 -27 OFFCURVE",
"503 -60 OFFCURVE",
"447 -63 CURVE SMOOTH",
"370 -68 LINE",
"380 -190 LINE",
"475 -185 LINE SMOOTH",
"617 -177 OFFCURVE",
"689 -105 OFFCURVE",
"689 30 CURVE SMOOTH",
"689 712 LINE",
"536 712 LINE"
);
}
);
width = 761;
}
);
leftKerningGroup = H;
rightKerningGroup = H;
unicode = 014A;
userData = {
com.typemytype.robofont.layerData = {
b = {
anchors = (
);
components = (
);
contours = (
);
lib = {
};
name = Eng;
unicodes = (
);
width = 1495;
};
};
};
},
{
color = 3;
glyphname = O;
lastChange = "2019-01-29 12:30:49 +0000";
layers = (
{
anchors = (
{
name = bottom;
position = "{379, 0}";
},
{
name = center;
position = "{380, 357}";
},
{
name = ogonek;
position = "{485, 10}";
},
{
name = top;
position = "{379, 712}";
},
{
name = topleft;
position = "{24, 712}";
},
{
name = topright;
position = "{409, 712}";
}
);
background = {
anchors = (
{
name = bottom;
position = "{379, 0}";
},
{
name = center;
position = "{380, 357}";
},
{
name = ogonek;
position = "{485, 10}";
},
{
name = top;
position = "{379, 712}";
},
{
name = topleft;
position = "{24, 712}";
},
{
name = topright;
position = "{409, 712}";
}
);
paths = (
{
closed = 1;
nodes = (
"652 -7 OFFCURVE",
"806 151 OFFCURVE",
"806 354 CURVE SMOOTH",
"806 557 OFFCURVE",
"651 720 OFFCURVE",
"436 720 CURVE SMOOTH",
"221 720 OFFCURVE",
"64 556 OFFCURVE",
"64 354 CURVE SMOOTH",
"64 152 OFFCURVE",
"220 -7 OFFCURVE",
"436 -7 CURVE SMOOTH"
);
},
{
closed = 1;
nodes = (
"253 46 OFFCURVE",
"125 178 OFFCURVE",
"125 353 CURVE SMOOTH",
"125 528 OFFCURVE",
"254 667 OFFCURVE",
"435 667 CURVE SMOOTH",
"616 667 OFFCURVE",
"745 528 OFFCURVE",
"745 353 CURVE SMOOTH",
"745 178 OFFCURVE",
"617 46 OFFCURVE",
"435 46 CURVE SMOOTH"
);
}
);
};
guideLines = (
{
angle = 90;
position = "{570, 356}";
},
{
angle = 90;
position = "{633, 356}";
}
);
layerId = "9E718F8A-2CEA-4931-B05D-987794BD97DA";
paths = (
{
closed = 1;
nodes = (
"652 -7 OFFCURVE",
"806 151 OFFCURVE",
"806 354 CURVE SMOOTH",
"806 557 OFFCURVE",
"651 720 OFFCURVE",
"436 720 CURVE SMOOTH",
"221 720 OFFCURVE",
"64 556 OFFCURVE",
"64 354 CURVE SMOOTH",
"64 152 OFFCURVE",
"220 -7 OFFCURVE",
"436 -7 CURVE SMOOTH"
);
},
{
closed = 1;
nodes = (
"253 46 OFFCURVE",
"125 178 OFFCURVE",
"125 353 CURVE SMOOTH",
"125 528 OFFCURVE",
"254 667 OFFCURVE",
"435 667 CURVE SMOOTH",
"616 667 OFFCURVE",
"745 528 OFFCURVE",
"745 353 CURVE SMOOTH",
"745 178 OFFCURVE",
"617 46 OFFCURVE",
"435 46 CURVE SMOOTH"
);
}
);
width = 874;
},
{
anchors = (
{
name = bottom;
position = "{398, 0}";
},
{
name = center;
position = "{398, 357}";
},
{
name = ogonek;
position = "{517, 10}";
},
{
name = top;
position = "{397, 712}";
},
{
name = topleft;
position = "{21, 712}";
},
{
name = topright;
position = "{428, 712}";
}
);
background = {
anchors = (
{
name = bottom;
position = "{398, 0}";
},
{
name = center;
position = "{398, 357}";
},
{
name = ogonek;
position = "{517, 10}";
},
{
name = top;
position = "{397, 712}";
},
{
name = topleft;
position = "{21, 712}";
},
{
name = topright;
position = "{428, 712}";
}
);
paths = (
{
closed = 1;
nodes = (
"640 -9 OFFCURVE",
"799 145 OFFCURVE",
"799 356 CURVE SMOOTH",
"799 567 OFFCURVE",
"635 722 OFFCURVE",
"423 722 CURVE SMOOTH",
"211 722 OFFCURVE",
"47 563 OFFCURVE",
"47 356 CURVE SMOOTH",
"47 149 OFFCURVE",
"206 -9 OFFCURVE",
"423 -9 CURVE SMOOTH"
);
},
{
closed = 1;
nodes = (
"296 126 OFFCURVE",
"212 223 OFFCURVE",
"212 356 CURVE SMOOTH",
"212 489 OFFCURVE",
"302 589 OFFCURVE",
"423 589 CURVE SMOOTH",
"544 589 OFFCURVE",
"634 492 OFFCURVE",
"634 356 CURVE SMOOTH",
"634 220 OFFCURVE",
"550 126 OFFCURVE",
"423 126 CURVE SMOOTH"
);
}
);
};
layerId = "E1B555A7-F4E1-459C-9C1A-AE952106EEF9";
paths = (
{
closed = 1;
nodes = (
"640 -9 OFFCURVE",
"799 145 OFFCURVE",
"799 356 CURVE SMOOTH",
"799 567 OFFCURVE",
"635 722 OFFCURVE",
"423 722 CURVE SMOOTH",
"211 722 OFFCURVE",
"47 563 OFFCURVE",
"47 356 CURVE SMOOTH",
"47 149 OFFCURVE",
"206 -9 OFFCURVE",
"423 -9 CURVE SMOOTH"
);
},
{
closed = 1;
nodes = (
"296 126 OFFCURVE",
"212 223 OFFCURVE",
"212 356 CURVE SMOOTH",
"212 489 OFFCURVE",
"302 589 OFFCURVE",
"423 589 CURVE SMOOTH",
"544 589 OFFCURVE",
"634 492 OFFCURVE",
"634 356 CURVE SMOOTH",
"634 220 OFFCURVE",
"550 126 OFFCURVE",
"423 126 CURVE SMOOTH"
);
}
);
width = 850;
}
);
leftKerningGroup = O;
rightKerningGroup = O;
unicode = 004F;
userData = {
anchors = (
);
b = {
};
com.typemytype.robofont.guides = (
);
com.typemytype.robofont.layerData = {
b = {
anchors = (
);
components = (
);
contours = (
);
lib = {
};
name = O;
unicodes = (
);
width = 1597;
};
};
components = (
);
contours = (
);
lib = {
};
name = O;
unicodes = (
);
width = 1604;
};
},
{
glyphname = Oslash;
lastChange = "2019-01-29 12:30:49 +0000";
layers = (
{
anchors = (
{
name = bottom;
position = "{379, 0}";
},
{
name = top;
position = "{379, 712}";
}
);
background = {
anchors = (
{
name = bottom;
position = "{379, 0}";
},
{
name = top;
position = "{379, 712}";
}
);
paths = (
{
closed = 1;
nodes = (
"574 -8 OFFCURVE",
"695 131 OFFCURVE",
"695 357 CURVE SMOOTH",
"695 582 OFFCURVE",
"575 720 OFFCURVE",
"379 720 CURVE SMOOTH",
"183 720 OFFCURVE",
"64 582 OFFCURVE",
"64 356 CURVE SMOOTH",
"64 131 OFFCURVE",
"185 -8 OFFCURVE",
"379 -8 CURVE SMOOTH"
);
},
{
closed = 1;
nodes = (
"623 728 LINE",
"583 751 LINE",
"135 -16 LINE",
"176 -39 LINE"
);
},
{
closed = 1;
nodes = (
"216 42 OFFCURVE",
"121 158 OFFCURVE",
"121 357 CURVE SMOOTH",
"121 556 OFFCURVE",
"216 670 OFFCURVE",
"379 670 CURVE SMOOTH",
"543 670 OFFCURVE",
"637 557 OFFCURVE",
"637 357 CURVE SMOOTH",
"637 157 OFFCURVE",
"542 42 OFFCURVE",
"379 42 CURVE SMOOTH"
);
}
);
};
layerId = "9E718F8A-2CEA-4931-B05D-987794BD97DA";
paths = (
{
closed = 1;
nodes = (
"574 -8 OFFCURVE",
"695 131 OFFCURVE",
"695 357 CURVE SMOOTH",
"695 582 OFFCURVE",
"575 720 OFFCURVE",
"379 720 CURVE SMOOTH",
"183 720 OFFCURVE",
"64 582 OFFCURVE",
"64 356 CURVE SMOOTH",
"64 131 OFFCURVE",
"185 -8 OFFCURVE",
"379 -8 CURVE SMOOTH"
);
},
{
closed = 1;
nodes = (
"623 728 LINE",
"583 751 LINE",
"135 -16 LINE",
"176 -39 LINE"
);
},
{
closed = 1;
nodes = (
"216 42 OFFCURVE",
"121 158 OFFCURVE",
"121 357 CURVE SMOOTH",
"121 556 OFFCURVE",
"216 670 OFFCURVE",
"379 670 CURVE SMOOTH",
"543 670 OFFCURVE",
"637 557 OFFCURVE",
"637 357 CURVE SMOOTH",
"637 157 OFFCURVE",
"542 42 OFFCURVE",
"379 42 CURVE SMOOTH"
);
}
);
width = 763;
},
{
anchors = (
{
name = bottom;
position = "{397, 0}";
},
{
name = top;
position = "{396, 712}";
}
);
background = {
anchors = (
{
name = bottom;
position = "{397, 0}";
},
{
name = top;
position = "{396, 712}";
}
);
paths = (
{
closed = 1;
nodes = (
"612 -9 OFFCURVE",
"745 133 OFFCURVE",
"745 357 CURVE SMOOTH",
"745 580 OFFCURVE",
"612 721 OFFCURVE",
"397 721 CURVE SMOOTH",
"182 721 OFFCURVE",
"47 580 OFFCURVE",
"47 357 CURVE SMOOTH",
"47 133 OFFCURVE",
"182 -9 OFFCURVE",
"397 -9 CURVE SMOOTH"
);
},
{
closed = 1;
nodes = (
"678 720 LINE",
"575 782 LINE",
"115 -8 LINE",
"218 -70 LINE"
);
},
{
closed = 1;
nodes = (
"282 117 OFFCURVE",
"210 198 OFFCURVE",
"210 357 CURVE SMOOTH",
"210 515 OFFCURVE",
"282 595 OFFCURVE",
"397 595 CURVE SMOOTH",
"512 595 OFFCURVE",
"584 514 OFFCURVE",
"584 357 CURVE SMOOTH",
"584 199 OFFCURVE",
"512 117 OFFCURVE",
"397 117 CURVE SMOOTH"
);
}
);
};
layerId = "E1B555A7-F4E1-459C-9C1A-AE952106EEF9";
paths = (
{
closed = 1;
nodes = (
"612 -9 OFFCURVE",
"745 133 OFFCURVE",
"745 357 CURVE SMOOTH",
"745 580 OFFCURVE",
"612 721 OFFCURVE",
"397 721 CURVE SMOOTH",
"182 721 OFFCURVE",
"47 580 OFFCURVE",
"47 357 CURVE SMOOTH",
"47 133 OFFCURVE",
"182 -9 OFFCURVE",
"397 -9 CURVE SMOOTH"
);
},
{
closed = 1;
nodes = (
"678 720 LINE",
"575 782 LINE",
"115 -8 LINE",
"218 -70 LINE"
);
},
{
closed = 1;
nodes = (
"282 117 OFFCURVE",
"210 198 OFFCURVE",
"210 357 CURVE SMOOTH",
"210 515 OFFCURVE",
"282 595 OFFCURVE",
"397 595 CURVE SMOOTH",
"512 595 OFFCURVE",
"584 514 OFFCURVE",
"584 357 CURVE SMOOTH",
"584 199 OFFCURVE",
"512 117 OFFCURVE",
"397 117 CURVE SMOOTH"
);
}
);
width = 797;
}
);
leftKerningGroup = O;
rightKerningGroup = O;
unicode = 00D8;
userData = {
com.typemytype.robofont.layerData = {
b = {
anchors = (
);
components = (
);
contours = (
);
lib = {
};
name = Oslash;
unicodes = (
);
width = 1597;
};
};
};
},
{
glyphname = Ohorn;
lastChange = "2019-01-29 12:30:49 +0000";
layers = (
{
anchors = (
{
name = bottom;
position = "{380, 0}";
},
{
name = top;
position = "{379, 712}";
}
);
background = {
anchors = (
{
name = bottom;
position = "{380, 0}";
},
{
name = top;
position = "{379, 712}";
}
);
paths = (
{
closed = 1;
nodes = (
"573 -8 OFFCURVE",
"695 131 OFFCURVE",
"695 357 CURVE SMOOTH",
"695 513 OFFCURVE",
"637 627 OFFCURVE",
"532 683 CURVE",
"538 670 LINE",
"637 670 OFFCURVE",
"695 724 OFFCURVE",
"695 817 CURVE SMOOTH",
"695 839 LINE",
"644 839 LINE",
"644 826 LINE SMOOTH",
"644 744 OFFCURVE",
"612 713 OFFCURVE",
"525 712 CURVE SMOOTH",
"485 712 OFFCURVE",
"431 720 OFFCURVE",
"383 720 CURVE SMOOTH",
"183 720 OFFCURVE",
"64 582 OFFCURVE",
"64 356 CURVE SMOOTH",
"64 131 OFFCURVE",
"186 -8 OFFCURVE",
"379 -8 CURVE SMOOTH"
);
},
{
closed = 1;
nodes = (
"216 42 OFFCURVE",
"121 158 OFFCURVE",
"121 357 CURVE SMOOTH",
"121 556 OFFCURVE",
"216 670 OFFCURVE",
"379 670 CURVE SMOOTH",
"543 670 OFFCURVE",
"637 557 OFFCURVE",
"637 357 CURVE SMOOTH",
"637 157 OFFCURVE",
"542 42 OFFCURVE",
"379 42 CURVE SMOOTH"
);
}
);
};
guideLines = (
{
angle = 90;
position = "{646, 469}";
}
);
layerId = "9E718F8A-2CEA-4931-B05D-987794BD97DA";
paths = (
{
closed = 1;
nodes = (
"573 -8 OFFCURVE",
"695 131 OFFCURVE",
"695 357 CURVE SMOOTH",
"695 513 OFFCURVE",
"637 627 OFFCURVE",
"532 683 CURVE",
"538 670 LINE",
"637 670 OFFCURVE",
"695 724 OFFCURVE",
"695 817 CURVE SMOOTH",
"695 839 LINE",
"644 839 LINE",
"644 826 LINE SMOOTH",
"644 744 OFFCURVE",
"612 713 OFFCURVE",
"525 712 CURVE SMOOTH",
"485 712 OFFCURVE",
"431 720 OFFCURVE",
"383 720 CURVE SMOOTH",
"183 720 OFFCURVE",
"64 582 OFFCURVE",
"64 356 CURVE SMOOTH",
"64 131 OFFCURVE",
"186 -8 OFFCURVE",
"379 -8 CURVE SMOOTH"
);
},
{
closed = 1;
nodes = (
"216 42 OFFCURVE",
"121 158 OFFCURVE",
"121 357 CURVE SMOOTH",
"121 556 OFFCURVE",
"216 670 OFFCURVE",
"379 670 CURVE SMOOTH",
"543 670 OFFCURVE",
"637 557 OFFCURVE",
"637 357 CURVE SMOOTH",
"637 157 OFFCURVE",
"542 42 OFFCURVE",
"379 42 CURVE SMOOTH"
);
}
);
width = 763;
},
{
anchors = (
{
name = bottom;
position = "{397, 0}";
},
{
name = top;
position = "{396, 712}";
}
);
background = {
anchors = (
{
name = bottom;
position = "{397, 0}";
},
{
name = top;
position = "{396, 712}";
}
);
paths = (
{
closed = 1;
nodes = (
"612 -9 OFFCURVE",
"745 133 OFFCURVE",
"745 357 CURVE SMOOTH",
"745 492 OFFCURVE",
"699 596 OFFCURVE",
"608 658 CURVE",
"592 636 LINE",
"682 636 OFFCURVE",
"745 702 OFFCURVE",
"745 795 CURVE SMOOTH",
"745 834 LINE",
"610 834 LINE",
"610 814 LINE SMOOTH",
"610 739 OFFCURVE",
"587 712 OFFCURVE",
"523 712 CURVE SMOOTH",
"479 712 OFFCURVE",
"447 721 OFFCURVE",
"399 721 CURVE SMOOTH",
"182 721 OFFCURVE",
"47 580 OFFCURVE",
"47 357 CURVE SMOOTH",
"47 133 OFFCURVE",
"182 -9 OFFCURVE",
"397 -9 CURVE SMOOTH"
);
},
{
closed = 1;
nodes = (
"282 117 OFFCURVE",
"210 198 OFFCURVE",
"210 357 CURVE SMOOTH",
"210 515 OFFCURVE",
"282 595 OFFCURVE",
"397 595 CURVE SMOOTH",
"512 595 OFFCURVE",
"584 514 OFFCURVE",
"584 357 CURVE SMOOTH",
"584 199 OFFCURVE",
"512 117 OFFCURVE",
"397 117 CURVE SMOOTH"
);
}
);
};
guideLines = (
{
angle = 90;
position = "{743, 646}";
}
);
layerId = "E1B555A7-F4E1-459C-9C1A-AE952106EEF9";
paths = (
{
closed = 1;
nodes = (
"612 -9 OFFCURVE",
"745 133 OFFCURVE",
"745 357 CURVE SMOOTH",
"745 492 OFFCURVE",
"699 596 OFFCURVE",
"608 658 CURVE",
"592 636 LINE",
"682 636 OFFCURVE",
"745 702 OFFCURVE",
"745 795 CURVE SMOOTH",
"745 834 LINE",
"610 834 LINE",
"610 814 LINE SMOOTH",
"610 739 OFFCURVE",
"587 712 OFFCURVE",
"523 712 CURVE SMOOTH",
"479 712 OFFCURVE",
"447 721 OFFCURVE",
"399 721 CURVE SMOOTH",
"182 721 OFFCURVE",
"47 580 OFFCURVE",
"47 357 CURVE SMOOTH",
"47 133 OFFCURVE",
"182 -9 OFFCURVE",
"397 -9 CURVE SMOOTH"
);
},
{
closed = 1;
nodes = (
"282 117 OFFCURVE",
"210 198 OFFCURVE",
"210 357 CURVE SMOOTH",
"210 515 OFFCURVE",
"282 595 OFFCURVE",
"397 595 CURVE SMOOTH",
"512 595 OFFCURVE",
"584 514 OFFCURVE",
"584 357 CURVE SMOOTH",
"584 199 OFFCURVE",
"512 117 OFFCURVE",
"397 117 CURVE SMOOTH"
);
}
);
width = 797;
}
);
leftKerningGroup = O;
rightKerningGroup = O;
unicode = 01A0;
},
{
glyphname = Oogonek;
lastChange = "2019-01-29 12:30:49 +0000";
layers = (
{
anchors = (
{
name = top;
position = "{379, 712}";
}
);
background = {
anchors = (
{
name = top;
position = "{379, 712}";
}
);
paths = (
{
closed = 1;
nodes = (
"613 43 OFFCURVE",
"695 170 OFFCURVE",
"695 357 CURVE SMOOTH",
"695 582 OFFCURVE",
"574 720 OFFCURVE",
"379 720 CURVE SMOOTH",
"184 720 OFFCURVE",
"64 582 OFFCURVE",
"64 356 CURVE SMOOTH",
"64 120 OFFCURVE",
"198 -21 OFFCURVE",
"406 -7 CURVE",
"398 11 LINE",
"363 -11 OFFCURVE",
"341 -48 OFFCURVE",
"341 -89 CURVE SMOOTH",
"341 -150 OFFCURVE",
"388 -193 OFFCURVE",
"456 -193 CURVE SMOOTH",
"487 -193 OFFCURVE",
"515 -185 OFFCURVE",
"536 -170 CURVE",
"520 -131 LINE",
"499 -142 OFFCURVE",
"478 -149 OFFCURVE",
"461 -149 CURVE SMOOTH",
"418 -149 OFFCURVE",
"392 -124 OFFCURVE",
"392 -83 CURVE SMOOTH",
"392 -40 OFFCURVE",
"418 -11 OFFCURVE",
"469 3 CURVE SMOOTH"
);
},
{
closed = 1;
nodes = (
"121 556 OFFCURVE",
"216 670 OFFCURVE",
"379 670 CURVE SMOOTH",
"543 670 OFFCURVE",
"637 557 OFFCURVE",
"637 357 CURVE SMOOTH",
"637 157 OFFCURVE",
"542 42 OFFCURVE",
"379 42 CURVE SMOOTH",
"216 42 OFFCURVE",
"121 158 OFFCURVE",
"121 357 CURVE SMOOTH"
);
}
);
};
layerId = "9E718F8A-2CEA-4931-B05D-987794BD97DA";
paths = (
{
closed = 1;
nodes = (
"613 43 OFFCURVE",
"695 170 OFFCURVE",
"695 357 CURVE SMOOTH",
"695 582 OFFCURVE",
"574 720 OFFCURVE",
"379 720 CURVE SMOOTH",
"184 720 OFFCURVE",
"64 582 OFFCURVE",
"64 356 CURVE SMOOTH",
"64 120 OFFCURVE",
"198 -21 OFFCURVE",
"406 -7 CURVE",
"398 11 LINE",
"363 -11 OFFCURVE",
"341 -48 OFFCURVE",
"341 -89 CURVE SMOOTH",
"341 -150 OFFCURVE",
"388 -193 OFFCURVE",
"456 -193 CURVE SMOOTH",
"487 -193 OFFCURVE",
"515 -185 OFFCURVE",
"536 -170 CURVE",
"520 -131 LINE",
"499 -142 OFFCURVE",
"478 -149 OFFCURVE",
"461 -149 CURVE SMOOTH",
"418 -149 OFFCURVE",
"392 -124 OFFCURVE",
"392 -83 CURVE SMOOTH",
"392 -40 OFFCURVE",
"418 -11 OFFCURVE",
"469 3 CURVE SMOOTH"
);
},
{
closed = 1;
nodes = (
"121 556 OFFCURVE",
"216 670 OFFCURVE",
"379 670 CURVE SMOOTH",
"543 670 OFFCURVE",
"637 557 OFFCURVE",
"637 357 CURVE SMOOTH",
"637 157 OFFCURVE",
"542 42 OFFCURVE",
"379 42 CURVE SMOOTH",
"216 42 OFFCURVE",
"121 158 OFFCURVE",
"121 357 CURVE SMOOTH"
);
}
);
width = 763;
},
{
anchors = (
{
name = top;
position = "{396, 712}";
}
);
background = {
anchors = (
{
name = top;
position = "{396, 712}";
}
);
paths = (
{
closed = 1;
nodes = (
"660 49 OFFCURVE",
"745 177 OFFCURVE",
"745 357 CURVE SMOOTH",
"745 580 OFFCURVE",
"612 721 OFFCURVE",
"397 721 CURVE SMOOTH",
"182 721 OFFCURVE",
"47 580 OFFCURVE",
"47 357 CURVE SMOOTH",
"47 126 OFFCURVE",
"190 -16 OFFCURVE",
"413 -9 CURVE",
"400 12 LINE",
"366 -11 OFFCURVE",
"346 -48 OFFCURVE",
"346 -88 CURVE SMOOTH",
"346 -153 OFFCURVE",
"400 -199 OFFCURVE",
"476 -199 CURVE SMOOTH",
"512 -199 OFFCURVE",
"547 -192 OFFCURVE",
"578 -179 CURVE",
"561 -106 LINE",
"541 -114 OFFCURVE",
"523 -118 OFFCURVE",
"506 -118 CURVE SMOOTH",
"468 -118 OFFCURVE",
"446 -100 OFFCURVE",
"446 -65 CURVE SMOOTH",
"446 -31 OFFCURVE",
"468 -8 OFFCURVE",
"510 5 CURVE SMOOTH"
);
},
{
closed = 1;
nodes = (
"210 515 OFFCURVE",
"282 595 OFFCURVE",
"397 595 CURVE SMOOTH",
"512 595 OFFCURVE",
"584 514 OFFCURVE",
"584 357 CURVE SMOOTH",
"584 199 OFFCURVE",
"512 117 OFFCURVE",
"397 117 CURVE SMOOTH",
"282 117 OFFCURVE",
"210 198 OFFCURVE",
"210 357 CURVE SMOOTH"
);
}
);
};
layerId = "E1B555A7-F4E1-459C-9C1A-AE952106EEF9";
paths = (
{
closed = 1;
nodes = (
"660 49 OFFCURVE",
"745 177 OFFCURVE",
"745 357 CURVE SMOOTH",
"745 580 OFFCURVE",
"612 721 OFFCURVE",
"397 721 CURVE SMOOTH",
"182 721 OFFCURVE",
"47 580 OFFCURVE",
"47 357 CURVE SMOOTH",
"47 126 OFFCURVE",
"190 -16 OFFCURVE",
"413 -9 CURVE",
"400 12 LINE",
"366 -11 OFFCURVE",
"346 -48 OFFCURVE",
"346 -88 CURVE SMOOTH",
"346 -153 OFFCURVE",
"400 -199 OFFCURVE",
"476 -199 CURVE SMOOTH",
"512 -199 OFFCURVE",
"547 -192 OFFCURVE",
"578 -179 CURVE",
"561 -106 LINE",
"541 -114 OFFCURVE",
"523 -118 OFFCURVE",
"506 -118 CURVE SMOOTH",
"468 -118 OFFCURVE",
"446 -100 OFFCURVE",
"446 -65 CURVE SMOOTH",
"446 -31 OFFCURVE",
"468 -8 OFFCURVE",
"510 5 CURVE SMOOTH"
);
},
{
closed = 1;
nodes = (
"210 515 OFFCURVE",
"282 595 OFFCURVE",
"397 595 CURVE SMOOTH",
"512 595 OFFCURVE",
"584 514 OFFCURVE",
"584 357 CURVE SMOOTH",
"584 199 OFFCURVE",
"512 117 OFFCURVE",
"397 117 CURVE SMOOTH",
"282 117 OFFCURVE",
"210 198 OFFCURVE",
"210 357 CURVE SMOOTH"
);
}
);
width = 797;
}
);
leftKerningGroup = O;
rightKerningGroup = O;
unicode = 01EA;
},
{
glyphname = OE;
lastChange = "2019-01-29 12:30:49 +0000";
layers = (
{
anchors = (
{
name = bottom;
position = "{535, 0}";
},
{
name = top;
position = "{534, 712}";
}
);
background = {
anchors = (
{
name = bottom;
position = "{535, 0}";
},
{
name = top;
position = "{534, 712}";
}
);
paths = (
{
closed = 1;
nodes = (
"1000 0 LINE",
"1000 48 LINE",
"619 48 LINE",
"619 337 LINE",
"980 337 LINE",
"980 386 LINE",
"619 386 LINE",
"619 664 LINE",
"1000 664 LINE",
"1000 712 LINE",
"566 712 LINE",
"566 645 LINE",
"565 629 LINE",
"565 86 LINE",
"566 67 LINE",
"566 0 LINE"
);
},
{
closed = 1;
nodes = (
"582 651 LINE",
"528 697 OFFCURVE",
"460 720 OFFCURVE",
"379 720 CURVE SMOOTH",
"183 720 OFFCURVE",
"64 582 OFFCURVE",
"64 356 CURVE SMOOTH",
"64 131 OFFCURVE",
"185 -8 OFFCURVE",
"379 -8 CURVE SMOOTH",
"461 -8 OFFCURVE",
"528 15 OFFCURVE",
"582 62 CURVE",
"582 125 LINE",
"536 71 OFFCURVE",
"467 42 OFFCURVE",
"379 42 CURVE SMOOTH",
"216 42 OFFCURVE",
"121 158 OFFCURVE",
"121 357 CURVE SMOOTH",
"121 554 OFFCURVE",
"215 670 OFFCURVE",
"379 670 CURVE SMOOTH",
"467 670 OFFCURVE",
"536 641 OFFCURVE",
"582 588 CURVE"
);
}
);
};
layerId = "9E718F8A-2CEA-4931-B05D-987794BD97DA";
paths = (
{
closed = 1;
nodes = (
"1000 0 LINE",
"1000 48 LINE",
"619 48 LINE",
"619 337 LINE",
"980 337 LINE",
"980 386 LINE",
"619 386 LINE",
"619 664 LINE",
"1000 664 LINE",
"1000 712 LINE",
"566 712 LINE",
"566 645 LINE",
"565 629 LINE",
"565 86 LINE",
"566 67 LINE",
"566 0 LINE"
);
},
{
closed = 1;
nodes = (
"582 651 LINE",
"528 697 OFFCURVE",
"460 720 OFFCURVE",
"379 720 CURVE SMOOTH",
"183 720 OFFCURVE",
"64 582 OFFCURVE",
"64 356 CURVE SMOOTH",
"64 131 OFFCURVE",
"185 -8 OFFCURVE",
"379 -8 CURVE SMOOTH",
"461 -8 OFFCURVE",
"528 15 OFFCURVE",
"582 62 CURVE",
"582 125 LINE",
"536 71 OFFCURVE",
"467 42 OFFCURVE",
"379 42 CURVE SMOOTH",
"216 42 OFFCURVE",
"121 158 OFFCURVE",
"121 357 CURVE SMOOTH",
"121 554 OFFCURVE",
"215 670 OFFCURVE",
"379 670 CURVE SMOOTH",
"467 670 OFFCURVE",
"536 641 OFFCURVE",
"582 588 CURVE"
);
}
);
width = 1057;
},
{
anchors = (
{
name = bottom;
position = "{532, 0}";
},
{
name = top;
position = "{532, 712}";
}
);
background = {
anchors = (
{
name = bottom;
position = "{532, 0}";
},
{
name = top;
position = "{532, 712}";
}
);
paths = (
{
closed = 1;
nodes = (
"1016 0 LINE",
"1016 126 LINE",
"681 126 LINE",
"681 299 LINE",
"996 299 LINE",
"996 425 LINE",
"681 425 LINE",
"681 586 LINE",
"1016 586 LINE",
"1016 712 LINE",
"532 712 LINE",
"532 632 LINE",
"522 613 LINE",
"522 111 LINE",
"532 77 LINE",
"532 0 LINE"
);
},
{
closed = 1;
nodes = (
"557 654 LINE",
"521 698 OFFCURVE",
"459 721 OFFCURVE",
"377 721 CURVE SMOOTH",
"183 721 OFFCURVE",
"47 571 OFFCURVE",
"47 357 CURVE SMOOTH",
"47 141 OFFCURVE",
"183 -9 OFFCURVE",
"377 -9 CURVE SMOOTH",
"460 -9 OFFCURVE",
"521 15 OFFCURVE",
"557 61 CURVE",
"557 185 LINE",
"526 140 OFFCURVE",
"471 117 OFFCURVE",
"397 117 CURVE SMOOTH",
"278 117 OFFCURVE",
"210 203 OFFCURVE",
"210 357 CURVE SMOOTH",
"210 509 OFFCURVE",
"277 595 OFFCURVE",
"397 595 CURVE SMOOTH",
"471 595 OFFCURVE",
"526 572 OFFCURVE",
"557 527 CURVE"
);
}
);
};
layerId = "E1B555A7-F4E1-459C-9C1A-AE952106EEF9";
paths = (
{
closed = 1;
nodes = (
"1016 0 LINE",
"1016 126 LINE",
"681 126 LINE",
"681 299 LINE",
"996 299 LINE",
"996 425 LINE",
"681 425 LINE",
"681 586 LINE",
"1016 586 LINE",
"1016 712 LINE",
"532 712 LINE",
"532 632 LINE",
"522 613 LINE",
"522 111 LINE",
"532 77 LINE",
"532 0 LINE"
);
},
{
closed = 1;
nodes = (
"557 654 LINE",
"521 698 OFFCURVE",
"459 721 OFFCURVE",
"377 721 CURVE SMOOTH",
"183 721 OFFCURVE",
"47 571 OFFCURVE",
"47 357 CURVE SMOOTH",
"47 141 OFFCURVE",
"183 -9 OFFCURVE",
"377 -9 CURVE SMOOTH",
"460 -9 OFFCURVE",
"521 15 OFFCURVE",
"557 61 CURVE",
"557 185 LINE",
"526 140 OFFCURVE",
"471 117 OFFCURVE",
"397 117 CURVE SMOOTH",
"278 117 OFFCURVE",
"210 203 OFFCURVE",
"210 357 CURVE SMOOTH",
"210 509 OFFCURVE",
"277 595 OFFCURVE",
"397 595 CURVE SMOOTH",
"471 595 OFFCURVE",
"526 572 OFFCURVE",
"557 527 CURVE"
);
}
);
width = 1054;
}
);
leftKerningGroup = O;
rightKerningGroup = E;
unicode = 0152;
},
{
glyphname = P;
lastChange = "2019-01-29 12:30:49 +0000";
layers = (
{
anchors = (
{
name = bottom;
position = "{319, 0}";
},
{
name = top;
position = "{319, 712}";
}
);
background = {
anchors = (
{
name = bottom;
position = "{319, 0}";
},
{
name = top;
position = "{319, 712}";
}
);
paths = (
{
closed = 1;
nodes = (
"146 0 LINE",
"146 322 LINE",
"362 322 LINE SMOOTH",
"503 322 OFFCURVE",
"589 397 OFFCURVE",
"589 518 CURVE SMOOTH",
"589 639 OFFCURVE",
"504 712 OFFCURVE",
"362 712 CURVE SMOOTH",
"92 712 LINE",
"92 0 LINE"
);
},
{
closed = 1;
nodes = (
"146 664 LINE",
"359 664 LINE SMOOTH",
"474 664 OFFCURVE",
"533 611 OFFCURVE",
"533 518 CURVE SMOOTH",
"533 425 OFFCURVE",
"474 371 OFFCURVE",
"359 371 CURVE SMOOTH",
"146 371 LINE"
);
}
);
};
layerId = "9E718F8A-2CEA-4931-B05D-987794BD97DA";
paths = (
{
closed = 1;
nodes = (
"146 0 LINE",
"146 322 LINE",
"362 322 LINE SMOOTH",
"503 322 OFFCURVE",
"589 397 OFFCURVE",
"589 518 CURVE SMOOTH",
"589 639 OFFCURVE",
"504 712 OFFCURVE",
"362 712 CURVE SMOOTH",
"92 712 LINE",
"92 0 LINE"
);
},
{
closed = 1;
nodes = (
"146 664 LINE",
"359 664 LINE SMOOTH",
"474 664 OFFCURVE",
"533 611 OFFCURVE",
"533 518 CURVE SMOOTH",
"533 425 OFFCURVE",
"474 371 OFFCURVE",
"359 371 CURVE SMOOTH",
"146 371 LINE"
);
}
);
width = 642;
},
{
anchors = (
{
name = bottom;
position = "{339, 0}";
},
{
name = top;
position = "{338, 712}";
}
);
background = {
anchors = (
{
name = bottom;
position = "{339, 0}";
},
{
name = top;
position = "{338, 712}";
}
);
paths = (
{
closed = 1;
nodes = (
"230 0 LINE",
"230 286 LINE",
"394 286 LINE SMOOTH",
"552 286 OFFCURVE",
"644 370 OFFCURVE",
"644 499 CURVE SMOOTH",
"644 629 OFFCURVE",
"554 712 OFFCURVE",
"394 712 CURVE SMOOTH",
"68 712 LINE",
"68 0 LINE"
);
},
{
closed = 1;
nodes = (
"230 588 LINE",
"373 588 LINE SMOOTH",
"455 588 OFFCURVE",
"492 556 OFFCURVE",
"492 498 CURVE SMOOTH",
"492 441 OFFCURVE",
"454 409 OFFCURVE",
"373 409 CURVE SMOOTH",
"230 409 LINE"
);
}
);
};
layerId = "E1B555A7-F4E1-459C-9C1A-AE952106EEF9";
paths = (
{
closed = 1;
nodes = (
"230 0 LINE",
"230 286 LINE",
"394 286 LINE SMOOTH",
"552 286 OFFCURVE",
"644 370 OFFCURVE",
"644 499 CURVE SMOOTH",
"644 629 OFFCURVE",
"554 712 OFFCURVE",
"394 712 CURVE SMOOTH",
"68 712 LINE",
"68 0 LINE"
);
},
{
closed = 1;
nodes = (
"230 588 LINE",
"373 588 LINE SMOOTH",
"455 588 OFFCURVE",
"492 556 OFFCURVE",
"492 498 CURVE SMOOTH",
"492 441 OFFCURVE",
"454 409 OFFCURVE",
"373 409 CURVE SMOOTH",
"230 409 LINE"
);
}
);
width = 677;
}
);
leftKerningGroup = H;
rightKerningGroup = P;
unicode = 0050;
userData = {
anchors = (
);
b = {
};
com.typemytype.robofont.layerData = {
b = {
anchors = (
);
components = (
);
contours = (
{
points = (
{
segmentType = curve;
smooth = 1;
x = 266;
y = 0;
},
{
segmentType = line;
smooth = 1;
x = 1035;
y = 0;
},
{
smooth = 0;
x = 1084;
y = 0;
},
{
smooth = 0;
x = 1108;
y = 34;
},
{
segmentType = curve;
smooth = 1;
x = 1108;
y = 71;
},
{
smooth = 0;
x = 1108;
y = 107;
},
{
smooth = 0;
x = 1084;
y = 141;
},
{
segmentType = curve;
smooth = 1;
x = 1035;
y = 141;
},
{
segmentType = line;
smooth = 0;
x = 356;
y = 141;
},
{
segmentType = line;
smooth = 0;
x = 356;
y = 665;
},
{
segmentType = line;
smooth = 1;
x = 975;
y = 665;
},
{
smooth = 0;
x = 1024;
y = 665;
},
{
smooth = 0;
x = 1049;
y = 698;
},
{
segmentType = curve;
smooth = 1;
x = 1049;
y = 734;
},
{
smooth = 0;
x = 1049;
y = 770;
},
{
smooth = 0;
x = 1026;
y = 803;
},
{
segmentType = curve;
smooth = 1;
x = 975;
y = 803;
},
{
segmentType = line;
smooth = 0;
x = 356;
y = 803;
},
{
segmentType = line;
smooth = 0;
x = 356;
y = 1285;
},
{
segmentType = line;
smooth = 1;
x = 1007;
y = 1285;
},
{
smooth = 0;
x = 1056;
y = 1285;
},
{
smooth = 0;
x = 1080;
y = 1319;
},
{
segmentType = curve;
smooth = 1;
x = 1080;
y = 1356;
},
{
smooth = 0;
x = 1080;
y = 1392;
},
{
smooth = 0;
x = 1056;
y = 1426;
},
{
segmentType = curve;
smooth = 1;
x = 1007;
y = 1426;
},
{
segmentType = line;
smooth = 1;
x = 261;
y = 1426;
},
{
smooth = 0;
x = 213;
y = 1426;
},
{
smooth = 0;
x = 178;
y = 1383;
},
{
segmentType = curve;
smooth = 1;
x = 178;
y = 1340;
},
{
segmentType = line;
smooth = 1;
x = 178;
y = 86;
},
{
smooth = 0;
x = 178;
y = 41;
},
{
smooth = 0;
x = 222;
y = 0;
}
);
}
);
lib = {
};
name = P;
unicodes = (
);
width = 1201;
};
};
components = (
);
contours = (
);
lib = {
};
name = P;
unicodes = (
);
width = 1319;
};
},
{
glyphname = Thorn;
lastChange = "2019-01-29 12:30:49 +0000";
layers = (
{
anchors = (
{
name = bottom;
position = "{319, 0}";
},
{
name = top;
position = "{319, 712}";
}
);
background = {
anchors = (
{
name = bottom;
position = "{319, 0}";
},
{
name = top;
position = "{319, 712}";
}
);
paths = (
{
closed = 1;
nodes = (
"367 174 LINE SMOOTH",
"507 174 OFFCURVE",
"589 243 OFFCURVE",
"589 364 CURVE SMOOTH",
"589 483 OFFCURVE",
"509 550 OFFCURVE",
"367 550 CURVE SMOOTH",
"135 550 LINE",
"135 502 LINE",
"364 502 LINE SMOOTH",
"479 502 OFFCURVE",
"533 458 OFFCURVE",
"533 364 CURVE SMOOTH",
"533 269 OFFCURVE",
"478 222 OFFCURVE",
"364 222 CURVE SMOOTH",
"135 222 LINE",
"135 174 LINE"
);
},
{
closed = 1;
nodes = (
"146 0 LINE",
"146 712 LINE",
"92 712 LINE",
"92 0 LINE"
);
}
);
};
layerId = "9E718F8A-2CEA-4931-B05D-987794BD97DA";
paths = (
{
closed = 1;
nodes = (
"367 174 LINE SMOOTH",
"507 174 OFFCURVE",
"589 243 OFFCURVE",
"589 364 CURVE SMOOTH",
"589 483 OFFCURVE",
"509 550 OFFCURVE",
"367 550 CURVE SMOOTH",
"135 550 LINE",
"135 502 LINE",
"364 502 LINE SMOOTH",
"479 502 OFFCURVE",
"533 458 OFFCURVE",
"533 364 CURVE SMOOTH",
"533 269 OFFCURVE",
"478 222 OFFCURVE",
"364 222 CURVE SMOOTH",
"135 222 LINE",
"135 174 LINE"
);
},
{
closed = 1;
nodes = (
"146 0 LINE",
"146 712 LINE",
"92 712 LINE",
"92 0 LINE"
);
}
);
width = 642;
},
{
anchors = (
{
name = bottom;
position = "{339, 0}";
},
{
name = top;
position = "{338, 712}";
}
);
background = {
anchors = (
{
name = bottom;
position = "{339, 0}";
},
{
name = top;
position = "{338, 712}";
}
);
paths = (
{
closed = 1;
nodes = (
"399 154 LINE SMOOTH",
"551 154 OFFCURVE",
"644 232 OFFCURVE",
"644 362 CURVE SMOOTH",
"644 492 OFFCURVE",
"554 570 OFFCURVE",
"399 570 CURVE SMOOTH",
"207 570 LINE",
"207 445 LINE",
"372 445 LINE SMOOTH",
"455 445 OFFCURVE",
"492 420 OFFCURVE",
"492 362 CURVE SMOOTH",
"492 303 OFFCURVE",
"455 278 OFFCURVE",
"372 278 CURVE SMOOTH",
"207 278 LINE",
"207 154 LINE"
);
},
{
closed = 1;
nodes = (
"227 0 LINE",
"227 712 LINE",
"68 712 LINE",
"68 0 LINE"
);
}
);
};
layerId = "E1B555A7-F4E1-459C-9C1A-AE952106EEF9";
paths = (
{
closed = 1;
nodes = (
"399 154 LINE SMOOTH",
"551 154 OFFCURVE",
"644 232 OFFCURVE",
"644 362 CURVE SMOOTH",
"644 492 OFFCURVE",
"554 570 OFFCURVE",
"399 570 CURVE SMOOTH",
"207 570 LINE",
"207 445 LINE",
"372 445 LINE SMOOTH",
"455 445 OFFCURVE",
"492 420 OFFCURVE",
"492 362 CURVE SMOOTH",
"492 303 OFFCURVE",
"455 278 OFFCURVE",
"372 278 CURVE SMOOTH",
"207 278 LINE",
"207 154 LINE"
);
},
{
closed = 1;
nodes = (
"227 0 LINE",
"227 712 LINE",
"68 712 LINE",
"68 0 LINE"
);
}
);
width = 678;
}
);
leftKerningGroup = H;
rightKerningGroup = THORN;
unicode = 00DE;
},
{
glyphname = Q;
lastChange = "2019-01-29 12:30:49 +0000";
layers = (
{
anchors = (
{
name = bottom;
position = "{379, 0}";
},
{
name = center;
position = "{380, 357}";
},
{
name = ogonek;
position = "{485, 10}";
},
{
name = top;
position = "{379, 712}";
},
{
name = topleft;
position = "{24, 712}";
},
{
name = topright;
position = "{409, 712}";
}
);
background = {
anchors = (
{
name = bottom;
position = "{379, 0}";
},
{
name = center;
position = "{380, 357}";
},
{
name = ogonek;
position = "{485, 10}";
},
{
name = top;
position = "{379, 712}";
},
{
name = topleft;
position = "{24, 712}";
},
{
name = topright;
position = "{409, 712}";
}
);
paths = (
{
closed = 1;
nodes = (
"609 -149 LINE",
"558 -106 OFFCURVE",
"512 -55 OFFCURVE",
"476 12 CURVE",
"418 -4 LINE",
"459 -75 OFFCURVE",
"518 -150 OFFCURVE",
"571 -191 CURVE"
);
},
{
closed = 1;
nodes = (
"574 -8 OFFCURVE",
"695 131 OFFCURVE",
"695 357 CURVE SMOOTH",
"695 582 OFFCURVE",
"575 720 OFFCURVE",
"379 720 CURVE SMOOTH",
"183 720 OFFCURVE",
"64 582 OFFCURVE",
"64 356 CURVE SMOOTH",
"64 131 OFFCURVE",
"185 -8 OFFCURVE",
"379 -8 CURVE SMOOTH"
);
},
{
closed = 1;
nodes = (
"216 42 OFFCURVE",
"121 158 OFFCURVE",
"121 357 CURVE SMOOTH",
"121 556 OFFCURVE",
"216 670 OFFCURVE",
"379 670 CURVE SMOOTH",
"543 670 OFFCURVE",
"637 557 OFFCURVE",
"637 357 CURVE SMOOTH",
"637 157 OFFCURVE",
"542 42 OFFCURVE",
"379 42 CURVE SMOOTH"
);
}
);
};
layerId = "9E718F8A-2CEA-4931-B05D-987794BD97DA";
paths = (
{
closed = 1;
nodes = (
"609 -149 LINE",
"558 -106 OFFCURVE",
"512 -55 OFFCURVE",
"476 12 CURVE",
"418 -4 LINE",
"459 -75 OFFCURVE",
"518 -150 OFFCURVE",
"571 -191 CURVE"
);
},
{
closed = 1;
nodes = (
"574 -8 OFFCURVE",
"695 131 OFFCURVE",
"695 357 CURVE SMOOTH",
"695 582 OFFCURVE",
"575 720 OFFCURVE",
"379 720 CURVE SMOOTH",
"183 720 OFFCURVE",
"64 582 OFFCURVE",
"64 356 CURVE SMOOTH",
"64 131 OFFCURVE",
"185 -8 OFFCURVE",
"379 -8 CURVE SMOOTH"
);
},
{
closed = 1;
nodes = (
"216 42 OFFCURVE",
"121 158 OFFCURVE",
"121 357 CURVE SMOOTH",
"121 556 OFFCURVE",
"216 670 OFFCURVE",
"379 670 CURVE SMOOTH",
"543 670 OFFCURVE",
"637 557 OFFCURVE",
"637 357 CURVE SMOOTH",
"637 157 OFFCURVE",
"542 42 OFFCURVE",
"379 42 CURVE SMOOTH"
);
}
);
width = 763;
},
{
anchors = (
{
name = bottom;
position = "{397, 0}";
},
{
name = center;
position = "{397, 357}";
},
{
name = ogonek;
position = "{516, 10}";
},
{
name = top;
position = "{396, 712}";
},
{
name = topleft;
position = "{20, 712}";
},
{
name = topright;
position = "{427, 712}";
}
);
background = {
anchors = (
{
name = bottom;
position = "{397, 0}";
},
{
name = center;
position = "{397, 357}";
},
{
name = ogonek;
position = "{516, 10}";
},
{
name = top;
position = "{396, 712}";
},
{
name = topleft;
position = "{20, 712}";
},
{
name = topright;
position = "{427, 712}";
}
);
paths = (
{
closed = 1;
nodes = (
"700 -109 LINE",
"648 -66 OFFCURVE",
"591 -14 OFFCURVE",
"559 53 CURVE",
"418 -4 LINE",
"459 -75 OFFCURVE",
"518 -142 OFFCURVE",
"591 -191 CURVE"
);
},
{
closed = 1;
nodes = (
"612 -9 OFFCURVE",
"745 133 OFFCURVE",
"745 357 CURVE SMOOTH",
"745 580 OFFCURVE",
"612 721 OFFCURVE",
"397 721 CURVE SMOOTH",
"182 721 OFFCURVE",
"47 580 OFFCURVE",
"47 357 CURVE SMOOTH",
"47 133 OFFCURVE",
"182 -9 OFFCURVE",
"397 -9 CURVE SMOOTH"
);
},
{
closed = 1;
nodes = (
"282 117 OFFCURVE",
"210 198 OFFCURVE",
"210 357 CURVE SMOOTH",
"210 515 OFFCURVE",
"282 595 OFFCURVE",
"397 595 CURVE SMOOTH",
"512 595 OFFCURVE",
"584 514 OFFCURVE",
"584 357 CURVE SMOOTH",
"584 199 OFFCURVE",
"512 117 OFFCURVE",
"397 117 CURVE SMOOTH"
);
}
);
};
layerId = "E1B555A7-F4E1-459C-9C1A-AE952106EEF9";
paths = (
{
closed = 1;
nodes = (
"700 -109 LINE",
"648 -66 OFFCURVE",
"591 -14 OFFCURVE",
"559 53 CURVE",
"418 -4 LINE",
"459 -75 OFFCURVE",
"518 -142 OFFCURVE",
"591 -191 CURVE"
);
},
{
closed = 1;
nodes = (
"612 -9 OFFCURVE",
"745 133 OFFCURVE",
"745 357 CURVE SMOOTH",
"745 580 OFFCURVE",
"612 721 OFFCURVE",
"397 721 CURVE SMOOTH",
"182 721 OFFCURVE",
"47 580 OFFCURVE",
"47 357 CURVE SMOOTH",
"47 133 OFFCURVE",
"182 -9 OFFCURVE",
"397 -9 CURVE SMOOTH"
);
},
{
closed = 1;
nodes = (
"282 117 OFFCURVE",
"210 198 OFFCURVE",
"210 357 CURVE SMOOTH",
"210 515 OFFCURVE",
"282 595 OFFCURVE",
"397 595 CURVE SMOOTH",
"512 595 OFFCURVE",
"584 514 OFFCURVE",
"584 357 CURVE SMOOTH",
"584 199 OFFCURVE",
"512 117 OFFCURVE",
"397 117 CURVE SMOOTH"
);
}
);
width = 797;
}
);
leftKerningGroup = O;
rightKerningGroup = O;
unicode = 0051;
userData = {
anchors = (
);
b = {
};
com.typemytype.robofont.layerData = {
b = {
anchors = (
);
components = (
);
contours = (
);
lib = {
};
name = Q;
unicodes = (
);
width = 1597;
};
};
components = (
);
contours = (
);
lib = {
};
name = Q;
unicodes = (
);
width = 1604;
};
},
{
glyphname = R;
lastChange = "2019-01-29 12:30:49 +0000";
layers = (
{
anchors = (
{
name = bottom;
position = "{337, 0}";
},
{
name = top;
position = "{337, 712}";
}
);
background = {
anchors = (
{
name = bottom;
position = "{337, 0}";
},
{
name = top;
position = "{337, 712}";
}
);
paths = (
{
closed = 1;
nodes = (
"146 0 LINE",
"146 320 LINE",
"353 320 LINE SMOOTH",
"427 320 OFFCURVE",
"466 306 OFFCURVE",
"491 237 CURVE SMOOTH",
"579 0 LINE",
"635 0 LINE",
"544 249 LINE SMOOTH",
"521 313 OFFCURVE",
"485 339 OFFCURVE",
"432 339 CURVE",
"362 326 LINE",
"509 326 OFFCURVE",
"595 397 OFFCURVE",
"595 518 CURVE SMOOTH",
"595 644 OFFCURVE",
"510 712 OFFCURVE",
"363 712 CURVE SMOOTH",
"92 712 LINE",
"92 0 LINE"
);
},
{
closed = 1;
nodes = (
"146 664 LINE",
"361 664 LINE SMOOTH",
"482 664 OFFCURVE",
"539 615 OFFCURVE",
"539 519 CURVE SMOOTH",
"539 420 OFFCURVE",
"480 369 OFFCURVE",
"361 369 CURVE SMOOTH",
"146 369 LINE"
);
}
);
};
layerId = "9E718F8A-2CEA-4931-B05D-987794BD97DA";
paths = (
{
closed = 1;
nodes = (
"146 0 LINE",
"146 320 LINE",
"353 320 LINE SMOOTH",
"427 320 OFFCURVE",
"466 306 OFFCURVE",
"491 237 CURVE SMOOTH",
"579 0 LINE",
"635 0 LINE",
"544 249 LINE SMOOTH",
"521 313 OFFCURVE",
"485 339 OFFCURVE",
"432 339 CURVE",
"362 326 LINE",
"509 326 OFFCURVE",
"595 397 OFFCURVE",
"595 518 CURVE SMOOTH",
"595 644 OFFCURVE",
"510 712 OFFCURVE",
"363 712 CURVE SMOOTH",
"92 712 LINE",
"92 0 LINE"
);
},
{
closed = 1;
nodes = (
"146 664 LINE",
"361 664 LINE SMOOTH",
"482 664 OFFCURVE",
"539 615 OFFCURVE",
"539 519 CURVE SMOOTH",
"539 420 OFFCURVE",
"480 369 OFFCURVE",
"361 369 CURVE SMOOTH",
"146 369 LINE"
);
}
);
width = 687;
},
{
anchors = (
{
name = bottom;
position = "{356, 0}";
},
{
name = top;
position = "{355, 712}";
}
);
background = {
anchors = (
{
name = bottom;
position = "{356, 0}";
},
{
name = top;
position = "{355, 712}";
}
);
paths = (
{
closed = 1;
nodes = (
"228 0 LINE",
"228 285 LINE",
"322 285 LINE SMOOTH",
"362 285 OFFCURVE",
"395 274 OFFCURVE",
"409 237 CURVE SMOOTH",
"500 0 LINE",
"672 0 LINE",
"587 219 LINE SMOOTH",
"564 279 OFFCURVE",
"522 308 OFFCURVE",
"473 308 CURVE",
"390 291 LINE",
"548 291 OFFCURVE",
"641 375 OFFCURVE",
"641 502 CURVE SMOOTH",
"641 636 OFFCURVE",
"556 712 OFFCURVE",
"387 712 CURVE SMOOTH",
"68 712 LINE",
"68 0 LINE"
);
},
{
closed = 1;
nodes = (
"226 588 LINE",
"363 588 LINE SMOOTH",
"451 588 OFFCURVE",
"489 560 OFFCURVE",
"489 498 CURVE SMOOTH",
"489 437 OFFCURVE",
"451 408 OFFCURVE",
"363 408 CURVE SMOOTH",
"226 408 LINE"
);
}
);
};
layerId = "E1B555A7-F4E1-459C-9C1A-AE952106EEF9";
paths = (
{
closed = 1;
nodes = (
"228 0 LINE",
"228 285 LINE",
"322 285 LINE SMOOTH",
"362 285 OFFCURVE",
"395 274 OFFCURVE",
"409 237 CURVE SMOOTH",
"500 0 LINE",
"672 0 LINE",
"587 219 LINE SMOOTH",
"564 279 OFFCURVE",
"522 308 OFFCURVE",
"473 308 CURVE",
"390 291 LINE",
"548 291 OFFCURVE",
"641 375 OFFCURVE",
"641 502 CURVE SMOOTH",
"641 636 OFFCURVE",
"556 712 OFFCURVE",
"387 712 CURVE SMOOTH",
"68 712 LINE",
"68 0 LINE"
);
},
{
closed = 1;
nodes = (
"226 588 LINE",
"363 588 LINE SMOOTH",
"451 588 OFFCURVE",
"489 560 OFFCURVE",
"489 498 CURVE SMOOTH",
"489 437 OFFCURVE",
"451 408 OFFCURVE",
"363 408 CURVE SMOOTH",
"226 408 LINE"
);
}
);
width = 709;
}
);
leftKerningGroup = H;
rightKerningGroup = R;
unicode = 0052;
userData = {
anchors = (
);
b = {
};
com.typemytype.robofont.guides = (
);
com.typemytype.robofont.layerData = {
b = {
anchors = (
);
components = (
);
contours = (
{
points = (
{
segmentType = curve;
smooth = 1;
x = 267;
y = 0;
},
{
smooth = 0;
x = 311;
y = 0;
},
{
smooth = 0;
x = 356;
y = 27;
},
{
segmentType = curve;
smooth = 1;
x = 356;
y = 84;
},
{
segmentType = line;
smooth = 0;
x = 356;
y = 628;
},
{
segmentType = line;
smooth = 1;
x = 669;
y = 628;
},
{
smooth = 0;
x = 962;
y = 628;
},
{
smooth = 0;
x = 1182;
y = 722;
},
{
segmentType = curve;
smooth = 1;
x = 1182;
y = 1026;
},
{
smooth = 0;
x = 1182;
y = 1324;
},
{
smooth = 0;
x = 993;
y = 1426;
},
{
segmentType = curve;
smooth = 1;
x = 684;
y = 1426;
},
{
segmentType = line;
smooth = 1;
x = 268;
y = 1426;
},
{
smooth = 0;
x = 217;
y = 1426;
},
{
smooth = 0;
x = 178;
y = 1387;
},
{
segmentType = curve;
smooth = 1;
x = 178;
y = 1339;
},
{
segmentType = line;
smooth = 1;
x = 178;
y = 84;
},
{
smooth = 0;
x = 178;
y = 28;
},
{
smooth = 0;
x = 222;
y = 0;
}
);
},
{
points = (
{
segmentType = line;
smooth = 0;
x = 356;
y = 764;
},
{
segmentType = line;
smooth = 0;
x = 356;
y = 1285;
},
{
segmentType = line;
smooth = 1;
x = 684;
y = 1285;
},
{
smooth = 0;
x = 914;
y = 1285;
},
{
smooth = 0;
x = 1008;
y = 1210;
},
{
segmentType = curve;
smooth = 1;
x = 1008;
y = 1026;
},
{
smooth = 0;
x = 1008;
y = 838;
},
{
smooth = 0;
x = 901;
y = 764;
},
{
segmentType = curve;
smooth = 1;
x = 670;
y = 764;
}
);
}
);
lib = {
};
name = R;
unicodes = (
);
width = 1363;
};
};
components = (
);
contours = (
);
lib = {
};
name = R;
unicodes = (
);
width = 1408;
};
},
{
glyphname = S;
lastChange = "2019-01-29 12:30:49 +0000";
layers = (
{
anchors = (
{
name = bottom;
position = "{308, 0}";
},
{
name = top;
position = "{303, 712}";
}
);
background = {
anchors = (
{
name = bottom;
position = "{308, 0}";
},
{
name = top;
position = "{303, 712}";
}
);
paths = (
{
closed = 1;
nodes = (
"462 -8 OFFCURVE",
"560 71 OFFCURVE",
"560 187 CURVE SMOOTH",
"560 328 OFFCURVE",
"414 348 OFFCURVE",
"290 379 CURVE SMOOTH",
"197 401 OFFCURVE",
"116 430 OFFCURVE",
"116 520 CURVE SMOOTH",
"116 614 OFFCURVE",
"188 670 OFFCURVE",
"311 670 CURVE SMOOTH",
"395 670 OFFCURVE",
"461 643 OFFCURVE",
"528 582 CURVE",
"552 626 LINE",
"492 688 OFFCURVE",
"408 720 OFFCURVE",
"311 720 CURVE SMOOTH",
"158 720 OFFCURVE",
"61 640 OFFCURVE",
"61 520 CURVE SMOOTH",
"61 378 OFFCURVE",
"195 348 OFFCURVE",
"315 320 CURVE SMOOTH",
"414 297 OFFCURVE",
"504 274 OFFCURVE",
"504 188 CURVE SMOOTH",
"504 95 OFFCURVE",
"433 42 OFFCURVE",
"310 42 CURVE SMOOTH",
"209 42 OFFCURVE",
"144 66 OFFCURVE",
"73 130 CURVE",
"49 86 LINE",
"116 21 OFFCURVE",
"199 -8 OFFCURVE",
"310 -8 CURVE SMOOTH"
);
}
);
};
layerId = "9E718F8A-2CEA-4931-B05D-987794BD97DA";
paths = (
{
closed = 1;
nodes = (
"462 -8 OFFCURVE",
"560 71 OFFCURVE",
"560 187 CURVE SMOOTH",
"560 328 OFFCURVE",
"414 348 OFFCURVE",
"290 379 CURVE SMOOTH",
"197 401 OFFCURVE",
"116 430 OFFCURVE",
"116 520 CURVE SMOOTH",
"116 614 OFFCURVE",
"188 670 OFFCURVE",
"311 670 CURVE SMOOTH",
"395 670 OFFCURVE",
"461 643 OFFCURVE",
"528 582 CURVE",
"552 626 LINE",
"492 688 OFFCURVE",
"408 720 OFFCURVE",
"311 720 CURVE SMOOTH",
"158 720 OFFCURVE",
"61 640 OFFCURVE",
"61 520 CURVE SMOOTH",
"61 378 OFFCURVE",
"195 348 OFFCURVE",
"315 320 CURVE SMOOTH",
"414 297 OFFCURVE",
"504 274 OFFCURVE",
"504 188 CURVE SMOOTH",
"504 95 OFFCURVE",
"433 42 OFFCURVE",
"310 42 CURVE SMOOTH",
"209 42 OFFCURVE",
"144 66 OFFCURVE",
"73 130 CURVE",
"49 86 LINE",
"116 21 OFFCURVE",
"199 -8 OFFCURVE",
"310 -8 CURVE SMOOTH"
);
}
);
width = 610;
},
{
anchors = (
{
name = bottom;
position = "{326, 0}";
},
{
name = top;
position = "{331, 712}";
}
);
background = {
anchors = (
{
name = bottom;
position = "{326, 0}";
},
{
name = top;
position = "{331, 712}";
}
);
paths = (
{
closed = 1;
nodes = (
"507 -9 OFFCURVE",
"616 75 OFFCURVE",
"616 209 CURVE SMOOTH",
"616 320 OFFCURVE",
"543 379 OFFCURVE",
"359 419 CURVE SMOOTH",
"243 444 OFFCURVE",
"211 465 OFFCURVE",
"211 509 CURVE SMOOTH",
"211 562 OFFCURVE",
"261 595 OFFCURVE",
"339 595 CURVE SMOOTH",
"411 595 OFFCURVE",
"481 572 OFFCURVE",
"545 524 CURVE",
"597 640 LINE",
"541 690 OFFCURVE",
"439 721 OFFCURVE",
"338 721 CURVE SMOOTH",
"166 721 OFFCURVE",
"52 626 OFFCURVE",
"52 497 CURVE SMOOTH",
"52 382 OFFCURVE",
"120 323 OFFCURVE",
"309 284 CURVE SMOOTH",
"419 261 OFFCURVE",
"457 239 OFFCURVE",
"457 195 CURVE SMOOTH",
"457 146 OFFCURVE",
"409 117 OFFCURVE",
"320 117 CURVE SMOOTH",
"237 117 OFFCURVE",
"160 140 OFFCURVE",
"90 188 CURVE",
"38 72 LINE",
"104 21 OFFCURVE",
"212 -9 OFFCURVE",
"318 -9 CURVE SMOOTH"
);
}
);
};
layerId = "E1B555A7-F4E1-459C-9C1A-AE952106EEF9";
paths = (
{
closed = 1;
nodes = (
"507 -9 OFFCURVE",
"616 75 OFFCURVE",
"616 209 CURVE SMOOTH",
"616 320 OFFCURVE",
"543 379 OFFCURVE",
"359 419 CURVE SMOOTH",
"243 444 OFFCURVE",
"211 465 OFFCURVE",
"211 509 CURVE SMOOTH",
"211 562 OFFCURVE",
"261 595 OFFCURVE",
"339 595 CURVE SMOOTH",
"411 595 OFFCURVE",
"481 572 OFFCURVE",
"545 524 CURVE",
"597 640 LINE",
"541 690 OFFCURVE",
"439 721 OFFCURVE",
"338 721 CURVE SMOOTH",
"166 721 OFFCURVE",
"52 626 OFFCURVE",
"52 497 CURVE SMOOTH",
"52 382 OFFCURVE",
"120 323 OFFCURVE",
"309 284 CURVE SMOOTH",
"419 261 OFFCURVE",
"457 239 OFFCURVE",
"457 195 CURVE SMOOTH",
"457 146 OFFCURVE",
"409 117 OFFCURVE",
"320 117 CURVE SMOOTH",
"237 117 OFFCURVE",
"160 140 OFFCURVE",
"90 188 CURVE",
"38 72 LINE",
"104 21 OFFCURVE",
"212 -9 OFFCURVE",
"318 -9 CURVE SMOOTH"
);
}
);
width = 660;
}
);
leftKerningGroup = S;
rightKerningGroup = S;
unicode = 0053;
userData = {
anchors = (
);
b = {
};
com.typemytype.robofont.layerData = {
b = {
anchors = (
);
components = (
);
contours = (
);
lib = {
};
name = S;
unicodes = (
);
width = 1274;
};
};
components = (
);
contours = (
);
lib = {
};
name = S;
unicodes = (
);
width = 1317;
};
},
{
glyphname = Germandbls;
lastChange = "2019-01-29 12:30:49 +0000";
layers = (
{
background = {
paths = (
{
closed = 1;
nodes = (
"146 0 LINE",
"146 460 LINE SMOOTH",
"146 603 OFFCURVE",
"210 669 OFFCURVE",
"347 669 CURVE SMOOTH",
"453 669 OFFCURVE",
"515 617 OFFCURVE",
"515 531 CURVE SMOOTH",
"515 438 OFFCURVE",
"453 386 OFFCURVE",
"344 386 CURVE SMOOTH",
"241 386 LINE",
"241 337 LINE",
"380 337 LINE SMOOTH",
"498 337 OFFCURVE",
"562 289 OFFCURVE",
"562 195 CURVE SMOOTH",
"562 102 OFFCURVE",
"500 45 OFFCURVE",
"397 43 CURVE SMOOTH",
"343 42 OFFCURVE",
"296 61 OFFCURVE",
"240 106 CURVE",
"217 60 LINE",
"266 16 OFFCURVE",
"332 -7 OFFCURVE",
"400 -7 CURVE SMOOTH",
"530 -7 OFFCURVE",
"617 74 OFFCURVE",
"617 194 CURVE SMOOTH",
"617 293 OFFCURVE",
"558 358 OFFCURVE",
"449 374 CURVE",
"440 363 LINE",
"523 382 OFFCURVE",
"571 444 OFFCURVE",
"571 532 CURVE SMOOTH",
"571 647 OFFCURVE",
"485 719 OFFCURVE",
"347 719 CURVE SMOOTH",
"177 719 OFFCURVE",
"92 635 OFFCURVE",
"92 467 CURVE SMOOTH",
"92 0 LINE"
);
}
);
};
layerId = "9E718F8A-2CEA-4931-B05D-987794BD97DA";
paths = (
{
closed = 1;
nodes = (
"146 0 LINE",
"146 460 LINE SMOOTH",
"146 603 OFFCURVE",
"210 669 OFFCURVE",
"347 669 CURVE SMOOTH",
"453 669 OFFCURVE",
"515 617 OFFCURVE",
"515 531 CURVE SMOOTH",
"515 438 OFFCURVE",
"453 386 OFFCURVE",
"344 386 CURVE SMOOTH",
"241 386 LINE",
"241 337 LINE",
"380 337 LINE SMOOTH",
"498 337 OFFCURVE",
"562 289 OFFCURVE",
"562 195 CURVE SMOOTH",
"562 102 OFFCURVE",
"500 45 OFFCURVE",
"397 43 CURVE SMOOTH",
"343 42 OFFCURVE",
"296 61 OFFCURVE",
"240 106 CURVE",
"217 60 LINE",
"266 16 OFFCURVE",
"332 -7 OFFCURVE",
"400 -7 CURVE SMOOTH",
"530 -7 OFFCURVE",
"617 74 OFFCURVE",
"617 194 CURVE SMOOTH",
"617 293 OFFCURVE",
"558 358 OFFCURVE",
"449 374 CURVE",
"440 363 LINE",
"523 382 OFFCURVE",
"571 444 OFFCURVE",
"571 532 CURVE SMOOTH",
"571 647 OFFCURVE",
"485 719 OFFCURVE",
"347 719 CURVE SMOOTH",
"177 719 OFFCURVE",
"92 635 OFFCURVE",
"92 467 CURVE SMOOTH",
"92 0 LINE"
);
}
);
width = 687;
},
{
background = {
paths = (
{
closed = 1;
nodes = (
"227 0 LINE",
"227 448 LINE SMOOTH",
"227 542 OFFCURVE",
"277 593 OFFCURVE",
"367 593 CURVE SMOOTH",
"433 593 OFFCURVE",
"476 560 OFFCURVE",
"476 505 CURVE SMOOTH",
"476 452 OFFCURVE",
"442 423 OFFCURVE",
"377 423 CURVE SMOOTH",
"296 423 LINE",
"296 297 LINE",
"395 297 LINE SMOOTH",
"491 297 OFFCURVE",
"527 270 OFFCURVE",
"527 205 CURVE SMOOTH",
"527 148 OFFCURVE",
"496 114 OFFCURVE",
"445 114 CURVE SMOOTH",
"405 114 OFFCURVE",
"361 130 OFFCURVE",
"307 165 CURVE",
"265 51 LINE",
"318 11 OFFCURVE",
"377 -6 OFFCURVE",
"455 -6 CURVE SMOOTH",
"585 -6 OFFCURVE",
"681 81 OFFCURVE",
"681 199 CURVE SMOOTH",
"681 297 OFFCURVE",
"615 364 OFFCURVE",
"507 376 CURVE",
"507 362 LINE",
"581 384 OFFCURVE",
"627 443 OFFCURVE",
"627 519 CURVE SMOOTH",
"627 641 OFFCURVE",
"527 719 OFFCURVE",
"371 719 CURVE SMOOTH",
"179 719 OFFCURVE",
"68 619 OFFCURVE",
"68 445 CURVE SMOOTH",
"68 0 LINE"
);
}
);
};
layerId = "E1B555A7-F4E1-459C-9C1A-AE952106EEF9";
paths = (
{
closed = 1;
nodes = (
"227 0 LINE",
"227 448 LINE SMOOTH",
"227 542 OFFCURVE",
"277 593 OFFCURVE",
"367 593 CURVE SMOOTH",
"433 593 OFFCURVE",
"476 560 OFFCURVE",
"476 505 CURVE SMOOTH",
"476 452 OFFCURVE",
"442 423 OFFCURVE",
"377 423 CURVE SMOOTH",
"296 423 LINE",
"296 297 LINE",
"395 297 LINE SMOOTH",
"491 297 OFFCURVE",
"527 270 OFFCURVE",
"527 205 CURVE SMOOTH",
"527 148 OFFCURVE",
"496 114 OFFCURVE",
"445 114 CURVE SMOOTH",
"405 114 OFFCURVE",
"361 130 OFFCURVE",
"307 165 CURVE",
"265 51 LINE",
"318 11 OFFCURVE",
"377 -6 OFFCURVE",
"455 -6 CURVE SMOOTH",
"585 -6 OFFCURVE",
"681 81 OFFCURVE",
"681 199 CURVE SMOOTH",
"681 297 OFFCURVE",
"615 364 OFFCURVE",
"507 376 CURVE",
"507 362 LINE",
"581 384 OFFCURVE",
"627 443 OFFCURVE",
"627 519 CURVE SMOOTH",
"627 641 OFFCURVE",
"527 719 OFFCURVE",
"371 719 CURVE SMOOTH",
"179 719 OFFCURVE",
"68 619 OFFCURVE",
"68 445 CURVE SMOOTH",
"68 0 LINE"
);
}
);
width = 719;
}
);
leftKerningGroup = H;
rightKerningGroup = Germandbls;
unicode = 1E9E;
},
{
glyphname = Schwa;
lastChange = "2019-01-29 12:30:49 +0000";
layers = (
{
anchors = (
{
name = bottom;
position = "{368, 0}";
},
{
name = top;
position = "{368, 712}";
}
);
background = {
anchors = (
{
name = bottom;
position = "{368, 0}";
},
{
name = top;
position = "{368, 712}";
}
);
paths = (
{
closed = 1;
nodes = (
"555 -8 OFFCURVE",
"672 131 OFFCURVE",
"672 357 CURVE SMOOTH",
"672 583 OFFCURVE",
"547 720 OFFCURVE",
"345 720 CURVE SMOOTH",
"246 720 OFFCURVE",
"153 686 OFFCURVE",
"93 626 CURVE",
"117 582 LINE",
"183 642 OFFCURVE",
"258 671 OFFCURVE",
"346 671 CURVE SMOOTH",
"517 671 OFFCURVE",
"615 557 OFFCURVE",
"615 357 CURVE SMOOTH",
"615 158 OFFCURVE",
"524 42 OFFCURVE",
"368 42 CURVE SMOOTH",
"212 42 OFFCURVE",
"120 159 OFFCURVE",
"120 357 CURVE",
"105 336 LINE",
"646 336 LINE",
"646 387 LINE",
"64 387 LINE",
"64 352 LINE SMOOTH",
"64 130 OFFCURVE",
"181 -8 OFFCURVE",
"368 -8 CURVE SMOOTH"
);
}
);
};
layerId = "9E718F8A-2CEA-4931-B05D-987794BD97DA";
paths = (
{
closed = 1;
nodes = (
"555 -8 OFFCURVE",
"672 131 OFFCURVE",
"672 357 CURVE SMOOTH",
"672 583 OFFCURVE",
"547 720 OFFCURVE",
"345 720 CURVE SMOOTH",
"246 720 OFFCURVE",
"153 686 OFFCURVE",
"93 626 CURVE",
"117 582 LINE",
"183 642 OFFCURVE",
"258 671 OFFCURVE",
"346 671 CURVE SMOOTH",
"517 671 OFFCURVE",
"615 557 OFFCURVE",
"615 357 CURVE SMOOTH",
"615 158 OFFCURVE",
"524 42 OFFCURVE",
"368 42 CURVE SMOOTH",
"212 42 OFFCURVE",
"120 159 OFFCURVE",
"120 357 CURVE",
"105 336 LINE",
"646 336 LINE",
"646 387 LINE",
"64 387 LINE",
"64 352 LINE SMOOTH",
"64 130 OFFCURVE",
"181 -8 OFFCURVE",
"368 -8 CURVE SMOOTH"
);
}
);
width = 740;
},
{
anchors = (
{
name = bottom;
position = "{387, 0}";
},
{
name = top;
position = "{386, 712}";
}
);
background = {
anchors = (
{
name = bottom;
position = "{387, 0}";
},
{
name = top;
position = "{386, 712}";
}
);
paths = (
{
closed = 1;
nodes = (
"593 -9 OFFCURVE",
"725 142 OFFCURVE",
"725 357 CURVE SMOOTH",
"725 580 OFFCURVE",
"584 721 OFFCURVE",
"363 721 CURVE SMOOTH",
"266 721 OFFCURVE",
"161 690 OFFCURVE",
"98 640 CURVE",
"150 524 LINE",
"211 570 OFFCURVE",
"282 592 OFFCURVE",
"357 592 CURVE SMOOTH",
"491 592 OFFCURVE",
"564 512 OFFCURVE",
"564 357 CURVE SMOOTH",
"564 198 OFFCURVE",
"505 117 OFFCURVE",
"392 117 CURVE SMOOTH",
"273 117 OFFCURVE",
"205 198 OFFCURVE",
"210 357 CURVE",
"169 298 LINE",
"625 298 LINE",
"625 422 LINE",
"47 422 LINE",
"47 360 LINE SMOOTH",
"47 123 OFFCURVE",
"180 -9 OFFCURVE",
"397 -9 CURVE SMOOTH"
);
}
);
};
layerId = "E1B555A7-F4E1-459C-9C1A-AE952106EEF9";
paths = (
{
closed = 1;
nodes = (
"593 -9 OFFCURVE",
"725 142 OFFCURVE",
"725 357 CURVE SMOOTH",
"725 580 OFFCURVE",
"584 721 OFFCURVE",
"363 721 CURVE SMOOTH",
"266 721 OFFCURVE",
"161 690 OFFCURVE",
"98 640 CURVE",
"150 524 LINE",
"211 570 OFFCURVE",
"282 592 OFFCURVE",
"357 592 CURVE SMOOTH",
"491 592 OFFCURVE",
"564 512 OFFCURVE",
"564 357 CURVE SMOOTH",
"564 198 OFFCURVE",
"505 117 OFFCURVE",
"392 117 CURVE SMOOTH",
"273 117 OFFCURVE",
"205 198 OFFCURVE",
"210 357 CURVE",
"169 298 LINE",
"625 298 LINE",
"625 422 LINE",
"47 422 LINE",
"47 360 LINE SMOOTH",
"47 123 OFFCURVE",
"180 -9 OFFCURVE",
"397 -9 CURVE SMOOTH"
);
}
);
width = 777;
}
);
leftKerningGroup = O;
rightKerningGroup = O;
unicode = 018F;
},
{
glyphname = T;
lastChange = "2019-01-29 12:30:49 +0000";
layers = (
{
anchors = (
{
name = bottom;
position = "{295, 0}";
},
{
name = center;
position = "{295, 357}";
},
{
name = top;
position = "{295, 712}";
}
);
background = {
anchors = (
{
name = bottom;
position = "{295, 0}";
},
{
name = center;
position = "{295, 357}";
},
{
name = top;
position = "{295, 712}";
}
);
paths = (
{
closed = 1;
nodes = (
"322 0 LINE",
"322 664 LINE",
"580 664 LINE",
"580 712 LINE",
"10 712 LINE",
"10 664 LINE",
"268 664 LINE",
"268 0 LINE"
);
}
);
};
layerId = "9E718F8A-2CEA-4931-B05D-987794BD97DA";
paths = (
{
closed = 1;
nodes = (
"322 0 LINE",
"322 664 LINE",
"580 664 LINE",
"580 712 LINE",
"10 712 LINE",
"10 664 LINE",
"268 664 LINE",
"268 0 LINE"
);
}
);
width = 594;
},
{
anchors = (
{
name = bottom;
position = "{313, 0}";
},
{
name = center;
position = "{313, 357}";
},
{
name = top;
position = "{313, 712}";
}
);
background = {
anchors = (
{
name = bottom;
position = "{313, 0}";
},
{
name = center;
position = "{313, 357}";
},
{
name = top;
position = "{313, 712}";
}
);
paths = (
{
closed = 1;
nodes = (
"395 0 LINE",
"395 580 LINE",
"616 580 LINE",
"616 712 LINE",
"10 712 LINE",
"10 580 LINE",
"231 580 LINE",
"231 0 LINE"
);
}
);
};
layerId = "E1B555A7-F4E1-459C-9C1A-AE952106EEF9";
paths = (
{
closed = 1;
nodes = (
"395 0 LINE",
"395 580 LINE",
"616 580 LINE",
"616 712 LINE",
"10 712 LINE",
"10 580 LINE",
"231 580 LINE",
"231 0 LINE"
);
}
);
width = 630;
}
);
leftKerningGroup = T;
rightKerningGroup = T;
unicode = 0054;
userData = {
anchors = (
);
b = {
};
com.typemytype.robofont.layerData = {
b = {
anchors = (
);
components = (
);
contours = (
{
points = (
{
segmentType = curve;
smooth = 1;
x = 581;
y = 0;
},
{
segmentType = line;
smooth = 1;
x = 1350;
y = 0;
},
{
smooth = 0;
x = 1399;
y = 0;
},
{
smooth = 0;
x = 1423;
y = 34;
},
{
segmentType = curve;
smooth = 1;
x = 1423;
y = 71;
},
{
smooth = 0;
x = 1423;
y = 107;
},
{
smooth = 0;
x = 1399;
y = 141;
},
{
segmentType = curve;
smooth = 1;
x = 1350;
y = 141;
},
{
segmentType = line;
smooth = 0;
x = 671;
y = 141;
},
{
segmentType = line;
smooth = 0;
x = 671;
y = 665;
},
{
segmentType = line;
smooth = 1;
x = 1290;
y = 665;
},
{
smooth = 0;
x = 1339;
y = 665;
},
{
smooth = 0;
x = 1364;
y = 698;
},
{
segmentType = curve;
smooth = 1;
x = 1364;
y = 734;
},
{
smooth = 0;
x = 1364;
y = 770;
},
{
smooth = 0;
x = 1341;
y = 803;
},
{
segmentType = curve;
smooth = 1;
x = 1290;
y = 803;
},
{
segmentType = line;
smooth = 0;
x = 671;
y = 803;
},
{
segmentType = line;
smooth = 0;
x = 671;
y = 1285;
},
{
segmentType = line;
smooth = 1;
x = 1322;
y = 1285;
},
{
smooth = 0;
x = 1371;
y = 1285;
},
{
smooth = 0;
x = 1395;
y = 1319;
},
{
segmentType = curve;
smooth = 1;
x = 1395;
y = 1356;
},
{
smooth = 0;
x = 1395;
y = 1392;
},
{
smooth = 0;
x = 1371;
y = 1426;
},
{
segmentType = curve;
smooth = 1;
x = 1322;
y = 1426;
},
{
segmentType = line;
smooth = 1;
x = 576;
y = 1426;
},
{
smooth = 0;
x = 528;
y = 1426;
},
{
smooth = 0;
x = 493;
y = 1383;
},
{
segmentType = curve;
smooth = 1;
x = 493;
y = 1340;
},
{
segmentType = line;
smooth = 1;
x = 493;
y = 86;
},
{
smooth = 0;
x = 493;
y = 41;
},
{
smooth = 0;
x = 537;
y = 0;
}
);
}
);
lib = {
};
name = T;
unicodes = (
);
width = 1158;
};
};
components = (
);
contours = (
);
lib = {
};
name = T;
unicodes = (
);
width = 1199;
};
},
{
glyphname = Tbar;
lastChange = "2019-01-29 12:30:49 +0000";
layers = (
{
background = {
paths = (
{
closed = 1;
nodes = (
"469 338 LINE",
"469 385 LINE",
"121 385 LINE",
"121 338 LINE"
);
},
{
closed = 1;
nodes = (
"322 0 LINE",
"322 664 LINE",
"580 664 LINE",
"580 712 LINE",
"10 712 LINE",
"10 664 LINE",
"268 664 LINE",
"268 0 LINE"
);
}
);
};
layerId = "9E718F8A-2CEA-4931-B05D-987794BD97DA";
paths = (
{
closed = 1;
nodes = (
"469 338 LINE",
"469 385 LINE",
"121 385 LINE",
"121 338 LINE"
);
},
{
closed = 1;
nodes = (
"322 0 LINE",
"322 664 LINE",
"580 664 LINE",
"580 712 LINE",
"10 712 LINE",
"10 664 LINE",
"268 664 LINE",
"268 0 LINE"
);
}
);
width = 594;
},
{
background = {
paths = (
{
closed = 1;
nodes = (
"531 298 LINE",
"531 421 LINE",
"95 421 LINE",
"95 298 LINE"
);
},
{
closed = 1;
nodes = (
"395 0 LINE",
"395 580 LINE",
"616 580 LINE",
"616 712 LINE",
"10 712 LINE",
"10 580 LINE",
"231 580 LINE",
"231 0 LINE"
);
}
);
};
layerId = "E1B555A7-F4E1-459C-9C1A-AE952106EEF9";
paths = (
{
closed = 1;
nodes = (
"531 298 LINE",
"531 421 LINE",
"95 421 LINE",
"95 298 LINE"
);
},
{
closed = 1;
nodes = (
"395 0 LINE",
"395 580 LINE",
"616 580 LINE",
"616 712 LINE",
"10 712 LINE",
"10 580 LINE",
"231 580 LINE",
"231 0 LINE"
);
}
);
width = 630;
}
);
leftKerningGroup = T;
rightKerningGroup = T;
unicode = 0166;
userData = {
com.typemytype.robofont.layerData = {
b = {
anchors = (
);
components = (
);
contours = (
);
lib = {
};
name = Tbar;
unicodes = (
);
width = 1158;
};
};
};
},
{
glyphname = U;
lastChange = "2019-01-29 12:30:49 +0000";
layers = (
{
anchors = (
{
name = bottom;
position = "{361, 0}";
},
{
name = ogonek;
position = "{474, 10}";
},
{
name = top;
position = "{361, 712}";
},
{
name = topright;
position = "{607, 712}";
}
);
background = {
anchors = (
{
name = bottom;
position = "{361, 0}";
},
{
name = ogonek;
position = "{474, 10}";
},
{
name = top;
position = "{361, 712}";
},
{
name = topright;
position = "{607, 712}";
}
);
paths = (
{
closed = 1;
nodes = (
"540 -8 OFFCURVE",
"634 88 OFFCURVE",
"634 273 CURVE SMOOTH",
"634 712 LINE",
"580 712 LINE",
"580 266 LINE SMOOTH",
"580 117 OFFCURVE",
"505 42 OFFCURVE",
"361 42 CURVE SMOOTH",
"215 42 OFFCURVE",
"141 117 OFFCURVE",
"141 266 CURVE SMOOTH",
"141 712 LINE",
"87 712 LINE",
"87 273 LINE SMOOTH",
"87 88 OFFCURVE",
"181 -8 OFFCURVE",
"361 -8 CURVE SMOOTH"
);
}
);
};
layerId = "9E718F8A-2CEA-4931-B05D-987794BD97DA";
paths = (
{
closed = 1;
nodes = (
"540 -8 OFFCURVE",
"634 88 OFFCURVE",
"634 273 CURVE SMOOTH",
"634 712 LINE",
"580 712 LINE",
"580 266 LINE SMOOTH",
"580 117 OFFCURVE",
"505 42 OFFCURVE",
"361 42 CURVE SMOOTH",
"215 42 OFFCURVE",
"141 117 OFFCURVE",
"141 266 CURVE SMOOTH",
"141 712 LINE",
"87 712 LINE",
"87 273 LINE SMOOTH",
"87 88 OFFCURVE",
"181 -8 OFFCURVE",
"361 -8 CURVE SMOOTH"
);
}
);
width = 725;
},
{
anchors = (
{
name = bottom;
position = "{372, 0}";
},
{
name = ogonek;
position = "{495, 10}";
},
{
name = top;
position = "{372, 712}";
},
{
name = topright;
position = "{600, 712}";
}
);
background = {
anchors = (
{
name = bottom;
position = "{372, 0}";
},
{
name = ogonek;
position = "{495, 10}";
},
{
name = top;
position = "{372, 712}";
},
{
name = topright;
position = "{600, 712}";
}
);
paths = (
{
closed = 1;
nodes = (
"572 -9 OFFCURVE",
"680 98 OFFCURVE",
"680 295 CURVE SMOOTH",
"680 712 LINE",
"520 712 LINE",
"520 288 LINE SMOOTH",
"520 178 OFFCURVE",
"468 117 OFFCURVE",
"372 117 CURVE SMOOTH",
"275 117 OFFCURVE",
"223 177 OFFCURVE",
"223 288 CURVE SMOOTH",
"223 712 LINE",
"64 712 LINE",
"64 295 LINE SMOOTH",
"64 96 OFFCURVE",
"170 -9 OFFCURVE",
"372 -9 CURVE SMOOTH"
);
}
);
};
layerId = "E1B555A7-F4E1-459C-9C1A-AE952106EEF9";
paths = (
{
closed = 1;
nodes = (
"572 -9 OFFCURVE",
"680 98 OFFCURVE",
"680 295 CURVE SMOOTH",
"680 712 LINE",
"520 712 LINE",
"520 288 LINE SMOOTH",
"520 178 OFFCURVE",
"468 117 OFFCURVE",
"372 117 CURVE SMOOTH",
"275 117 OFFCURVE",
"223 177 OFFCURVE",
"223 288 CURVE SMOOTH",
"223 712 LINE",
"64 712 LINE",
"64 295 LINE SMOOTH",
"64 96 OFFCURVE",
"170 -9 OFFCURVE",
"372 -9 CURVE SMOOTH"
);
}
);
width = 747;
}
);
leftKerningGroup = U;
rightKerningGroup = U;
unicode = 0055;
userData = {
anchors = (
);
b = {
};
com.typemytype.robofont.layerData = {
b = {
anchors = (
);
components = (
);
contours = (
);
lib = {
};
name = U;
unicodes = (
);
width = 1490;
};
};
components = (
);
contours = (
);
lib = {
};
name = U;
unicodes = (
);
width = 1513;
};
},
{
glyphname = Uogonek;
lastChange = "2019-01-29 12:30:49 +0000";
layers = (
{
background = {
paths = (
{
closed = 1;
nodes = (
"580 266 LINE SMOOTH",
"580 117 OFFCURVE",
"505 42 OFFCURVE",
"361 42 CURVE SMOOTH",
"215 42 OFFCURVE",
"141 117 OFFCURVE",
"141 266 CURVE SMOOTH",
"141 712 LINE",
"87 712 LINE",
"87 273 LINE SMOOTH",
"87 88 OFFCURVE",
"181 -8 OFFCURVE",
"361 -8 CURVE SMOOTH",
"414 -8 LINE",
"402 11 LINE",
"355 -9 OFFCURVE",
"330 -42 OFFCURVE",
"330 -89 CURVE SMOOTH",
"330 -150 OFFCURVE",
"377 -193 OFFCURVE",
"444 -193 CURVE SMOOTH",
"476 -193 OFFCURVE",
"504 -185 OFFCURVE",
"525 -170 CURVE",
"509 -131 LINE",
"488 -142 OFFCURVE",
"467 -149 OFFCURVE",
"449 -149 CURVE SMOOTH",
"407 -149 OFFCURVE",
"381 -124 OFFCURVE",
"381 -83 CURVE SMOOTH",
"381 -40 OFFCURVE",
"407 -13 OFFCURVE",
"469 6 CURVE SMOOTH",
"578 40 OFFCURVE",
"634 129 OFFCURVE",
"634 273 CURVE SMOOTH",
"634 712 LINE",
"580 712 LINE"
);
}
);
};
layerId = "9E718F8A-2CEA-4931-B05D-987794BD97DA";
paths = (
{
closed = 1;
nodes = (
"580 266 LINE SMOOTH",
"580 117 OFFCURVE",
"505 42 OFFCURVE",
"361 42 CURVE SMOOTH",
"215 42 OFFCURVE",
"141 117 OFFCURVE",
"141 266 CURVE SMOOTH",
"141 712 LINE",
"87 712 LINE",
"87 273 LINE SMOOTH",
"87 88 OFFCURVE",
"181 -8 OFFCURVE",
"361 -8 CURVE SMOOTH",
"414 -8 LINE",
"402 11 LINE",
"355 -9 OFFCURVE",
"330 -42 OFFCURVE",
"330 -89 CURVE SMOOTH",
"330 -150 OFFCURVE",
"377 -193 OFFCURVE",
"444 -193 CURVE SMOOTH",
"476 -193 OFFCURVE",
"504 -185 OFFCURVE",
"525 -170 CURVE",
"509 -131 LINE",
"488 -142 OFFCURVE",
"467 -149 OFFCURVE",
"449 -149 CURVE SMOOTH",
"407 -149 OFFCURVE",
"381 -124 OFFCURVE",
"381 -83 CURVE SMOOTH",
"381 -40 OFFCURVE",
"407 -13 OFFCURVE",
"469 6 CURVE SMOOTH",
"578 40 OFFCURVE",
"634 129 OFFCURVE",
"634 273 CURVE SMOOTH",
"634 712 LINE",
"580 712 LINE"
);
}
);
width = 725;
},
{
background = {
paths = (
{
closed = 1;
nodes = (
"520 288 LINE SMOOTH",
"520 178 OFFCURVE",
"468 117 OFFCURVE",
"372 117 CURVE SMOOTH",
"275 117 OFFCURVE",
"223 177 OFFCURVE",
"223 288 CURVE SMOOTH",
"223 712 LINE",
"64 712 LINE",
"64 295 LINE SMOOTH",
"64 96 OFFCURVE",
"170 -9 OFFCURVE",
"373 -9 CURVE SMOOTH",
"394 -9 LINE",
"384 11 LINE",
"346 -11 OFFCURVE",
"325 -48 OFFCURVE",
"325 -88 CURVE SMOOTH",
"325 -153 OFFCURVE",
"379 -199 OFFCURVE",
"455 -199 CURVE SMOOTH",
"491 -199 OFFCURVE",
"526 -192 OFFCURVE",
"557 -179 CURVE",
"539 -106 LINE",
"520 -114 OFFCURVE",
"502 -118 OFFCURVE",
"485 -118 CURVE SMOOTH",
"446 -118 OFFCURVE",
"425 -100 OFFCURVE",
"425 -65 CURVE SMOOTH",
"425 -32 OFFCURVE",
"446 -6 OFFCURVE",
"486 5 CURVE SMOOTH",
"613 40 OFFCURVE",
"680 139 OFFCURVE",
"680 295 CURVE SMOOTH",
"680 712 LINE",
"520 712 LINE"
);
}
);
};
layerId = "E1B555A7-F4E1-459C-9C1A-AE952106EEF9";
paths = (
{
closed = 1;
nodes = (
"520 288 LINE SMOOTH",
"520 178 OFFCURVE",
"468 117 OFFCURVE",
"372 117 CURVE SMOOTH",
"275 117 OFFCURVE",
"223 177 OFFCURVE",
"223 288 CURVE SMOOTH",
"223 712 LINE",
"64 712 LINE",
"64 295 LINE SMOOTH",
"64 96 OFFCURVE",
"170 -9 OFFCURVE",
"373 -9 CURVE SMOOTH",
"394 -9 LINE",
"384 11 LINE",
"346 -11 OFFCURVE",
"325 -48 OFFCURVE",
"325 -88 CURVE SMOOTH",
"325 -153 OFFCURVE",
"379 -199 OFFCURVE",
"455 -199 CURVE SMOOTH",
"491 -199 OFFCURVE",
"526 -192 OFFCURVE",
"557 -179 CURVE",
"539 -106 LINE",
"520 -114 OFFCURVE",
"502 -118 OFFCURVE",
"485 -118 CURVE SMOOTH",
"446 -118 OFFCURVE",
"425 -100 OFFCURVE",
"425 -65 CURVE SMOOTH",
"425 -32 OFFCURVE",
"446 -6 OFFCURVE",
"486 5 CURVE SMOOTH",
"613 40 OFFCURVE",
"680 139 OFFCURVE",
"680 295 CURVE SMOOTH",
"680 712 LINE",
"520 712 LINE"
);
}
);
width = 747;
}
);
leftKerningGroup = U;
rightKerningGroup = U;
unicode = 0172;
},
{
glyphname = Uhorn;
lastChange = "2019-01-29 12:30:49 +0000";
layers = (
{
anchors = (
{
name = bottom;
position = "{361, 0}";
},
{
name = top;
position = "{361, 712}";
}
);
background = {
anchors = (
{
name = bottom;
position = "{361, 0}";
},
{
name = top;
position = "{361, 712}";
}
);
paths = (
{
closed = 1;
nodes = (
"704 826 LINE SMOOTH",
"704 745 OFFCURVE",
"673 713 OFFCURVE",
"596 712 CURVE SMOOTH",
"580 712 LINE",
"580 266 LINE SMOOTH",
"580 117 OFFCURVE",
"505 42 OFFCURVE",
"361 42 CURVE SMOOTH",
"215 42 OFFCURVE",
"141 117 OFFCURVE",
"141 266 CURVE SMOOTH",
"141 712 LINE",
"87 712 LINE",
"87 273 LINE SMOOTH",
"87 88 OFFCURVE",
"181 -8 OFFCURVE",
"361 -8 CURVE SMOOTH",
"540 -8 OFFCURVE",
"634 88 OFFCURVE",
"634 273 CURVE SMOOTH",
"634 698 LINE",
"598 670 LINE",
"698 671 OFFCURVE",
"754 723 OFFCURVE",
"754 817 CURVE SMOOTH",
"754 839 LINE",
"704 839 LINE"
);
}
);
};
layerId = "9E718F8A-2CEA-4931-B05D-987794BD97DA";
paths = (
{
closed = 1;
nodes = (
"704 826 LINE SMOOTH",
"704 745 OFFCURVE",
"673 713 OFFCURVE",
"596 712 CURVE SMOOTH",
"580 712 LINE",
"580 266 LINE SMOOTH",
"580 117 OFFCURVE",
"505 42 OFFCURVE",
"361 42 CURVE SMOOTH",
"215 42 OFFCURVE",
"141 117 OFFCURVE",
"141 266 CURVE SMOOTH",
"141 712 LINE",
"87 712 LINE",
"87 273 LINE SMOOTH",
"87 88 OFFCURVE",
"181 -8 OFFCURVE",
"361 -8 CURVE SMOOTH",
"540 -8 OFFCURVE",
"634 88 OFFCURVE",
"634 273 CURVE SMOOTH",
"634 698 LINE",
"598 670 LINE",
"698 671 OFFCURVE",
"754 723 OFFCURVE",
"754 817 CURVE SMOOTH",
"754 839 LINE",
"704 839 LINE"
);
}
);
width = 725;
},
{
anchors = (
{
name = bottom;
position = "{372, 0}";
},
{
name = top;
position = "{372, 712}";
}
);
background = {
anchors = (
{
name = bottom;
position = "{372, 0}";
},
{
name = top;
position = "{372, 712}";
}
);
paths = (
{
closed = 1;
nodes = (
"658 814 LINE SMOOTH",
"658 738 OFFCURVE",
"634 712 OFFCURVE",
"567 712 CURVE SMOOTH",
"520 712 LINE",
"520 288 LINE SMOOTH",
"520 178 OFFCURVE",
"468 117 OFFCURVE",
"372 117 CURVE SMOOTH",
"275 117 OFFCURVE",
"223 177 OFFCURVE",
"223 288 CURVE SMOOTH",
"223 712 LINE",
"64 712 LINE",
"64 295 LINE SMOOTH",
"64 96 OFFCURVE",
"170 -9 OFFCURVE",
"372 -9 CURVE SMOOTH",
"572 -9 OFFCURVE",
"680 98 OFFCURVE",
"680 295 CURVE SMOOTH",
"680 681 LINE",
"647 637 LINE",
"734 642 OFFCURVE",
"793 706 OFFCURVE",
"793 795 CURVE SMOOTH",
"793 834 LINE",
"658 834 LINE"
);
}
);
};
layerId = "E1B555A7-F4E1-459C-9C1A-AE952106EEF9";
paths = (
{
closed = 1;
nodes = (
"658 814 LINE SMOOTH",
"658 738 OFFCURVE",
"634 712 OFFCURVE",
"567 712 CURVE SMOOTH",
"520 712 LINE",
"520 288 LINE SMOOTH",
"520 178 OFFCURVE",
"468 117 OFFCURVE",
"372 117 CURVE SMOOTH",
"275 117 OFFCURVE",
"223 177 OFFCURVE",
"223 288 CURVE SMOOTH",
"223 712 LINE",
"64 712 LINE",
"64 295 LINE SMOOTH",
"64 96 OFFCURVE",
"170 -9 OFFCURVE",
"372 -9 CURVE SMOOTH",
"572 -9 OFFCURVE",
"680 98 OFFCURVE",
"680 295 CURVE SMOOTH",
"680 681 LINE",
"647 637 LINE",
"734 642 OFFCURVE",
"793 706 OFFCURVE",
"793 795 CURVE SMOOTH",
"793 834 LINE",
"658 834 LINE"
);
}
);
width = 747;
}
);
leftKerningGroup = U;
rightKerningGroup = Uhorn;
unicode = 01AF;
},
{
glyphname = V;
lastChange = "2019-01-29 12:30:49 +0000";
layers = (
{
anchors = (
{
name = bottom;
position = "{340, 0}";
},
{
name = top;
position = "{339, 712}";
}
);
background = {
anchors = (
{
name = bottom;
position = "{340, 0}";
},
{
name = top;
position = "{339, 712}";
}
);
paths = (
{
closed = 1;
nodes = (
"365 0 LINE",
"673 712 LINE",
"616 712 LINE",
"326 37 LINE",
"354 37 LINE",
"64 712 LINE",
"7 712 LINE",
"314 0 LINE"
);
}
);
};
layerId = "9E718F8A-2CEA-4931-B05D-987794BD97DA";
paths = (
{
closed = 1;
nodes = (
"365 0 LINE",
"673 712 LINE",
"616 712 LINE",
"326 37 LINE",
"354 37 LINE",
"64 712 LINE",
"7 712 LINE",
"314 0 LINE"
);
}
);
width = 683;
},
{
anchors = (
{
name = bottom;
position = "{368, 0}";
},
{
name = top;
position = "{367, 712}";
}
);
background = {
anchors = (
{
name = bottom;
position = "{368, 0}";
},
{
name = top;
position = "{367, 712}";
}
);
paths = (
{
closed = 1;
nodes = (
"432 0 LINE",
"753 712 LINE",
"589 712 LINE",
"345 148 LINE",
"392 148 LINE",
"150 712 LINE",
"-19 712 LINE",
"302 0 LINE"
);
}
);
};
layerId = "E1B555A7-F4E1-459C-9C1A-AE952106EEF9";
paths = (
{
closed = 1;
nodes = (
"432 0 LINE",
"753 712 LINE",
"589 712 LINE",
"345 148 LINE",
"392 148 LINE",
"150 712 LINE",
"-19 712 LINE",
"302 0 LINE"
);
}
);
width = 738;
}
);
leftKerningGroup = V;
rightKerningGroup = V;
unicode = 0056;
userData = {
anchors = (
);
b = {
};
com.typemytype.robofont.guides = (
);
com.typemytype.robofont.layerData = {
b = {
anchors = (
);
components = (
);
contours = (
{
points = (
{
segmentType = curve;
smooth = 1;
x = 644;
y = "-5";
},
{
smooth = 0;
x = 712;
y = "-5";
},
{
smooth = 0;
x = 764;
y = 38;
},
{
segmentType = curve;
smooth = 1;
x = 793;
y = 117;
},
{
segmentType = line;
smooth = 1;
x = 1243;
y = 1324;
},
{
smooth = 0;
x = 1247;
y = 1335;
},
{
smooth = 0;
x = 1248;
y = 1342;
},
{
segmentType = curve;
smooth = 1;
x = 1248;
y = 1351;
},
{
smooth = 0;
x = 1248;
y = 1395;
},
{
smooth = 0;
x = 1203;
y = 1427;
},
{
segmentType = curve;
smooth = 1;
x = 1160;
y = 1427;
},
{
smooth = 0;
x = 1125;
y = 1427;
},
{
smooth = 0;
x = 1090;
y = 1408;
},
{
segmentType = curve;
smooth = 1;
x = 1076;
y = 1369;
},
{
segmentType = line;
smooth = 0;
x = 651;
y = 192;
},
{
segmentType = line;
smooth = 0;
x = 650;
y = 190;
},
{
segmentType = line;
smooth = 1;
x = 214;
y = 1370;
},
{
smooth = 0;
x = 200;
y = 1407;
},
{
smooth = 0;
x = 170;
y = 1427;
},
{
segmentType = curve;
smooth = 1;
x = 135;
y = 1427;
},
{
smooth = 0;
x = 90;
y = 1427;
},
{
smooth = 0;
x = 43;
y = 1392;
},
{
segmentType = curve;
smooth = 1;
x = 43;
y = 1344;
},
{
smooth = 0;
x = 43;
y = 1336;
},
{
smooth = 0;
x = 44;
y = 1326;
},
{
segmentType = curve;
smooth = 0;
x = 48;
y = 1318;
},
{
segmentType = line;
smooth = 1;
x = 501;
y = 117;
},
{
smooth = 0;
x = 532;
y = 35;
},
{
smooth = 0;
x = 581;
y = "-5";
}
);
}
);
lib = {
};
name = V;
unicodes = (
);
width = 1289;
};
};
components = (
);
contours = (
);
lib = {
};
name = V;
unicodes = (
);
width = 1365;
};
},
{
glyphname = W;
lastChange = "2019-01-29 12:30:49 +0000";
layers = (
{
anchors = (
{
name = bottom;
position = "{551, 0}";
},
{
name = top;
position = "{550, 712}";
}
);
background = {
anchors = (
{
name = bottom;
position = "{551, 0}";
},
{
name = top;
position = "{550, 712}";
}
);
paths = (
{
closed = 1;
nodes = (
"333 0 LINE",
"562 655 LINE",
"540 655 LINE",
"769 0 LINE",
"817 0 LINE",
"1065 712 LINE",
"1010 712 LINE",
"777 35 LINE",
"807 35 LINE",
"574 711 LINE",
"529 712 LINE",
"295 35 LINE",
"324 35 LINE",
"92 712 LINE",
"37 712 LINE",
"285 0 LINE"
);
}
);
};
layerId = "9E718F8A-2CEA-4931-B05D-987794BD97DA";
paths = (
{
closed = 1;
nodes = (
"333 0 LINE",
"562 655 LINE",
"540 655 LINE",
"769 0 LINE",
"817 0 LINE",
"1065 712 LINE",
"1010 712 LINE",
"777 35 LINE",
"807 35 LINE",
"574 711 LINE",
"529 712 LINE",
"295 35 LINE",
"324 35 LINE",
"92 712 LINE",
"37 712 LINE",
"285 0 LINE"
);
}
);
width = 1106;
},
{
anchors = (
{
name = bottom;
position = "{562, 0}";
},
{
name = top;
position = "{562, 712}";
}
);
background = {
anchors = (
{
name = bottom;
position = "{562, 0}";
},
{
name = top;
position = "{562, 712}";
}
);
paths = (
{
closed = 1;
nodes = (
"398 0 LINE",
"575 497 LINE",
"550 497 LINE",
"724 0 LINE",
"854 0 LINE",
"1108 712 LINE",
"953 712 LINE",
"770 169 LINE",
"805 169 LINE",
"623 712 LINE",
"510 712 LINE",
"319 169 LINE",
"360 169 LINE",
"180 712 LINE",
"15 712 LINE",
"268 0 LINE"
);
}
);
};
layerId = "E1B555A7-F4E1-459C-9C1A-AE952106EEF9";
paths = (
{
closed = 1;
nodes = (
"398 0 LINE",
"575 497 LINE",
"550 497 LINE",
"724 0 LINE",
"854 0 LINE",
"1108 712 LINE",
"953 712 LINE",
"770 169 LINE",
"805 169 LINE",
"623 712 LINE",
"510 712 LINE",
"319 169 LINE",
"360 169 LINE",
"180 712 LINE",
"15 712 LINE",
"268 0 LINE"
);
}
);
width = 1127;
}
);
leftKerningGroup = V;
rightKerningGroup = V;
unicode = 0057;
userData = {
anchors = (
);
b = {
};
com.typemytype.robofont.layerData = {
b = {
anchors = (
);
components = (
);
contours = (
);
lib = {
};
name = W;
unicodes = (
);
width = 2126;
};
};
components = (
);
contours = (
);
lib = {
};
name = W;
unicodes = (
);
width = 2070;
};
},
{
glyphname = X;
lastChange = "2019-01-29 12:30:49 +0000";
layers = (
{
anchors = (
{
name = bottom;
position = "{319, 0}";
},
{
name = top;
position = "{319, 712}";
}
);
background = {
anchors = (
{
name = bottom;
position = "{319, 0}";
},
{
name = top;
position = "{319, 712}";
}
);
paths = (
{
closed = 1;
nodes = (
"319 323 LINE",
"350 365 LINE",
"606 712 LINE",
"542 712 LINE",
"320 407 LINE",
"288 366 LINE",
"17 0 LINE",
"83 0 LINE"
);
},
{
closed = 1;
nodes = (
"620 0 LINE",
"350 365 LINE",
"320 407 LINE",
"97 712 LINE",
"32 712 LINE",
"288 366 LINE",
"319 323 LINE",
"556 0 LINE"
);
}
);
};
layerId = "9E718F8A-2CEA-4931-B05D-987794BD97DA";
paths = (
{
closed = 1;
nodes = (
"319 323 LINE",
"350 365 LINE",
"606 712 LINE",
"542 712 LINE",
"320 407 LINE",
"288 366 LINE",
"17 0 LINE",
"83 0 LINE"
);
},
{
closed = 1;
nodes = (
"620 0 LINE",
"350 365 LINE",
"320 407 LINE",
"97 712 LINE",
"32 712 LINE",
"288 366 LINE",
"319 323 LINE",
"556 0 LINE"
);
}
);
width = 641;
},
{
anchors = (
{
name = bottom;
position = "{340, 0}";
},
{
name = top;
position = "{339, 712}";
}
);
background = {
anchors = (
{
name = bottom;
position = "{340, 0}";
},
{
name = top;
position = "{339, 712}";
}
);
paths = (
{
closed = 1;
nodes = (
"339 241 LINE",
"431 361 LINE",
"697 712 LINE",
"508 712 LINE",
"339 479 LINE",
"247 361 LINE",
"-24 0 LINE",
"165 0 LINE"
);
},
{
closed = 1;
nodes = (
"703 0 LINE",
"431 361 LINE",
"339 479 LINE",
"172 712 LINE",
"-17 712 LINE",
"247 361 LINE",
"339 241 LINE",
"513 0 LINE"
);
}
);
};
layerId = "E1B555A7-F4E1-459C-9C1A-AE952106EEF9";
paths = (
{
closed = 1;
nodes = (
"339 241 LINE",
"431 361 LINE",
"697 712 LINE",
"508 712 LINE",
"339 479 LINE",
"247 361 LINE",
"-24 0 LINE",
"165 0 LINE"
);
},
{
closed = 1;
nodes = (
"703 0 LINE",
"431 361 LINE",
"339 479 LINE",
"172 712 LINE",
"-17 712 LINE",
"247 361 LINE",
"339 241 LINE",
"513 0 LINE"
);
}
);
width = 684;
}
);
leftKerningGroup = X;
rightKerningGroup = X;
unicode = 0058;
userData = {
anchors = (
);
b = {
};
com.typemytype.robofont.layerData = {
b = {
anchors = (
);
components = (
);
contours = (
{
points = (
{
segmentType = curve;
smooth = 1;
x = 151;
y = 0;
},
{
smooth = 0;
x = 176;
y = 0;
},
{
smooth = 0;
x = 201;
y = 12;
},
{
segmentType = curve;
smooth = 1;
x = 222;
y = 41;
},
{
segmentType = line;
smooth = 0;
x = 641;
y = 616;
},
{
segmentType = line;
smooth = 0;
x = 746;
y = 734;
},
{
segmentType = line;
smooth = 1;
x = 1175;
y = 1310;
},
{
smooth = 0;
x = 1186;
y = 1325;
},
{
smooth = 0;
x = 1190;
y = 1338;
},
{
segmentType = curve;
smooth = 1;
x = 1190;
y = 1353;
},
{
smooth = 0;
x = 1190;
y = 1393;
},
{
smooth = 0;
x = 1153;
y = 1426;
},
{
segmentType = curve;
smooth = 1;
x = 1110;
y = 1426;
},
{
smooth = 0;
x = 1083;
y = 1426;
},
{
smooth = 0;
x = 1058;
y = 1414;
},
{
segmentType = curve;
smooth = 1;
x = 1037;
y = 1385;
},
{
segmentType = line;
smooth = 0;
x = 648;
y = 844;
},
{
segmentType = line;
smooth = 0;
x = 542;
y = 732;
},
{
segmentType = line;
smooth = 1;
x = 84;
y = 121;
},
{
smooth = 0;
x = 73;
y = 106;
},
{
smooth = 0;
x = 68;
y = 91;
},
{
segmentType = curve;
smooth = 1;
x = 68;
y = 76;
},
{
smooth = 0;
x = 68;
y = 35;
},
{
smooth = 0;
x = 108;
y = 0;
}
);
},
{
points = (
{
segmentType = curve;
smooth = 1;
x = 1104;
y = 0;
},
{
smooth = 0;
x = 1151;
y = 0;
},
{
smooth = 0;
x = 1200;
y = 40;
},
{
segmentType = curve;
smooth = 1;
x = 1200;
y = 85;
},
{
smooth = 0;
x = 1200;
y = 98;
},
{
smooth = 0;
x = 1195;
y = 113;
},
{
segmentType = curve;
smooth = 0;
x = 1186;
y = 126;
},
{
segmentType = line;
smooth = 0;
x = 272;
y = 1385;
},
{
smooth = 0;
x = 252;
y = 1414;
},
{
smooth = 0;
x = 225;
y = 1426;
},
{
segmentType = curve;
smooth = 1;
x = 197;
y = 1426;
},
{
smooth = 0;
x = 149;
y = 1426;
},
{
smooth = 0;
x = 100;
y = 1388;
},
{
segmentType = curve;
smooth = 1;
x = 100;
y = 1343;
},
{
smooth = 0;
x = 100;
y = 1328;
},
{
smooth = 0;
x = 105;
y = 1315;
},
{
segmentType = curve;
smooth = 0;
x = 114;
y = 1303;
},
{
segmentType = line;
smooth = 0;
x = 1033;
y = 40;
},
{
smooth = 0;
x = 1052;
y = 13;
},
{
smooth = 0;
x = 1076;
y = 0;
}
);
}
);
lib = {
};
name = X;
unicodes = (
);
width = 1274;
};
};
components = (
);
contours = (
);
lib = {
};
name = X;
unicodes = (
);
width = 1322;
};
},
{
glyphname = Y;
lastChange = "2019-01-29 12:30:49 +0000";
layers = (
{
anchors = (
{
name = bottom;
position = "{294, 0}";
},
{
name = top;
position = "{294, 712}";
},
{
name = topleft;
position = "{17, 712}";
}
);
background = {
anchors = (
{
name = bottom;
position = "{294, 0}";
},
{
name = top;
position = "{294, 712}";
},
{
name = topleft;
position = "{17, 712}";
}
);
paths = (
{
closed = 1;
nodes = (
"321 0 LINE",
"321 320 LINE",
"309 275 LINE",
"595 712 LINE",
"533 712 LINE",
"284 327 LINE",
"307 327 LINE",
"57 712 LINE",
"-7 712 LINE",
"280 275 LINE",
"267 320 LINE",
"267 0 LINE"
);
}
);
};
layerId = "9E718F8A-2CEA-4931-B05D-987794BD97DA";
paths = (
{
closed = 1;
nodes = (
"321 0 LINE",
"321 320 LINE",
"309 275 LINE",
"595 712 LINE",
"533 712 LINE",
"284 327 LINE",
"307 327 LINE",
"57 712 LINE",
"-7 712 LINE",
"280 275 LINE",
"267 320 LINE",
"267 0 LINE"
);
}
);
width = 593;
},
{
anchors = (
{
name = bottom;
position = "{321, 0}";
},
{
name = top;
position = "{320, 712}";
},
{
name = topleft;
position = "{17, 712}";
}
);
background = {
anchors = (
{
name = bottom;
position = "{321, 0}";
},
{
name = top;
position = "{320, 712}";
},
{
name = topleft;
position = "{17, 712}";
}
);
paths = (
{
closed = 1;
nodes = (
"402 0 LINE",
"402 320 LINE",
"369 227 LINE",
"698 712 LINE",
"513 712 LINE",
"298 378 LINE",
"341 378 LINE",
"128 712 LINE",
"-56 712 LINE",
"273 227 LINE",
"239 320 LINE",
"239 0 LINE"
);
}
);
};
layerId = "E1B555A7-F4E1-459C-9C1A-AE952106EEF9";
paths = (
{
closed = 1;
nodes = (
"402 0 LINE",
"402 320 LINE",
"369 227 LINE",
"698 712 LINE",
"513 712 LINE",
"298 378 LINE",
"341 378 LINE",
"128 712 LINE",
"-56 712 LINE",
"273 227 LINE",
"239 320 LINE",
"239 0 LINE"
);
}
);
width = 645;
}
);
leftKerningGroup = Y;
rightKerningGroup = Y;
unicode = 0059;
userData = {
anchors = (
);
b = {
};
com.typemytype.robofont.guides = (
);
com.typemytype.robofont.layerData = {
b = {
anchors = (
);
components = (
);
contours = (
{
points = (
{
segmentType = curve;
smooth = 1;
x = 641;
y = 0;
},
{
smooth = 0;
x = 685;
y = 0;
},
{
smooth = 0;
x = 730;
y = 29;
},
{
segmentType = curve;
smooth = 1;
x = 730;
y = 85;
},
{
segmentType = line;
smooth = 0;
x = 730;
y = 1285;
},
{
segmentType = line;
smooth = 1;
x = 1115;
y = 1285;
},
{
smooth = 0;
x = 1164;
y = 1285;
},
{
smooth = 0;
x = 1190;
y = 1319;
},
{
segmentType = curve;
smooth = 1;
x = 1190;
y = 1355;
},
{
smooth = 0;
x = 1190;
y = 1392;
},
{
smooth = 0;
x = 1166;
y = 1426;
},
{
segmentType = curve;
smooth = 1;
x = 1115;
y = 1426;
},
{
segmentType = line;
smooth = 1;
x = 160;
y = 1426;
},
{
smooth = 0;
x = 111;
y = 1426;
},
{
smooth = 0;
x = 86;
y = 1392;
},
{
segmentType = curve;
smooth = 1;
x = 86;
y = 1355;
},
{
smooth = 0;
x = 86;
y = 1319;
},
{
smooth = 0;
x = 111;
y = 1285;
},
{
segmentType = curve;
smooth = 1;
x = 160;
y = 1285;
},
{
segmentType = line;
smooth = 0;
x = 552;
y = 1285;
},
{
segmentType = line;
smooth = 1;
x = 552;
y = 85;
},
{
smooth = 0;
x = 552;
y = 29;
},
{
smooth = 0;
x = 596;
y = 0;
}
);
}
);
lib = {
};
name = Y;
unicodes = (
);
width = 1278;
};
};
components = (
);
contours = (
);
lib = {
};
name = Y;
unicodes = (
);
width = 1321;
};
},
{
glyphname = Z;
lastChange = "2019-01-29 12:30:49 +0000";
layers = (
{
anchors = (
{
name = bottom;
position = "{299, 0}";
},
{
name = top;
position = "{291, 712}";
}
);
background = {
anchors = (
{
name = bottom;
position = "{299, 0}";
},
{
name = top;
position = "{291, 712}";
}
);
paths = (
{
closed = 1;
nodes = (
"548 0 LINE",
"548 48 LINE",
"80 48 LINE",
"78 7 LINE",
"538 672 LINE",
"538 712 LINE",
"41 712 LINE",
"41 664 LINE",
"500 664 LINE",
"502 705 LINE",
"41 40 LINE",
"41 0 LINE"
);
}
);
};
layerId = "9E718F8A-2CEA-4931-B05D-987794BD97DA";
paths = (
{
closed = 1;
nodes = (
"548 0 LINE",
"548 48 LINE",
"80 48 LINE",
"78 7 LINE",
"538 672 LINE",
"538 712 LINE",
"41 712 LINE",
"41 664 LINE",
"500 664 LINE",
"502 705 LINE",
"41 40 LINE",
"41 0 LINE"
);
}
);
width = 588;
},
{
anchors = (
{
name = bottom;
position = "{304, 0}";
},
{
name = top;
position = "{308, 712}";
}
);
background = {
anchors = (
{
name = bottom;
position = "{304, 0}";
},
{
name = top;
position = "{308, 712}";
}
);
paths = (
{
closed = 1;
nodes = (
"580 0 LINE",
"580 128 LINE",
"199 128 LINE",
"197 84 LINE",
"569 595 LINE",
"569 712 LINE",
"49 712 LINE",
"49 584 LINE",
"417 584 LINE",
"418 628 LINE",
"49 119 LINE",
"49 0 LINE"
);
}
);
};
layerId = "E1B555A7-F4E1-459C-9C1A-AE952106EEF9";
paths = (
{
closed = 1;
nodes = (
"580 0 LINE",
"580 128 LINE",
"199 128 LINE",
"197 84 LINE",
"569 595 LINE",
"569 712 LINE",
"49 712 LINE",
"49 584 LINE",
"417 584 LINE",
"418 628 LINE",
"49 119 LINE",
"49 0 LINE"
);
}
);
width = 617;
}
);
leftKerningGroup = Z;
rightKerningGroup = Z;
unicode = 005A;
userData = {
anchors = (
);
b = {
};
com.typemytype.robofont.layerData = {
b = {
anchors = (
);
components = (
);
contours = (
{
points = (
{
segmentType = curve;
smooth = 1;
x = 266;
y = 0;
},
{
segmentType = line;
smooth = 1;
x = 1035;
y = 0;
},
{
smooth = 0;
x = 1084;
y = 0;
},
{
smooth = 0;
x = 1108;
y = 34;
},
{
segmentType = curve;
smooth = 1;
x = 1108;
y = 71;
},
{
smooth = 0;
x = 1108;
y = 107;
},
{
smooth = 0;
x = 1084;
y = 141;
},
{
segmentType = curve;
smooth = 1;
x = 1035;
y = 141;
},
{
segmentType = line;
smooth = 0;
x = 356;
y = 141;
},
{
segmentType = line;
smooth = 0;
x = 356;
y = 665;
},
{
segmentType = line;
smooth = 1;
x = 975;
y = 665;
},
{
smooth = 0;
x = 1024;
y = 665;
},
{
smooth = 0;
x = 1049;
y = 698;
},
{
segmentType = curve;
smooth = 1;
x = 1049;
y = 734;
},
{
smooth = 0;
x = 1049;
y = 770;
},
{
smooth = 0;
x = 1026;
y = 803;
},
{
segmentType = curve;
smooth = 1;
x = 975;
y = 803;
},
{
segmentType = line;
smooth = 0;
x = 356;
y = 803;
},
{
segmentType = line;
smooth = 0;
x = 356;
y = 1285;
},
{
segmentType = line;
smooth = 1;
x = 1007;
y = 1285;
},
{
smooth = 0;
x = 1056;
y = 1285;
},
{
smooth = 0;
x = 1080;
y = 1319;
},
{
segmentType = curve;
smooth = 1;
x = 1080;
y = 1356;
},
{
smooth = 0;
x = 1080;
y = 1392;
},
{
smooth = 0;
x = 1056;
y = 1426;
},
{
segmentType = curve;
smooth = 1;
x = 1007;
y = 1426;
},
{
segmentType = line;
smooth = 1;
x = 261;
y = 1426;
},
{
smooth = 0;
x = 213;
y = 1426;
},
{
smooth = 0;
x = 178;
y = 1383;
},
{
segmentType = curve;
smooth = 1;
x = 178;
y = 1340;
},
{
segmentType = line;
smooth = 1;
x = 178;
y = 86;
},
{
smooth = 0;
x = 178;
y = 41;
},
{
smooth = 0;
x = 222;
y = 0;
}
);
}
);
lib = {
};
name = Z;
unicodes = (
);
width = 1165;
};
};
components = (
);
contours = (
);
lib = {
};
name = Z;
unicodes = (
);
width = 1222;
};
},
{
color = 3;
glyphname = a;
lastChange = "2019-01-29 12:35:19 +0000";
layers = (
{
anchors = (
{
name = bottom;
position = "{362, 0}";
},
{
name = ogonek;
position = "{594, 10}";
},
{
name = top;
position = "{362, 511}";
}
);
background = {
anchors = (
{
name = bottom;
position = "{362, 0}";
},
{
name = ogonek;
position = "{594, 10}";
},
{
name = top;
position = "{362, 511}";
}
);
paths = (
{
closed = 1;
nodes = (
"388 -9 OFFCURVE",
"450 18 OFFCURVE",
"478 62 CURVE",
"467 102 LINE",
"467 68 OFFCURVE",
"467 34 OFFCURVE",
"466 0 CURVE",
"518 1 OFFCURVE",
"569 1 OFFCURVE",
"621 0 CURVE",
"620 85 OFFCURVE",
"619 171 OFFCURVE",
"619 256 CURVE SMOOTH",
"619 340 OFFCURVE",
"620 423 OFFCURVE",
"621 507 CURVE",
"569 506 OFFCURVE",
"516 506 OFFCURVE",
"464 507 CURVE",
"465 472 OFFCURVE",
"465 438 OFFCURVE",
"465 403 CURVE",
"478 450 LINE",
"450 494 OFFCURVE",
"388 521 OFFCURVE",
"308 521 CURVE SMOOTH",
"163 521 OFFCURVE",
"33 412 OFFCURVE",
"33 256 CURVE SMOOTH",
"33 100 OFFCURVE",
"163 -9 OFFCURVE",
"308 -9 CURVE SMOOTH"
);
},
{
closed = 1;
nodes = (
"251 116 OFFCURVE",
"196 172 OFFCURVE",
"196 256 CURVE SMOOTH",
"196 336 OFFCURVE",
"255 396 OFFCURVE",
"334 396 CURVE SMOOTH",
"413 396 OFFCURVE",
"469 338 OFFCURVE",
"469 256 CURVE SMOOTH",
"469 173 OFFCURVE",
"413 116 OFFCURVE",
"334 116 CURVE SMOOTH"
);
}
);
};
layerId = "E1B555A7-F4E1-459C-9C1A-AE952106EEF9";
paths = (
{
closed = 1;
nodes = (
"388 -9 OFFCURVE",
"450 18 OFFCURVE",
"478 62 CURVE",
"467 102 LINE",
"467 68 OFFCURVE",
"467 34 OFFCURVE",
"466 0 CURVE",
"518 1 OFFCURVE",
"569 1 OFFCURVE",
"623 0 CURVE",
"620 85 OFFCURVE",
"619 171 OFFCURVE",
"619 256 CURVE SMOOTH",
"619 340 OFFCURVE",
"620 423 OFFCURVE",
"623 507 CURVE",
"569 506 OFFCURVE",
"516 506 OFFCURVE",
"464 507 CURVE",
"465 472 OFFCURVE",
"465 438 OFFCURVE",
"465 403 CURVE",
"478 450 LINE",
"450 494 OFFCURVE",
"388 521 OFFCURVE",
"308 521 CURVE SMOOTH",
"163 521 OFFCURVE",
"33 412 OFFCURVE",
"33 256 CURVE SMOOTH",
"33 100 OFFCURVE",
"163 -9 OFFCURVE",
"308 -9 CURVE SMOOTH"
);
},
{
closed = 1;
nodes = (
"251 116 OFFCURVE",
"196 172 OFFCURVE",
"196 256 CURVE SMOOTH",
"196 336 OFFCURVE",
"255 396 OFFCURVE",
"334 396 CURVE SMOOTH",
"413 396 OFFCURVE",
"469 338 OFFCURVE",
"469 256 CURVE SMOOTH",
"469 173 OFFCURVE",
"413 116 OFFCURVE",
"334 116 CURVE SMOOTH"
);
}
);
width = 683;
},
{
anchors = (
{
name = bottom;
position = "{355, 0}";
},
{
name = ogonek;
position = "{560, 10}";
},
{
name = top;
position = "{355, 506}";
}
);
background = {
anchors = (
{
name = bottom;
position = "{355, 0}";
},
{
name = ogonek;
position = "{560, 10}";
},
{
name = top;
position = "{355, 506}";
}
);
paths = (
{
closed = 1;
nodes = (
"408 -7 OFFCURVE",
"493 43 OFFCURVE",
"520 120 CURVE",
"509 140 LINE",
"509 93 OFFCURVE",
"509 47 OFFCURVE",
"508 0 CURVE",
"527 1 OFFCURVE",
"546 1 OFFCURVE",
"565 0 CURVE",
"564 84 OFFCURVE",
"563 167 OFFCURVE",
"563 253 CURVE SMOOTH",
"563 334 OFFCURVE",
"564 418 OFFCURVE",
"565 501 CURVE",
"546 500 OFFCURVE",
"527 500 OFFCURVE",
"508 501 CURVE",
"509 456 OFFCURVE",
"509 411 OFFCURVE",
"509 366 CURVE",
"520 387 LINE",
"493 464 OFFCURVE",
"408 513 OFFCURVE",
"312 513 CURVE SMOOTH",
"150 513 OFFCURVE",
"51 393 OFFCURVE",
"51 251 CURVE SMOOTH",
"51 109 OFFCURVE",
"150 -7 OFFCURVE",
"312 -7 CURVE SMOOTH"
);
},
{
closed = 1;
nodes = (
"179 44 OFFCURVE",
"113 144 OFFCURVE",
"113 251 CURVE SMOOTH",
"113 358 OFFCURVE",
"179 463 OFFCURVE",
"312 463 CURVE SMOOTH",
"430 463 OFFCURVE",
"510 379 OFFCURVE",
"510 253 CURVE SMOOTH",
"510 127 OFFCURVE",
"431 44 OFFCURVE",
"313 44 CURVE SMOOTH"
);
}
);
};
layerId = "9E718F8A-2CEA-4931-B05D-987794BD97DA";
paths = (
{
closed = 1;
nodes = (
"408 -7 OFFCURVE",
"493 43 OFFCURVE",
"520 120 CURVE",
"509 140 LINE",
"509 93 OFFCURVE",
"509 47 OFFCURVE",
"508 0 CURVE",
"527 1 OFFCURVE",
"546 1 OFFCURVE",
"565 0 CURVE",
"564 84 OFFCURVE",
"563 167 OFFCURVE",
"563 253 CURVE SMOOTH",
"563 334 OFFCURVE",
"564 418 OFFCURVE",
"565 501 CURVE",
"546 500 OFFCURVE",
"527 500 OFFCURVE",
"508 501 CURVE",
"509 456 OFFCURVE",
"509 411 OFFCURVE",
"509 366 CURVE",
"520 387 LINE",
"493 464 OFFCURVE",
"408 513 OFFCURVE",
"312 513 CURVE SMOOTH",
"150 513 OFFCURVE",
"51 393 OFFCURVE",
"51 251 CURVE SMOOTH",
"51 109 OFFCURVE",
"150 -7 OFFCURVE",
"312 -7 CURVE SMOOTH"
);
},
{
closed = 1;
nodes = (
"179 44 OFFCURVE",
"113 144 OFFCURVE",
"113 251 CURVE SMOOTH",
"113 358 OFFCURVE",
"179 463 OFFCURVE",
"312 463 CURVE SMOOTH",
"430 463 OFFCURVE",
"510 379 OFFCURVE",
"510 253 CURVE SMOOTH",
"510 127 OFFCURVE",
"431 44 OFFCURVE",
"313 44 CURVE SMOOTH"
);
}
);
width = 651;
}
);
leftKerningGroup = o;
rightKerningGroup = u;
unicode = 0061;
userData = {
anchors = (
);
b = {
};
com.typemytype.robofont.layerData = {
b = {
anchors = (
);
components = (
);
contours = (
);
lib = {
};
name = p;
unicodes = (
);
width = 1181;
};
};
components = (
);
contours = (
);
lib = {
};
name = p;
unicodes = (
);
width = 1207;
};
},
{
glyphname = aogonek;
lastChange = "2019-01-29 12:30:49 +0000";
layers = (
{
background = {
paths = (
{
closed = 1;
nodes = (
"571 507 LINE",
"416 507 LINE",
"416 403 LINE",
"428 411 LINE",
"405 477 OFFCURVE",
"338 520 OFFCURVE",
"257 520 CURVE SMOOTH",
"125 520 OFFCURVE",
"33 410 OFFCURVE",
"33 253 CURVE SMOOTH",
"33 96 OFFCURVE",
"123 -8 OFFCURVE",
"257 -8 CURVE SMOOTH",
"338 -8 OFFCURVE",
"405 33 OFFCURVE",
"428 100 CURVE",
"416 103 LINE",
"416 0 LINE",
"460 0 LINE",
"473 38 LINE",
"411 13 OFFCURVE",
"375 -32 OFFCURVE",
"375 -88 CURVE SMOOTH",
"375 -156 OFFCURVE",
"430 -204 OFFCURVE",
"506 -204 CURVE SMOOTH",
"543 -204 OFFCURVE",
"580 -196 OFFCURVE",
"611 -183 CURVE",
"593 -109 LINE",
"573 -118 OFFCURVE",
"555 -122 OFFCURVE",
"537 -122 CURVE SMOOTH",
"497 -122 OFFCURVE",
"475 -103 OFFCURVE",
"475 -67 CURVE SMOOTH",
"475 -27 OFFCURVE",
"510 0 OFFCURVE",
"562 0 CURVE SMOOTH",
"571 0 LINE"
);
},
{
closed = 1;
nodes = (
"230 111 OFFCURVE",
"189 161 OFFCURVE",
"189 253 CURVE SMOOTH",
"189 346 OFFCURVE",
"232 400 OFFCURVE",
"303 400 CURVE SMOOTH",
"375 400 OFFCURVE",
"416 349 OFFCURVE",
"416 255 CURVE SMOOTH",
"416 162 OFFCURVE",
"375 111 OFFCURVE",
"303 111 CURVE SMOOTH"
);
}
);
};
layerId = "E1B555A7-F4E1-459C-9C1A-AE952106EEF9";
paths = (
{
closed = 1;
nodes = (
"571 507 LINE",
"416 507 LINE",
"416 403 LINE",
"428 411 LINE",
"405 477 OFFCURVE",
"338 520 OFFCURVE",
"257 520 CURVE SMOOTH",
"125 520 OFFCURVE",
"33 410 OFFCURVE",
"33 253 CURVE SMOOTH",
"33 96 OFFCURVE",
"123 -8 OFFCURVE",
"257 -8 CURVE SMOOTH",
"338 -8 OFFCURVE",
"405 33 OFFCURVE",
"428 100 CURVE",
"416 103 LINE",
"416 0 LINE",
"460 0 LINE",
"473 38 LINE",
"411 13 OFFCURVE",
"375 -32 OFFCURVE",
"375 -88 CURVE SMOOTH",
"375 -156 OFFCURVE",
"430 -204 OFFCURVE",
"506 -204 CURVE SMOOTH",
"543 -204 OFFCURVE",
"580 -196 OFFCURVE",
"611 -183 CURVE",
"593 -109 LINE",
"573 -118 OFFCURVE",
"555 -122 OFFCURVE",
"537 -122 CURVE SMOOTH",
"497 -122 OFFCURVE",
"475 -103 OFFCURVE",
"475 -67 CURVE SMOOTH",
"475 -27 OFFCURVE",
"510 0 OFFCURVE",
"562 0 CURVE SMOOTH",
"571 0 LINE"
);
},
{
closed = 1;
nodes = (
"230 111 OFFCURVE",
"189 161 OFFCURVE",
"189 253 CURVE SMOOTH",
"189 346 OFFCURVE",
"232 400 OFFCURVE",
"303 400 CURVE SMOOTH",
"375 400 OFFCURVE",
"416 349 OFFCURVE",
"416 255 CURVE SMOOTH",
"416 162 OFFCURVE",
"375 111 OFFCURVE",
"303 111 CURVE SMOOTH"
);
}
);
width = 633;
},
{
background = {
paths = (
{
closed = 1;
nodes = (
"501 501 LINE",
"447 501 LINE",
"447 366 LINE",
"459 375 LINE",
"436 464 OFFCURVE",
"369 513 OFFCURVE",
"273 513 CURVE SMOOTH",
"140 513 OFFCURVE",
"50 409 OFFCURVE",
"50 251 CURVE SMOOTH",
"50 94 OFFCURVE",
"138 -7 OFFCURVE",
"273 -7 CURVE SMOOTH",
"369 -7 OFFCURVE",
"436 42 OFFCURVE",
"459 132 CURVE",
"447 114 LINE",
"447 0 LINE",
"464 0 LINE",
"485 39 LINE",
"402 26 OFFCURVE",
"351 -24 OFFCURVE",
"351 -91 CURVE SMOOTH",
"351 -154 OFFCURVE",
"398 -197 OFFCURVE",
"467 -197 CURVE SMOOTH",
"499 -197 OFFCURVE",
"528 -189 OFFCURVE",
"550 -174 CURVE",
"533 -134 LINE",
"511 -147 OFFCURVE",
"490 -154 OFFCURVE",
"472 -154 CURVE SMOOTH",
"429 -154 OFFCURVE",
"402 -127 OFFCURVE",
"402 -85 CURVE SMOOTH",
"402 -35 OFFCURVE",
"441 0 OFFCURVE",
"497 0 CURVE SMOOTH",
"501 0 LINE"
);
},
{
closed = 1;
nodes = (
"171 42 OFFCURVE",
"107 118 OFFCURVE",
"107 251 CURVE SMOOTH",
"107 385 OFFCURVE",
"171 464 OFFCURVE",
"278 464 CURVE SMOOTH",
"386 464 OFFCURVE",
"447 388 OFFCURVE",
"447 253 CURVE SMOOTH",
"447 119 OFFCURVE",
"386 42 OFFCURVE",
"279 42 CURVE SMOOTH"
);
}
);
};
layerId = "9E718F8A-2CEA-4931-B05D-987794BD97DA";
paths = (
{
closed = 1;
nodes = (
"501 501 LINE",
"447 501 LINE",
"447 366 LINE",
"459 375 LINE",
"436 464 OFFCURVE",
"369 513 OFFCURVE",
"273 513 CURVE SMOOTH",
"140 513 OFFCURVE",
"50 409 OFFCURVE",
"50 251 CURVE SMOOTH",
"50 94 OFFCURVE",
"138 -7 OFFCURVE",
"273 -7 CURVE SMOOTH",
"369 -7 OFFCURVE",
"436 42 OFFCURVE",
"459 132 CURVE",
"447 114 LINE",
"447 0 LINE",
"464 0 LINE",
"485 39 LINE",
"402 26 OFFCURVE",
"351 -24 OFFCURVE",
"351 -91 CURVE SMOOTH",
"351 -154 OFFCURVE",
"398 -197 OFFCURVE",
"467 -197 CURVE SMOOTH",
"499 -197 OFFCURVE",
"528 -189 OFFCURVE",
"550 -174 CURVE",
"533 -134 LINE",
"511 -147 OFFCURVE",
"490 -154 OFFCURVE",
"472 -154 CURVE SMOOTH",
"429 -154 OFFCURVE",
"402 -127 OFFCURVE",
"402 -85 CURVE SMOOTH",
"402 -35 OFFCURVE",
"441 0 OFFCURVE",
"497 0 CURVE SMOOTH",
"501 0 LINE"
);
},
{
closed = 1;
nodes = (
"171 42 OFFCURVE",
"107 118 OFFCURVE",
"107 251 CURVE SMOOTH",
"107 385 OFFCURVE",
"171 464 OFFCURVE",
"278 464 CURVE SMOOTH",
"386 464 OFFCURVE",
"447 388 OFFCURVE",
"447 253 CURVE SMOOTH",
"447 119 OFFCURVE",
"386 42 OFFCURVE",
"279 42 CURVE SMOOTH"
);
}
);
width = 588;
}
);
leftKerningGroup = o;
rightKerningGroup = u;
unicode = 0105;
userData = {
com.typemytype.robofont.layerData = {
b = {
anchors = (
);
components = (
);
contours = (
);
lib = {
};
name = aogonek;
unicodes = (
);
width = 1040;
};
};
};
},
{
glyphname = ae;
lastChange = "2019-01-29 12:30:49 +0000";
layers = (
{
anchors = (
{
name = bottom;
position = "{429, 0}";
},
{
name = top;
position = "{429, 511}";
}
);
background = {
anchors = (
{
name = bottom;
position = "{429, 0}";
},
{
name = top;
position = "{429, 511}";
}
);
paths = (
{
closed = 1;
nodes = (
"695 -8 OFFCURVE",
"772 15 OFFCURVE",
"820 54 CURVE",
"779 159 LINE",
"734 127 OFFCURVE",
"681 109 OFFCURVE",
"634 109 CURVE SMOOTH",
"540 109 OFFCURVE",
"503 166 OFFCURVE",
"503 251 CURVE SMOOTH",
"503 365 OFFCURVE",
"540 411 OFFCURVE",
"607 411 CURVE SMOOTH",
"665 411 OFFCURVE",
"697 367 OFFCURVE",
"696 286 CURVE",
"735 317 LINE",
"493 317 LINE",
"492 240 LINE",
"829 240 LINE",
"829 262 LINE SMOOTH",
"829 416 OFFCURVE",
"741 520 OFFCURVE",
"611 520 CURVE SMOOTH",
"469 520 OFFCURVE",
"374 413 OFFCURVE",
"374 255 CURVE SMOOTH",
"375 87 OFFCURVE",
"465 -8 OFFCURVE",
"624 -8 CURVE SMOOTH"
);
},
{
closed = 1;
nodes = (
"357 -8 OFFCURVE",
"437 67 OFFCURVE",
"437 198 CURVE",
"488 208 LINE",
"488 300 LINE SMOOTH",
"488 450 OFFCURVE",
"423 520 OFFCURVE",
"282 520 CURVE SMOOTH",
"209 520 OFFCURVE",
"115 493 OFFCURVE",
"58 457 CURVE",
"99 351 LINE",
"154 383 OFFCURVE",
"218 402 OFFCURVE",
"273 402 CURVE SMOOTH",
"331 402 OFFCURVE",
"354 378 OFFCURVE",
"354 320 CURVE SMOOTH",
"354 209 LINE SMOOTH",
"354 148 OFFCURVE",
"323 100 OFFCURVE",
"261 100 CURVE SMOOTH",
"218 100 OFFCURVE",
"189 125 OFFCURVE",
"189 165 CURVE SMOOTH",
"189 215 OFFCURVE",
"227 242 OFFCURVE",
"326 242 CURVE SMOOTH",
"361 242 LINE",
"361 317 LINE",
"317 317 LINE SMOOTH",
"115 317 OFFCURVE",
"37 269 OFFCURVE",
"37 159 CURVE SMOOTH",
"37 59 OFFCURVE",
"123 -8 OFFCURVE",
"240 -8 CURVE SMOOTH"
);
}
);
};
layerId = "E1B555A7-F4E1-459C-9C1A-AE952106EEF9";
paths = (
{
closed = 1;
nodes = (
"695 -8 OFFCURVE",
"772 15 OFFCURVE",
"820 54 CURVE",
"779 159 LINE",
"734 127 OFFCURVE",
"681 109 OFFCURVE",
"634 109 CURVE SMOOTH",
"540 109 OFFCURVE",
"503 166 OFFCURVE",
"503 251 CURVE SMOOTH",
"503 365 OFFCURVE",
"540 411 OFFCURVE",
"607 411 CURVE SMOOTH",
"665 411 OFFCURVE",
"697 367 OFFCURVE",
"696 286 CURVE",
"735 317 LINE",
"493 317 LINE",
"492 240 LINE",
"829 240 LINE",
"829 262 LINE SMOOTH",
"829 416 OFFCURVE",
"741 520 OFFCURVE",
"611 520 CURVE SMOOTH",
"469 520 OFFCURVE",
"374 413 OFFCURVE",
"374 255 CURVE SMOOTH",
"375 87 OFFCURVE",
"465 -8 OFFCURVE",
"624 -8 CURVE SMOOTH"
);
},
{
closed = 1;
nodes = (
"357 -8 OFFCURVE",
"437 67 OFFCURVE",
"437 198 CURVE",
"488 208 LINE",
"488 300 LINE SMOOTH",
"488 450 OFFCURVE",
"423 520 OFFCURVE",
"282 520 CURVE SMOOTH",
"209 520 OFFCURVE",
"115 493 OFFCURVE",
"58 457 CURVE",
"99 351 LINE",
"154 383 OFFCURVE",
"218 402 OFFCURVE",
"273 402 CURVE SMOOTH",
"331 402 OFFCURVE",
"354 378 OFFCURVE",
"354 320 CURVE SMOOTH",
"354 209 LINE SMOOTH",
"354 148 OFFCURVE",
"323 100 OFFCURVE",
"261 100 CURVE SMOOTH",
"218 100 OFFCURVE",
"189 125 OFFCURVE",
"189 165 CURVE SMOOTH",
"189 215 OFFCURVE",
"227 242 OFFCURVE",
"326 242 CURVE SMOOTH",
"361 242 LINE",
"361 317 LINE",
"317 317 LINE SMOOTH",
"115 317 OFFCURVE",
"37 269 OFFCURVE",
"37 159 CURVE SMOOTH",
"37 59 OFFCURVE",
"123 -8 OFFCURVE",
"240 -8 CURVE SMOOTH"
);
}
);
width = 865;
},
{
anchors = (
{
name = bottom;
position = "{434, 0}";
},
{
name = top;
position = "{434, 506}";
}
);
background = {
anchors = (
{
name = bottom;
position = "{434, 0}";
},
{
name = top;
position = "{434, 506}";
}
);
paths = (
{
closed = 1;
nodes = (
"712 -7 OFFCURVE",
"785 21 OFFCURVE",
"827 62 CURVE",
"806 105 LINE",
"753 63 OFFCURVE",
"699 42 OFFCURVE",
"644 42 CURVE SMOOTH",
"527 42 OFFCURVE",
"461 117 OFFCURVE",
"461 254 CURVE SMOOTH",
"461 385 OFFCURVE",
"527 467 OFFCURVE",
"632 467 CURVE SMOOTH",
"733 467 OFFCURVE",
"789 395 OFFCURVE",
"786 264 CURVE",
"806 304 LINE",
"440 304 LINE",
"441 259 LINE",
"836 259 LINE",
"836 270 LINE SMOOTH",
"836 422 OFFCURVE",
"760 513 OFFCURVE",
"632 513 CURVE SMOOTH",
"499 513 OFFCURVE",
"407 405 OFFCURVE",
"412 249 CURVE SMOOTH",
"417 87 OFFCURVE",
"503 -7 OFFCURVE",
"645 -7 CURVE SMOOTH"
);
},
{
closed = 1;
nodes = (
"355 -7 OFFCURVE",
"428 64 OFFCURVE",
"440 177 CURVE",
"459 176 LINE",
"459 331 LINE",
"459 451 OFFCURVE",
"400 513 OFFCURVE",
"281 513 CURVE SMOOTH",
"213 513 OFFCURVE",
"137 490 OFFCURVE",
"88 452 CURVE",
"110 409 LINE",
"169 446 OFFCURVE",
"224 464 OFFCURVE",
"285 464 CURVE SMOOTH",
"371 464 OFFCURVE",
"406 422 OFFCURVE",
"406 324 CURVE SMOOTH",
"406 215 LINE SMOOTH",
"406 113 OFFCURVE",
"340 42 OFFCURVE",
"249 42 CURVE SMOOTH",
"177 42 OFFCURVE",
"125 85 OFFCURVE",
"125 152 CURVE SMOOTH",
"125 228 OFFCURVE",
"181 259 OFFCURVE",
"366 259 CURVE SMOOTH",
"417 259 LINE",
"417 304 LINE",
"364 304 LINE SMOOTH",
"143 304 OFFCURVE",
"66 258 OFFCURVE",
"67 147 CURVE SMOOTH",
"68 56 OFFCURVE",
"145 -7 OFFCURVE",
"246 -7 CURVE SMOOTH"
);
}
);
};
layerId = "9E718F8A-2CEA-4931-B05D-987794BD97DA";
paths = (
{
closed = 1;
nodes = (
"712 -7 OFFCURVE",
"785 21 OFFCURVE",
"827 62 CURVE",
"806 105 LINE",
"753 63 OFFCURVE",
"699 42 OFFCURVE",
"644 42 CURVE SMOOTH",
"527 42 OFFCURVE",
"461 117 OFFCURVE",
"461 254 CURVE SMOOTH",
"461 385 OFFCURVE",
"527 467 OFFCURVE",
"632 467 CURVE SMOOTH",
"733 467 OFFCURVE",
"789 395 OFFCURVE",
"786 264 CURVE",
"806 304 LINE",
"440 304 LINE",
"441 259 LINE",
"836 259 LINE",
"836 270 LINE SMOOTH",
"836 422 OFFCURVE",
"760 513 OFFCURVE",
"632 513 CURVE SMOOTH",
"499 513 OFFCURVE",
"407 405 OFFCURVE",
"412 249 CURVE SMOOTH",
"417 87 OFFCURVE",
"503 -7 OFFCURVE",
"645 -7 CURVE SMOOTH"
);
},
{
closed = 1;
nodes = (
"355 -7 OFFCURVE",
"428 64 OFFCURVE",
"440 177 CURVE",
"459 176 LINE",
"459 331 LINE",
"459 451 OFFCURVE",
"400 513 OFFCURVE",
"281 513 CURVE SMOOTH",
"213 513 OFFCURVE",
"137 490 OFFCURVE",
"88 452 CURVE",
"110 409 LINE",
"169 446 OFFCURVE",
"224 464 OFFCURVE",
"285 464 CURVE SMOOTH",
"371 464 OFFCURVE",
"406 422 OFFCURVE",
"406 324 CURVE SMOOTH",
"406 215 LINE SMOOTH",
"406 113 OFFCURVE",
"340 42 OFFCURVE",
"249 42 CURVE SMOOTH",
"177 42 OFFCURVE",
"125 85 OFFCURVE",
"125 152 CURVE SMOOTH",
"125 228 OFFCURVE",
"181 259 OFFCURVE",
"366 259 CURVE SMOOTH",
"417 259 LINE",
"417 304 LINE",
"364 304 LINE SMOOTH",
"143 304 OFFCURVE",
"66 258 OFFCURVE",
"67 147 CURVE SMOOTH",
"68 56 OFFCURVE",
"145 -7 OFFCURVE",
"246 -7 CURVE SMOOTH"
);
}
);
width = 887;
}
);
leftKerningGroup = a;
rightKerningGroup = e;
unicode = 00E6;
userData = {
com.typemytype.robofont.layerData = {
b = {
anchors = (
);
components = (
);
contours = (
);
lib = {
};
name = ae;
unicodes = (
);
width = 1734;
};
};
};
},
{
color = 3;
glyphname = b;
lastChange = "2019-01-29 12:35:32 +0000";
layers = (
{
anchors = (
{
name = bottom;
position = "{320, 0}";
},
{
name = top;
position = "{377, 511}";
}
);
background = {
anchors = (
{
name = bottom;
position = "{320, 0}";
},
{
name = top;
position = "{377, 511}";
}
);
paths = (
{
closed = 1;
nodes = (
"518 -9 OFFCURVE",
"648 100 OFFCURVE",
"648 256 CURVE SMOOTH",
"648 412 OFFCURVE",
"518 521 OFFCURVE",
"378 521 CURVE SMOOTH",
"298 521 OFFCURVE",
"236 494 OFFCURVE",
"203 453 CURVE",
"221 403 LINE",
"221 522 OFFCURVE",
"222 641 OFFCURVE",
"223 760 CURVE",
"168 759 OFFCURVE",
"113 759 OFFCURVE",
"60 760 CURVE",
"61 634 OFFCURVE",
"62 507 OFFCURVE",
"62 380 CURVE SMOOTH",
"62 253 OFFCURVE",
"61 127 OFFCURVE",
"60 0 CURVE",
"111 1 OFFCURVE",
"163 1 OFFCURVE",
"214 0 CURVE",
"214 34 OFFCURVE",
"214 68 OFFCURVE",
"215 102 CURVE",
"203 62 LINE",
"227 18 OFFCURVE",
"298 -9 OFFCURVE",
"378 -9 CURVE SMOOTH"
);
},
{
closed = 1;
nodes = (
"271 117 OFFCURVE",
"212 174 OFFCURVE",
"212 257 CURVE SMOOTH",
"212 339 OFFCURVE",
"271 397 OFFCURVE",
"352 397 CURVE SMOOTH",
"426 397 OFFCURVE",
"485 337 OFFCURVE",
"485 257 CURVE SMOOTH",
"485 173 OFFCURVE",
"430 117 OFFCURVE",
"352 117 CURVE SMOOTH"
);
}
);
};
layerId = "E1B555A7-F4E1-459C-9C1A-AE952106EEF9";
paths = (
{
closed = 1;
nodes = (
"518 -9 OFFCURVE",
"648 100 OFFCURVE",
"648 256 CURVE SMOOTH",
"648 412 OFFCURVE",
"518 521 OFFCURVE",
"378 521 CURVE SMOOTH",
"298 521 OFFCURVE",
"236 494 OFFCURVE",
"203 453 CURVE",
"221 403 LINE",
"221 522 OFFCURVE",
"222 641 OFFCURVE",
"225 760 CURVE",
"168 759 OFFCURVE",
"113 759 OFFCURVE",
"58 760 CURVE",
"61 634 OFFCURVE",
"62 507 OFFCURVE",
"62 380 CURVE SMOOTH",
"62 253 OFFCURVE",
"61 127 OFFCURVE",
"58 0 CURVE",
"111 1 OFFCURVE",
"163 1 OFFCURVE",
"214 0 CURVE",
"214 34 OFFCURVE",
"214 68 OFFCURVE",
"215 102 CURVE",
"203 62 LINE",
"227 18 OFFCURVE",
"298 -9 OFFCURVE",
"378 -9 CURVE SMOOTH"
);
},
{
closed = 1;
nodes = (
"271 117 OFFCURVE",
"212 174 OFFCURVE",
"212 257 CURVE SMOOTH",
"212 339 OFFCURVE",
"271 397 OFFCURVE",
"352 397 CURVE SMOOTH",
"426 397 OFFCURVE",
"485 337 OFFCURVE",
"485 257 CURVE SMOOTH",
"485 173 OFFCURVE",
"430 117 OFFCURVE",
"352 117 CURVE SMOOTH"
);
}
);
width = 683;
},
{
anchors = (
{
name = bottom;
position = "{312, 0}";
},
{
name = top;
position = "{314, 506}";
}
);
background = {
anchors = (
{
name = bottom;
position = "{312, 0}";
},
{
name = top;
position = "{314, 506}";
}
);
paths = (
{
closed = 1;
nodes = (
"499 -7 OFFCURVE",
"598 109 OFFCURVE",
"598 251 CURVE SMOOTH",
"598 393 OFFCURVE",
"499 513 OFFCURVE",
"342 513 CURVE SMOOTH",
"246 513 OFFCURVE",
"163 462 OFFCURVE",
"127 387 CURVE",
"140 366 LINE",
"140 497 OFFCURVE",
"141 629 OFFCURVE",
"142 760 CURVE",
"122 759 OFFCURVE",
"104 759 OFFCURVE",
"84 760 CURVE",
"85 634 OFFCURVE",
"86 507 OFFCURVE",
"86 380 CURVE SMOOTH",
"86 253 OFFCURVE",
"85 127 OFFCURVE",
"84 0 CURVE",
"104 1 OFFCURVE",
"122 1 OFFCURVE",
"141 0 CURVE",
"140 47 OFFCURVE",
"140 93 OFFCURVE",
"140 140 CURVE",
"129 117 LINE",
"161 41 OFFCURVE",
"246 -7 OFFCURVE",
"342 -7 CURVE SMOOTH"
);
},
{
closed = 1;
nodes = (
"223 44 OFFCURVE",
"139 128 OFFCURVE",
"139 253 CURVE SMOOTH",
"139 378 OFFCURVE",
"224 463 OFFCURVE",
"342 463 CURVE SMOOTH",
"470 463 OFFCURVE",
"536 358 OFFCURVE",
"536 251 CURVE SMOOTH",
"536 145 OFFCURVE",
"470 44 OFFCURVE",
"341 44 CURVE SMOOTH"
);
}
);
};
layerId = "9E718F8A-2CEA-4931-B05D-987794BD97DA";
paths = (
{
closed = 1;
nodes = (
"499 -7 OFFCURVE",
"598 109 OFFCURVE",
"598 251 CURVE SMOOTH",
"598 393 OFFCURVE",
"499 513 OFFCURVE",
"342 513 CURVE SMOOTH",
"246 513 OFFCURVE",
"163 462 OFFCURVE",
"127 387 CURVE",
"140 366 LINE",
"140 497 OFFCURVE",
"141 629 OFFCURVE",
"142 760 CURVE",
"122 759 OFFCURVE",
"104 759 OFFCURVE",
"84 760 CURVE",
"85 634 OFFCURVE",
"86 507 OFFCURVE",
"86 380 CURVE SMOOTH",
"86 253 OFFCURVE",
"85 127 OFFCURVE",
"84 0 CURVE",
"104 1 OFFCURVE",
"122 1 OFFCURVE",
"141 0 CURVE",
"140 47 OFFCURVE",
"140 93 OFFCURVE",
"140 140 CURVE",
"129 117 LINE",
"161 41 OFFCURVE",
"246 -7 OFFCURVE",
"342 -7 CURVE SMOOTH"
);
},
{
closed = 1;
nodes = (
"223 44 OFFCURVE",
"139 128 OFFCURVE",
"139 253 CURVE SMOOTH",
"139 378 OFFCURVE",
"224 463 OFFCURVE",
"342 463 CURVE SMOOTH",
"470 463 OFFCURVE",
"536 358 OFFCURVE",
"536 251 CURVE SMOOTH",
"536 145 OFFCURVE",
"470 44 OFFCURVE",
"341 44 CURVE SMOOTH"
);
}
);
width = 651;
}
);
leftKerningGroup = h;
rightKerningGroup = o;
unicode = 0062;
userData = {
anchors = (
);
b = {
};
com.typemytype.robofont.layerData = {
b = {
anchors = (
);
components = (
);
contours = (
{
points = (
{
segmentType = curve;
smooth = 1;
x = 238;
y = 1425;
},
{
smooth = 0;
x = 198;
y = 1425;
},
{
smooth = 0;
x = 158;
y = 1400;
},
{
segmentType = curve;
smooth = 1;
x = 158;
y = 1351;
},
{
segmentType = line;
smooth = 1;
x = 158;
y = 76;
},
{
smooth = 0;
x = 158;
y = 27;
},
{
smooth = 0;
x = 197;
y = 3;
},
{
segmentType = curve;
smooth = 1;
x = 237;
y = 3;
},
{
smooth = 0;
x = 297;
y = 3;
},
{
smooth = 0;
x = 318;
y = 38;
},
{
segmentType = curve;
smooth = 1;
x = 318;
y = 76;
},
{
segmentType = line;
smooth = 0;
x = 318;
y = 183;
},
{
smooth = 0;
x = 384;
y = 46;
},
{
smooth = 0;
x = 516;
y = "-20";
},
{
segmentType = curve;
smooth = 1;
x = 666;
y = "-20";
},
{
smooth = 0;
x = 957;
y = "-20";
},
{
smooth = 0;
x = 1095;
y = 225;
},
{
segmentType = curve;
smooth = 1;
x = 1095;
y = 502;
},
{
smooth = 0;
x = 1095;
y = 777;
},
{
smooth = 0;
x = 939;
y = 1013;
},
{
segmentType = curve;
smooth = 1;
x = 650;
y = 1013;
},
{
smooth = 0;
x = 503;
y = 1013;
},
{
smooth = 0;
x = 376;
y = 942;
},
{
segmentType = curve;
smooth = 0;
x = 318;
y = 814;
},
{
segmentType = line;
smooth = 1;
x = 318;
y = 1351;
},
{
smooth = 0;
x = 318;
y = 1400;
},
{
smooth = 0;
x = 278;
y = 1425;
}
);
},
{
points = (
{
segmentType = curve;
smooth = 1;
x = 632;
y = 903;
},
{
smooth = 0;
x = 859;
y = 903;
},
{
smooth = 0;
x = 935;
y = 685;
},
{
segmentType = curve;
smooth = 1;
x = 935;
y = 496;
},
{
smooth = 0;
x = 935;
y = 316;
},
{
smooth = 0;
x = 869;
y = 93;
},
{
segmentType = curve;
smooth = 0;
x = 645;
y = 90;
},
{
smooth = 0;
x = 395;
y = 90;
},
{
smooth = 0;
x = 319;
y = 279;
},
{
segmentType = curve;
smooth = 1;
x = 319;
y = 501;
},
{
smooth = 0;
x = 319;
y = 701;
},
{
smooth = 0;
x = 407;
y = 903;
}
);
}
);
lib = {
};
name = b;
unicodes = (
);
width = 1181;
};
};
components = (
);
contours = (
);
lib = {
};
name = b;
unicodes = (
);
width = 1203;
};
},
{
color = 3;
glyphname = c;
lastChange = "2019-01-29 12:30:49 +0000";
layers = (
{
anchors = (
{
name = bottom;
position = "{293, 0}";
},
{
name = top;
position = "{302, 511}";
}
);
background = {
anchors = (
{
name = bottom;
position = "{293, 0}";
},
{
name = top;
position = "{302, 511}";
}
);
paths = (
{
closed = 1;
nodes = (
"424 -9 OFFCURVE",
"495 18 OFFCURVE",
"543 75 CURVE",
"443 179 LINE",
"413 135 OFFCURVE",
"375 119 OFFCURVE",
"331 119 CURVE SMOOTH",
"253 119 OFFCURVE",
"196 180 OFFCURVE",
"196 256 CURVE SMOOTH",
"196 334 OFFCURVE",
"253 395 OFFCURVE",
"331 395 CURVE SMOOTH",
"375 395 OFFCURVE",
"413 379 OFFCURVE",
"443 335 CURVE",
"543 437 LINE",
"495 494 OFFCURVE",
"424 521 OFFCURVE",
"330 521 CURVE SMOOTH",
"165 521 OFFCURVE",
"33 414 OFFCURVE",
"33 256 CURVE",
"33 98 OFFCURVE",
"162 -9 OFFCURVE",
"330 -9 CURVE SMOOTH"
);
}
);
};
layerId = "E1B555A7-F4E1-459C-9C1A-AE952106EEF9";
paths = (
{
closed = 1;
nodes = (
"424 -9 OFFCURVE",
"495 18 OFFCURVE",
"543 75 CURVE",
"443 179 LINE",
"413 135 OFFCURVE",
"375 119 OFFCURVE",
"331 119 CURVE SMOOTH",
"253 119 OFFCURVE",
"196 180 OFFCURVE",
"196 256 CURVE SMOOTH",
"196 334 OFFCURVE",
"253 395 OFFCURVE",
"331 395 CURVE SMOOTH",
"375 395 OFFCURVE",
"413 379 OFFCURVE",
"443 335 CURVE",
"543 437 LINE",
"495 494 OFFCURVE",
"424 521 OFFCURVE",
"330 521 CURVE SMOOTH",
"165 521 OFFCURVE",
"33 414 OFFCURVE",
"33 256 CURVE",
"33 98 OFFCURVE",
"162 -9 OFFCURVE",
"330 -9 CURVE SMOOTH"
);
}
);
width = 543;
},
{
anchors = (
{
name = bottom;
position = "{280, 0}";
},
{
name = top;
position = "{282, 506}";
}
);
background = {
anchors = (
{
name = bottom;
position = "{280, 0}";
},
{
name = top;
position = "{282, 506}";
}
);
paths = (
{
closed = 1;
nodes = (
"392 -7 OFFCURVE",
"465 16 OFFCURVE",
"520 89 CURVE",
"475 126 LINE",
"431 64 OFFCURVE",
"377 45 OFFCURVE",
"316 45 CURVE SMOOTH",
"196 45 OFFCURVE",
"113 132 OFFCURVE",
"113 253 CURVE SMOOTH",
"113 375 OFFCURVE",
"196 462 OFFCURVE",
"316 462 CURVE SMOOTH",
"377 462 OFFCURVE",
"431 443 OFFCURVE",
"475 381 CURVE",
"520 417 LINE",
"465 490 OFFCURVE",
"392 513 OFFCURVE",
"318 513 CURVE SMOOTH",
"162 513 OFFCURVE",
"51 403 OFFCURVE",
"51 253 CURVE SMOOTH",
"51 103 OFFCURVE",
"160 -7 OFFCURVE",
"318 -7 CURVE SMOOTH"
);
}
);
};
layerId = "9E718F8A-2CEA-4931-B05D-987794BD97DA";
paths = (
{
closed = 1;
nodes = (
"392 -7 OFFCURVE",
"465 16 OFFCURVE",
"520 89 CURVE",
"475 126 LINE",
"431 64 OFFCURVE",
"377 45 OFFCURVE",
"316 45 CURVE SMOOTH",
"196 45 OFFCURVE",
"113 132 OFFCURVE",
"113 253 CURVE SMOOTH",
"113 375 OFFCURVE",
"196 462 OFFCURVE",
"316 462 CURVE SMOOTH",
"377 462 OFFCURVE",
"431 443 OFFCURVE",
"475 381 CURVE",
"520 417 LINE",
"465 490 OFFCURVE",
"392 513 OFFCURVE",
"318 513 CURVE SMOOTH",
"162 513 OFFCURVE",
"51 403 OFFCURVE",
"51 253 CURVE SMOOTH",
"51 103 OFFCURVE",
"160 -7 OFFCURVE",
"318 -7 CURVE SMOOTH"
);
}
);
width = 539;
}
);
leftKerningGroup = o;
rightKerningGroup = c;
unicode = 0063;
userData = {
anchors = (
);
b = {
};
com.typemytype.robofont.layerData = {
b = {
anchors = (
);
components = (
);
contours = (
);
lib = {
};
name = c;
unicodes = (
);
width = 956.141;
};
};
components = (
);
contours = (
);
lib = {
};
name = c;
unicodes = (
);
width = 992;
};
},
{
color = 3;
glyphname = d;
lastChange = "2019-01-29 12:35:40 +0000";
layers = (
{
anchors = (
{
name = bottom;
position = "{315, 0}";
},
{
name = center;
position = "{333, 256}";
},
{
name = top;
position = "{315, 507}";
},
{
name = topright;
position = "{649, 760}";
}
);
background = {
anchors = (
{
name = bottom;
position = "{315, 0}";
},
{
name = center;
position = "{333, 256}";
},
{
name = top;
position = "{315, 507}";
},
{
name = topright;
position = "{649, 760}";
}
);
paths = (
{
closed = 1;
nodes = (
"388 -9 OFFCURVE",
"450 18 OFFCURVE",
"478 62 CURVE",
"467 102 LINE",
"467 68 OFFCURVE",
"467 34 OFFCURVE",
"466 0 CURVE",
"517 1 OFFCURVE",
"568 1 OFFCURVE",
"621 0 CURVE",
"620 127 OFFCURVE",
"619 253 OFFCURVE",
"619 380 CURVE SMOOTH",
"619 507 OFFCURVE",
"620 634 OFFCURVE",
"621 760 CURVE",
"566 759 OFFCURVE",
"512 759 OFFCURVE",
"458 760 CURVE",
"459 641 OFFCURVE",
"460 522 OFFCURVE",
"460 403 CURVE",
"478 450 LINE",
"450 494 OFFCURVE",
"388 521 OFFCURVE",
"308 521 CURVE SMOOTH",
"163 521 OFFCURVE",
"33 412 OFFCURVE",
"33 256 CURVE SMOOTH",
"33 100 OFFCURVE",
"163 -9 OFFCURVE",
"308 -9 CURVE SMOOTH"
);
},
{
closed = 1;
nodes = (
"251 117 OFFCURVE",
"196 173 OFFCURVE",
"196 257 CURVE SMOOTH",
"196 337 OFFCURVE",
"255 397 OFFCURVE",
"334 397 CURVE SMOOTH",
"413 397 OFFCURVE",
"469 339 OFFCURVE",
"469 257 CURVE SMOOTH",
"469 174 OFFCURVE",
"413 117 OFFCURVE",
"334 117 CURVE SMOOTH"
);
}
);
};
layerId = "E1B555A7-F4E1-459C-9C1A-AE952106EEF9";
paths = (
{
closed = 1;
nodes = (
"388 -9 OFFCURVE",
"450 18 OFFCURVE",
"478 62 CURVE",
"467 102 LINE",
"467 68 OFFCURVE",
"467 34 OFFCURVE",
"466 0 CURVE",
"517 1 OFFCURVE",
"568 1 OFFCURVE",
"623 0 CURVE",
"620 127 OFFCURVE",
"619 253 OFFCURVE",
"619 380 CURVE SMOOTH",
"619 507 OFFCURVE",
"620 634 OFFCURVE",
"623 760 CURVE",
"566 759 OFFCURVE",
"512 759 OFFCURVE",
"456 760 CURVE",
"459 641 OFFCURVE",
"460 522 OFFCURVE",
"460 403 CURVE",
"478 450 LINE",
"450 494 OFFCURVE",
"388 521 OFFCURVE",
"308 521 CURVE SMOOTH",
"163 521 OFFCURVE",
"33 412 OFFCURVE",
"33 256 CURVE SMOOTH",
"33 100 OFFCURVE",
"163 -9 OFFCURVE",
"308 -9 CURVE SMOOTH"
);
},
{
closed = 1;
nodes = (
"251 117 OFFCURVE",
"196 173 OFFCURVE",
"196 257 CURVE SMOOTH",
"196 337 OFFCURVE",
"255 397 OFFCURVE",
"334 397 CURVE SMOOTH",
"413 397 OFFCURVE",
"469 339 OFFCURVE",
"469 257 CURVE SMOOTH",
"469 174 OFFCURVE",
"413 117 OFFCURVE",
"334 117 CURVE SMOOTH"
);
}
);
width = 683;
},
{
anchors = (
{
name = bottom;
position = "{294, 0}";
},
{
name = center;
position = "{312, 253}";
},
{
name = top;
position = "{294, 501}";
},
{
name = topright;
position = "{602, 760}";
}
);
background = {
anchors = (
{
name = bottom;
position = "{294, 0}";
},
{
name = center;
position = "{312, 253}";
},
{
name = top;
position = "{294, 501}";
},
{
name = topright;
position = "{602, 760}";
}
);
paths = (
{
closed = 1;
nodes = (
"408 -7 OFFCURVE",
"493 43 OFFCURVE",
"520 120 CURVE",
"509 140 LINE",
"509 93 OFFCURVE",
"509 47 OFFCURVE",
"508 0 CURVE",
"527 1 OFFCURVE",
"545 1 OFFCURVE",
"565 0 CURVE",
"564 127 OFFCURVE",
"563 253 OFFCURVE",
"563 380 CURVE SMOOTH",
"563 507 OFFCURVE",
"564 634 OFFCURVE",
"565 760 CURVE",
"545 759 OFFCURVE",
"526 759 OFFCURVE",
"507 760 CURVE",
"508 629 OFFCURVE",
"509 497 OFFCURVE",
"509 366 CURVE",
"520 387 LINE",
"493 464 OFFCURVE",
"408 513 OFFCURVE",
"312 513 CURVE SMOOTH",
"150 513 OFFCURVE",
"51 393 OFFCURVE",
"51 251 CURVE SMOOTH",
"51 109 OFFCURVE",
"150 -7 OFFCURVE",
"312 -7 CURVE SMOOTH"
);
},
{
closed = 1;
nodes = (
"179 44 OFFCURVE",
"113 145 OFFCURVE",
"113 251 CURVE SMOOTH",
"113 358 OFFCURVE",
"179 463 OFFCURVE",
"312 463 CURVE SMOOTH",
"430 463 OFFCURVE",
"510 378 OFFCURVE",
"510 253 CURVE SMOOTH",
"510 128 OFFCURVE",
"431 44 OFFCURVE",
"313 44 CURVE SMOOTH"
);
}
);
};
layerId = "9E718F8A-2CEA-4931-B05D-987794BD97DA";
paths = (
{
closed = 1;
nodes = (
"408 -7 OFFCURVE",
"493 43 OFFCURVE",
"520 120 CURVE",
"509 140 LINE",
"509 93 OFFCURVE",
"509 47 OFFCURVE",
"508 0 CURVE",
"527 1 OFFCURVE",
"545 1 OFFCURVE",
"565 0 CURVE",
"564 127 OFFCURVE",
"563 253 OFFCURVE",
"563 380 CURVE SMOOTH",
"563 507 OFFCURVE",
"564 634 OFFCURVE",
"565 760 CURVE",
"545 759 OFFCURVE",
"526 759 OFFCURVE",
"507 760 CURVE",
"508 629 OFFCURVE",
"509 497 OFFCURVE",
"509 366 CURVE",
"520 387 LINE",
"493 464 OFFCURVE",
"408 513 OFFCURVE",
"312 513 CURVE SMOOTH",
"150 513 OFFCURVE",
"51 393 OFFCURVE",
"51 251 CURVE SMOOTH",
"51 109 OFFCURVE",
"150 -7 OFFCURVE",
"312 -7 CURVE SMOOTH"
);
},
{
closed = 1;
nodes = (
"179 44 OFFCURVE",
"113 145 OFFCURVE",
"113 251 CURVE SMOOTH",
"113 358 OFFCURVE",
"179 463 OFFCURVE",
"312 463 CURVE SMOOTH",
"430 463 OFFCURVE",
"510 378 OFFCURVE",
"510 253 CURVE SMOOTH",
"510 128 OFFCURVE",
"431 44 OFFCURVE",
"313 44 CURVE SMOOTH"
);
}
);
width = 650;
}
);
leftKerningGroup = o;
rightKerningGroup = l;
unicode = 0064;
userData = {
anchors = (
);
b = {
};
com.typemytype.robofont.layerData = {
b = {
anchors = (
);
components = (
);
contours = (
);
lib = {
};
name = d;
unicodes = (
);
width = 1181;
};
};
components = (
);
contours = (
);
lib = {
};
name = d;
unicodes = (
);
width = 1207;
};
},
{
glyphname = dcaron;
lastChange = "2019-01-29 12:30:49 +0000";
layers = (
{
background = {
components = (
{
name = d;
}
);
paths = (
{
closed = 1;
nodes = (
"679 736 LINE",
"598 736 LINE",
"598 536 LINE",
"652 536 LINE"
);
}
);
};
components = (
{
name = d;
}
);
layerId = "E1B555A7-F4E1-459C-9C1A-AE952106EEF9";
paths = (
{
closed = 1;
nodes = (
"679 736 LINE",
"598 736 LINE",
"598 536 LINE",
"652 536 LINE"
);
}
);
width = 633;
},
{
background = {
components = (
{
name = d;
}
);
paths = (
{
closed = 1;
nodes = (
"598 736 LINE",
"538 736 LINE",
"538 541 LINE",
"571 541 LINE"
);
}
);
};
components = (
{
name = d;
}
);
layerId = "9E718F8A-2CEA-4931-B05D-987794BD97DA";
paths = (
{
closed = 1;
nodes = (
"598 736 LINE",
"538 736 LINE",
"538 541 LINE",
"571 541 LINE"
);
}
);
width = 588;
}
);
leftKerningGroup = o;
rightKerningGroup = lcaron;
unicode = 010F;
},
{
glyphname = dcroat;
lastChange = "2019-01-29 12:30:49 +0000";
layers = (
{
background = {
paths = (
{
closed = 1;
nodes = (
"660 558 LINE",
"660 667 LINE",
"223 667 LINE",
"223 558 LINE"
);
},
{
closed = 1;
nodes = (
"571 736 LINE",
"414 736 LINE",
"414 392 LINE",
"428 411 LINE",
"405 477 OFFCURVE",
"338 520 OFFCURVE",
"257 520 CURVE SMOOTH",
"125 520 OFFCURVE",
"33 417 OFFCURVE",
"33 258 CURVE SMOOTH",
"33 99 OFFCURVE",
"126 -8 OFFCURVE",
"257 -8 CURVE SMOOTH",
"338 -8 OFFCURVE",
"405 33 OFFCURVE",
"428 100 CURVE",
"416 123 LINE",
"416 0 LINE",
"571 0 LINE"
);
},
{
closed = 1;
nodes = (
"232 111 OFFCURVE",
"189 164 OFFCURVE",
"189 258 CURVE SMOOTH",
"189 349 OFFCURVE",
"230 400 OFFCURVE",
"303 400 CURVE SMOOTH",
"375 400 OFFCURVE",
"416 348 OFFCURVE",
"416 256 CURVE SMOOTH",
"416 162 OFFCURVE",
"375 111 OFFCURVE",
"303 111 CURVE SMOOTH"
);
}
);
};
layerId = "E1B555A7-F4E1-459C-9C1A-AE952106EEF9";
paths = (
{
closed = 1;
nodes = (
"660 558 LINE",
"660 667 LINE",
"223 667 LINE",
"223 558 LINE"
);
},
{
closed = 1;
nodes = (
"571 736 LINE",
"414 736 LINE",
"414 392 LINE",
"428 411 LINE",
"405 477 OFFCURVE",
"338 520 OFFCURVE",
"257 520 CURVE SMOOTH",
"125 520 OFFCURVE",
"33 417 OFFCURVE",
"33 258 CURVE SMOOTH",
"33 99 OFFCURVE",
"126 -8 OFFCURVE",
"257 -8 CURVE SMOOTH",
"338 -8 OFFCURVE",
"405 33 OFFCURVE",
"428 100 CURVE",
"416 123 LINE",
"416 0 LINE",
"571 0 LINE"
);
},
{
closed = 1;
nodes = (
"232 111 OFFCURVE",
"189 164 OFFCURVE",
"189 258 CURVE SMOOTH",
"189 349 OFFCURVE",
"230 400 OFFCURVE",
"303 400 CURVE SMOOTH",
"375 400 OFFCURVE",
"416 348 OFFCURVE",
"416 256 CURVE SMOOTH",
"416 162 OFFCURVE",
"375 111 OFFCURVE",
"303 111 CURVE SMOOTH"
);
}
);
width = 633;
},
{
background = {
paths = (
{
closed = 1;
nodes = (
"599 591 LINE",
"599 635 LINE",
"245 635 LINE",
"245 591 LINE"
);
},
{
closed = 1;
nodes = (
"501 736 LINE",
"447 736 LINE",
"447 367 LINE",
"459 374 LINE",
"436 464 OFFCURVE",
"369 513 OFFCURVE",
"273 513 CURVE SMOOTH",
"138 513 OFFCURVE",
"50 412 OFFCURVE",
"50 255 CURVE SMOOTH",
"50 97 OFFCURVE",
"140 -7 OFFCURVE",
"273 -7 CURVE SMOOTH",
"369 -7 OFFCURVE",
"436 42 OFFCURVE",
"459 132 CURVE",
"447 139 LINE",
"447 0 LINE",
"501 0 LINE"
);
},
{
closed = 1;
nodes = (
"171 42 OFFCURVE",
"107 121 OFFCURVE",
"107 255 CURVE SMOOTH",
"107 388 OFFCURVE",
"171 464 OFFCURVE",
"279 464 CURVE SMOOTH",
"386 464 OFFCURVE",
"447 387 OFFCURVE",
"447 253 CURVE SMOOTH",
"447 119 OFFCURVE",
"386 42 OFFCURVE",
"278 42 CURVE SMOOTH"
);
}
);
};
layerId = "9E718F8A-2CEA-4931-B05D-987794BD97DA";
paths = (
{
closed = 1;
nodes = (
"599 591 LINE",
"599 635 LINE",
"245 635 LINE",
"245 591 LINE"
);
},
{
closed = 1;
nodes = (
"501 736 LINE",
"447 736 LINE",
"447 367 LINE",
"459 374 LINE",
"436 464 OFFCURVE",
"369 513 OFFCURVE",
"273 513 CURVE SMOOTH",
"138 513 OFFCURVE",
"50 412 OFFCURVE",
"50 255 CURVE SMOOTH",
"50 97 OFFCURVE",
"140 -7 OFFCURVE",
"273 -7 CURVE SMOOTH",
"369 -7 OFFCURVE",
"436 42 OFFCURVE",
"459 132 CURVE",
"447 139 LINE",
"447 0 LINE",
"501 0 LINE"
);
},
{
closed = 1;
nodes = (
"171 42 OFFCURVE",
"107 121 OFFCURVE",
"107 255 CURVE SMOOTH",
"107 388 OFFCURVE",
"171 464 OFFCURVE",
"279 464 CURVE SMOOTH",
"386 464 OFFCURVE",
"447 387 OFFCURVE",
"447 253 CURVE SMOOTH",
"447 119 OFFCURVE",
"386 42 OFFCURVE",
"278 42 CURVE SMOOTH"
);
}
);
width = 588;
}
);
leftKerningGroup = o;
rightKerningGroup = l;
unicode = 0111;
userData = {
com.typemytype.robofont.layerData = {
b = {
anchors = (
);
components = (
);
contours = (
);
lib = {
};
name = dcroat;
unicodes = (
);
width = 1181;
};
};
};
},
{
glyphname = eth;
lastChange = "2019-01-29 12:30:49 +0000";
layers = (
{
background = {
paths = (
{
closed = 1;
nodes = (
"476 -8 OFFCURVE",
"578 106 OFFCURVE",
"578 307 CURVE SMOOTH",
"578 508 OFFCURVE",
"442 712 OFFCURVE",
"185 748 CURVE",
"150 640 LINE",
"306 618 OFFCURVE",
"431 506 OFFCURVE",
"431 336 CURVE",
"472 331 LINE",
"446 424 OFFCURVE",
"383 470 OFFCURVE",
"281 470 CURVE SMOOTH",
"135 470 OFFCURVE",
"33 372 OFFCURVE",
"33 232 CURVE SMOOTH",
"33 89 OFFCURVE",
"140 -8 OFFCURVE",
"296 -8 CURVE SMOOTH"
);
},
{
closed = 1;
nodes = (
"228 111 OFFCURVE",
"189 152 OFFCURVE",
"189 232 CURVE SMOOTH",
"189 312 OFFCURVE",
"228 354 OFFCURVE",
"302 354 CURVE SMOOTH",
"375 354 OFFCURVE",
"414 312 OFFCURVE",
"414 232 CURVE SMOOTH",
"414 154 OFFCURVE",
"374 111 OFFCURVE",
"302 111 CURVE SMOOTH"
);
},
{
closed = 1;
nodes = (
"572 600 LINE",
"552 680 LINE",
"150 571 LINE",
"172 491 LINE"
);
}
);
};
layerId = "E1B555A7-F4E1-459C-9C1A-AE952106EEF9";
paths = (
{
closed = 1;
nodes = (
"476 -8 OFFCURVE",
"578 106 OFFCURVE",
"578 307 CURVE SMOOTH",
"578 508 OFFCURVE",
"442 712 OFFCURVE",
"185 748 CURVE",
"150 640 LINE",
"306 618 OFFCURVE",
"431 506 OFFCURVE",
"431 336 CURVE",
"472 331 LINE",
"446 424 OFFCURVE",
"383 470 OFFCURVE",
"281 470 CURVE SMOOTH",
"135 470 OFFCURVE",
"33 372 OFFCURVE",
"33 232 CURVE SMOOTH",
"33 89 OFFCURVE",
"140 -8 OFFCURVE",
"296 -8 CURVE SMOOTH"
);
},
{
closed = 1;
nodes = (
"228 111 OFFCURVE",
"189 152 OFFCURVE",
"189 232 CURVE SMOOTH",
"189 312 OFFCURVE",
"228 354 OFFCURVE",
"302 354 CURVE SMOOTH",
"375 354 OFFCURVE",
"414 312 OFFCURVE",
"414 232 CURVE SMOOTH",
"414 154 OFFCURVE",
"374 111 OFFCURVE",
"302 111 CURVE SMOOTH"
);
},
{
closed = 1;
nodes = (
"572 600 LINE",
"552 680 LINE",
"150 571 LINE",
"172 491 LINE"
);
}
);
width = 615;
},
{
background = {
paths = (
{
closed = 1;
nodes = (
"429 -7 OFFCURVE",
"508 95 OFFCURVE",
"508 293 CURVE SMOOTH",
"508 527 OFFCURVE",
"395 676 OFFCURVE",
"179 742 CURVE",
"163 699 LINE",
"355 641 OFFCURVE",
"458 505 OFFCURVE",
"455 300 CURVE",
"481 298 LINE",
"459 410 OFFCURVE",
"388 470 OFFCURVE",
"278 470 CURVE SMOOTH",
"141 470 OFFCURVE",
"50 376 OFFCURVE",
"50 231 CURVE SMOOTH",
"50 87 OFFCURVE",
"140 -7 OFFCURVE",
"277 -7 CURVE SMOOTH"
);
},
{
closed = 1;
nodes = (
"168 42 OFFCURVE",
"107 110 OFFCURVE",
"107 231 CURVE SMOOTH",
"107 351 OFFCURVE",
"171 420 OFFCURVE",
"278 420 CURVE SMOOTH",
"384 420 OFFCURVE",
"448 351 OFFCURVE",
"448 231 CURVE SMOOTH",
"448 113 OFFCURVE",
"383 42 OFFCURVE",
"277 42 CURVE SMOOTH"
);
},
{
closed = 1;
nodes = (
"506 661 LINE",
"491 702 LINE",
"171 574 LINE",
"186 533 LINE"
);
}
);
};
layerId = "9E718F8A-2CEA-4931-B05D-987794BD97DA";
paths = (
{
closed = 1;
nodes = (
"429 -7 OFFCURVE",
"508 95 OFFCURVE",
"508 293 CURVE SMOOTH",
"508 527 OFFCURVE",
"395 676 OFFCURVE",
"179 742 CURVE",
"163 699 LINE",
"355 641 OFFCURVE",
"458 505 OFFCURVE",
"455 300 CURVE",
"481 298 LINE",
"459 410 OFFCURVE",
"388 470 OFFCURVE",
"278 470 CURVE SMOOTH",
"141 470 OFFCURVE",
"50 376 OFFCURVE",
"50 231 CURVE SMOOTH",
"50 87 OFFCURVE",
"140 -7 OFFCURVE",
"277 -7 CURVE SMOOTH"
);
},
{
closed = 1;
nodes = (
"168 42 OFFCURVE",
"107 110 OFFCURVE",
"107 231 CURVE SMOOTH",
"107 351 OFFCURVE",
"171 420 OFFCURVE",
"278 420 CURVE SMOOTH",
"384 420 OFFCURVE",
"448 351 OFFCURVE",
"448 231 CURVE SMOOTH",
"448 113 OFFCURVE",
"383 42 OFFCURVE",
"277 42 CURVE SMOOTH"
);
},
{
closed = 1;
nodes = (
"506 661 LINE",
"491 702 LINE",
"171 574 LINE",
"186 533 LINE"
);
}
);
width = 562;
}
);
leftKerningGroup = o;
rightKerningGroup = o;
unicode = 00F0;
userData = {
com.typemytype.robofont.layerData = {
b = {
anchors = (
);
components = (
);
contours = (
);
lib = {
};
name = eth;
unicodes = (
);
width = 1230;
};
};
};
},
{
color = 3;
glyphname = e;
lastChange = "2019-01-29 12:36:10 +0000";
layers = (
{
anchors = (
{
name = bottom;
position = "{330, 0}";
},
{
name = ogonek;
position = "{483, 10}";
},
{
name = top;
position = "{330, 507}";
}
);
background = {
anchors = (
{
name = bottom;
position = "{330, 0}";
},
{
name = ogonek;
position = "{483, 10}";
},
{
name = top;
position = "{330, 507}";
}
);
paths = (
{
closed = 1;
nodes = (
"536 173 LINE",
"489 137 OFFCURVE",
"430 117 OFFCURVE",
"358 117 CURVE SMOOTH",
"258 117 OFFCURVE",
"194 164 OFFCURVE",
"194 251 CURVE SMOOTH",
"194 284 LINE SMOOTH",
"194 355 OFFCURVE",
"245 412 OFFCURVE",
"329 412 CURVE SMOOTH",
"411 412 OFFCURVE",
"459 355 OFFCURVE",
"459 288 CURVE",
"502 316 LINE",
"395 315 OFFCURVE",
"289 315 OFFCURVE",
"182 316 CURVE",
"181 212 LINE",
"326 213 OFFCURVE",
"472 213 OFFCURVE",
"617 212 CURVE",
"617 235 LINE SMOOTH",
"617 414 OFFCURVE",
"495 521 OFFCURVE",
"328 521 CURVE SMOOTH",
"142 521 OFFCURVE",
"33 384 OFFCURVE",
"33 252 CURVE SMOOTH",
"33 110 OFFCURVE",
"140 -9 OFFCURVE",
"344 -9 CURVE SMOOTH",
"448 -9 OFFCURVE",
"535 17 OFFCURVE",
"599 68 CURVE"
);
}
);
};
layerId = "E1B555A7-F4E1-459C-9C1A-AE952106EEF9";
paths = (
{
closed = 1;
nodes = (
"536 173 LINE",
"489 137 OFFCURVE",
"430 117 OFFCURVE",
"358 117 CURVE SMOOTH",
"258 117 OFFCURVE",
"194 164 OFFCURVE",
"194 251 CURVE SMOOTH",
"194 284 LINE SMOOTH",
"194 355 OFFCURVE",
"245 412 OFFCURVE",
"329 412 CURVE SMOOTH",
"411 412 OFFCURVE",
"459 355 OFFCURVE",
"459 288 CURVE",
"502 316 LINE",
"395 315 OFFCURVE",
"289 315 OFFCURVE",
"182 316 CURVE",
"181 212 LINE",
"326 213 OFFCURVE",
"472 213 OFFCURVE",
"617 211 CURVE",
"617 235 LINE SMOOTH",
"617 414 OFFCURVE",
"495 521 OFFCURVE",
"328 521 CURVE SMOOTH",
"142 521 OFFCURVE",
"33 384 OFFCURVE",
"33 252 CURVE SMOOTH",
"33 110 OFFCURVE",
"140 -9 OFFCURVE",
"344 -9 CURVE SMOOTH",
"448 -9 OFFCURVE",
"535 17 OFFCURVE",
"599 68 CURVE"
);
}
);
width = 654;
},
{
anchors = (
{
name = bottom;
position = "{313, 0}";
},
{
name = ogonek;
position = "{433, 10}";
},
{
name = top;
position = "{313, 501}";
}
);
background = {
anchors = (
{
name = bottom;
position = "{313, 0}";
},
{
name = ogonek;
position = "{433, 10}";
},
{
name = top;
position = "{313, 501}";
}
);
paths = (
{
closed = 1;
nodes = (
"516 123 LINE",
"468 69 OFFCURVE",
"403 45 OFFCURVE",
"330 44 CURVE SMOOTH",
"194 42 OFFCURVE",
"112 126 OFFCURVE",
"112 251 CURVE SMOOTH",
"112 257 LINE SMOOTH",
"112 377 OFFCURVE",
"199 464 OFFCURVE",
"313 464 CURVE SMOOTH",
"426 464 OFFCURVE",
"508 385 OFFCURVE",
"508 257 CURVE",
"541 285 LINE",
"393 284 OFFCURVE",
"246 284 OFFCURVE",
"98 285 CURVE",
"99 234 LINE",
"255 235 OFFCURVE",
"412 235 OFFCURVE",
"568 234 CURVE",
"568 256 LINE SMOOTH",
"568 405 OFFCURVE",
"463 513 OFFCURVE",
"314 513 CURVE SMOOTH",
"165 513 OFFCURVE",
"51 403 OFFCURVE",
"51 248 CURVE SMOOTH",
"51 94 OFFCURVE",
"157 -7 OFFCURVE",
"328 -7 CURVE SMOOTH",
"406 -7 OFFCURVE",
"498 23 OFFCURVE",
"549 84 CURVE"
);
}
);
};
layerId = "9E718F8A-2CEA-4931-B05D-987794BD97DA";
paths = (
{
closed = 1;
nodes = (
"516 123 LINE",
"468 69 OFFCURVE",
"403 45 OFFCURVE",
"330 44 CURVE SMOOTH",
"194 42 OFFCURVE",
"112 126 OFFCURVE",
"112 251 CURVE SMOOTH",
"112 257 LINE SMOOTH",
"112 377 OFFCURVE",
"199 464 OFFCURVE",
"313 464 CURVE SMOOTH",
"426 464 OFFCURVE",
"508 385 OFFCURVE",
"508 257 CURVE",
"541 285 LINE",
"393 284 OFFCURVE",
"246 284 OFFCURVE",
"98 285 CURVE",
"99 234 LINE",
"255 235 OFFCURVE",
"412 235 OFFCURVE",
"568 234 CURVE",
"568 256 LINE SMOOTH",
"568 405 OFFCURVE",
"463 513 OFFCURVE",
"314 513 CURVE SMOOTH",
"165 513 OFFCURVE",
"51 403 OFFCURVE",
"51 248 CURVE SMOOTH",
"51 94 OFFCURVE",
"157 -7 OFFCURVE",
"328 -7 CURVE SMOOTH",
"406 -7 OFFCURVE",
"498 23 OFFCURVE",
"549 84 CURVE"
);
}
);
width = 623;
}
);
leftKerningGroup = o;
rightKerningGroup = e;
unicode = 0065;
userData = {
anchors = (
);
b = {
};
com.typemytype.robofont.layerData = {
b = {
anchors = (
);
components = (
);
contours = (
);
lib = {
};
name = e;
unicodes = (
);
width = 1132;
};
};
components = (
);
contours = (
);
lib = {
};
name = e;
unicodes = (
);
width = 1132;
};
},
